<?xml version="1.0" encoding="UTF-8"?>
<svg id="Layer_2" data-name="Layer 2" xmlns="http://www.w3.org/2000/svg" viewBox="0 0 1243.01 699.01">
  <defs>
    <style>
      .cls-1 {
        fill: #02a9fc;
      }
    </style>
  </defs>
  <g id="Layer_1-2" data-name="Layer 1">
    <path class="cls-1" d="M0,0h1243.01s0,699,0,699h-252.8c8.04-3.28,18.6-2.81,27.37-4.1,20.24-2.96,37.75-5,54.06-17.88,1.29-1.02,2.28-3.87,2.5-3.99,1.21-.68,5.83-2.14,6.69-4.28.6-1.48.09-3.28.3-3.71,3.11-6.33,4.23-7.82,6-14.98,2.38-9.64,3.08-14.92-.81-24.65-6.74-16.89-19.62-17.59-33.49-8.13-5.74,3.91-10.2,9.17-14.63,13.3-7.38,6.89-16.73,11.44-24.01,18.48-6.61,3.21-13.27,8.52-19.8,11.88-22.3,11.49-88.07,38.66-96.67-.83-16.27-74.72,122.89-74.99,127.38-130.51,1.59-19.68-16.09-44.22-37.37-43.3-29.58,1.28-46.29,32.15-60.48,52.92-11.53,16.87-26.02,37.14-45.21,48.24-5.3,3.06-17.13,8.03-23.24,8.67-16.66,1.75-36.08-5.4-43.45-20.96-.44-6.49-.83-10.25,0-16.98,2.66.59,1.89-1.4,2.53-2.91,6.8-16.01,19.51-28.66,32.25-39.95,2.75-2.44,8.58-4.72,9.18-8.07,3.83-.65,21-14.25,26.08-17.41,8.91-5.53,18.35-10.77,27.99-15.96,2.76-1.48,1.89.67,3.88-2.58,7.51-1.09,48.69-22.76,57.57-28.35,1.76-1.11,5.03-5.4,5.38-5.6,2.88-1.65,1.18.66,4-3s4.33-1.91,6.68-3.33c4.85-2.93,12.13-11.32,16.3-15.64,11.39-11.8,22.32-26.9,23.97-44.45,2.49-26.37-14.55-52.03-41.96-53.41-40.24-2.03-82.88,36.49-99.63,70.69-3.97,8.11-6.38,17.08-10.28,25.17-4.32,8.95-10.95,21.19-15.99,29.96-15.17,26.43-35.85,53.54-62.34,69.06-1.16.68-1.25,2.42-2.38,2.81-9.65,3.35-21.83,2.27-29.06-5.62-8.05-8.77-3.81-22.1,2.85-30.31,5-6.16,13.15-14.5,18.98-19.97,2.77-2.61,6.32-2.58,7.99-6.99,1.86.03,7.53-4,9.6-5.41.97-.66,2.15-2.98,2.68-3.28,2.56-1.41,4.87-2.27,7.37-4.62,3.07-2.88,3.66-4.4,5.33-7.67,5.09-1.1,1.59-.53,3.5-2.97.93-1.19,2.93-.72,3.33-1.2.21-.25.85-3.97,2.16-5.82,16.08-22.66,28.93-43.45,21.98-72.9-2.43-10.29-6.25-17.26-13.96-24.5-5.99-5.62-12.69-9.61-21.01-10.45-40.21-4.08-57.23,39.33-64.89,71.45-4.73,19.85-8.8,75.04-21.39,87.96-11.13,11.42-28.65,2.91-35.81-8.94-31.95-52.85,51.08-116.55,22.18-160.46-4.41-6.7-9.06-7.87-17.04-6.54-3.14.52-3.91,1.68-5.94,2.54-39.81,16.78-23.05,70.98-26,105.33-1.47,17.12-14.76,47.37-34.49,48.46-8.64.48-9.42-4.58-14.46-6-.62-3.45-2.96-6.17-4.05-9.43-6.69-20.05-3.54-50.36-.95-71.45,3.12-25.36,13.26-53.97-1.75-77.64-14.14-22.29-54.4-27.53-71.19-5.74-20.22,26.24-7.16,70.99,7.98,96.87,2.78,4.75,11.86,15.52,13,19.46.71,2.47,1.27,4.7,1.9,6.78,5.49,18.11,7.67,46.71.1,64.64-2.21,5.24-4.73,5.3-9,8.47-.33,0-.67.01-1,0-4.13-.13-10.78,1.1-13.65-2.34-1.44-1.73-4.98-10.13-5.81-12.66-1.59-4.82-3.32-11.91-4.52-16.96-5.17-21.8-5.49-31.97-15.99-52.92-2.17-4.34-3.43-6.87-6-10.98-4.67-7.5-7.41-12.77-14.52-18.94-37.48-32.54-78.32,2.95-55.6,45.58,1.72,3.23,12.01,17.67,14.34,19.11.3.18,1.62-.91,1.74-.77.38.45-.31,2.23,1.07,2.96.15.08.69.02,1,0,2.53,5.65,9.72,8.5,14.77,11.65,3.55,2.2,7.46,3.99,11.2,6.33,1.88,1.17,2.39,1.65,4,3,10.62,8.92,27.34,26.51,28.85,40.57,1.39,12.96-3,27.48-18.86,24.34-9.38-5.33-20.19-9.21-28.98-15.98-10.21-7.86-22.39-22.55-32.46-32-1.68-1.58-4.39-4.18-6.51-4.94-1.4-3.28-1.3-2.82-4-4.99.02-1.96-1.35-2.78-2.48-4.01-12.02-13.06-23.51-27.14-33.49-41.92-19.23-28.5-27.04-61.49-47-88.33-21.44-28.83-53.68-43.19-88.89-29.5-28.43,11.06-32.54,41.6-23.98,67.9,1.26,3.86,2.38,6.36,4,9.99,3.3,7.42,4.28,9.09,9.99,15.98,3.26,3.93,6.8,6.76,9.99,9.99.19.19.14,1.69.98,2.52,7.56,7.44,11.92,9.15,21.01,13.46,21.6,10.25,44.53,15.91,66.16,26.25,28.59,13.66,57.42,33.09,79.72,55.63,14,14.15,30.08,34.84,37.97,52.92,7.15,16.39,9.56,47.28-13.99,50.93-6.46,1-17.74-2.13-23.95-4.52-5.3-2.04-21.28-13.26-24.01-13.45-.7-3.16-5.52-5.12-8.01-7.47-14.05-13.27-22.33-23.72-31.96-40.46-1.3-2.26-3.08-5.39-4-6.99-7.4-12.9-13.41-24.12-26.06-33.37-40.52-29.63-81.73,1.47-65.87,48.35,2.05,6.07,2.61,6.98,7.01,12.5,6.23,7.82,12.49,12.33,21.74,17.13,2.38,1.24-.4,1.68,5.22,2.32.33.04.67-.03,1,0,1.98,2.73,6.09,4.03,9.13,5.36,12.99,5.68,32.19,11.72,43.83,18.61.07.04-.18,1.32.32,1.64,5.64,3.58,12.81,7.68,15.66,14.34.59,1.38,1.42,3.47,1.93,4.76.81,2.04.41,4.61,2.07,6.23-.02.66.05,1.34,0,2-.24,3.4-.45,6.52-1.7,9.75-.11.28-2.45,4.67-2.61,4.91-.85,1.27-4.07,1.97-3.68,4.31-29.07,11.94-63.78,2-91.93-9.99-13.61-5.8-26.36-14.25-39.97-19.97s-20.73-7.39-35.51-6.03-37.95,16.67-40.36,32.56c-6.52,42.97,51.47,52.2,82.42,53.36,1.92.07,4.01-1.03,3.45,2H0V0ZM639.08,130.23c-5.75-4.56-14.48-9.16-21.99-8.32-18.98,2.11-24.89,24.74-8.52,34.32,4.42,2.59,8.63,2.65,12.64,4.34,14.8,6.24,22.47,16.92,28.76,31.15,10.04-20.17,7.39-46.97-10.9-61.48ZM521.58,143.8c-14.34,7.13-17.97,17.51-19.98,32.95-.03.26-.93,1.1-1.04,2.42-2.44,30.15,15.09,56.22,44,64.48,1.15-1.25-2.74-12.05-3.02-14.44-.97-8.28,1.5-14.08,2.03-21.5.02-.33-.02-.67,0-1l15.37-25.08c4.98-11.19,5.76-22.7-1.37-33.14-.58-.85-1.94-.6-2.02-.69-.75-.88-.83-2.61-2.85-3.86-10.25-6.34-20.82-5.25-31.12-.13ZM723.42,143.8c-17.3,1.5-29.54,15.2-39.97,26.96-1.5,1.69-4.29,3.26-6.81,6.67-31.7,43.07-36.69,105.77-31.12,157.36,1.18,1.03,3.38,4.4,5.03,2.13,1.4-26.31,11.17-46.61,30.88-63.83,23.52-20.54,64.97-29.04,80.15-56.71,2.4-4.38,6.89-12.91,4.8-17.67.06-.03.96-.94,1-1,1.82-2.93,1.54-11.92,0-14.98-.02-.33.02-.67,0-1-1.38-20.83-20.84-44.67-43.96-37.95ZM806.85,163.34c-13.66.46-22.84,11.98-20.04,25.46,2.41,11.61,18.51,10.3,27.22,7.12,23.07-8.44,16.87-33.38-7.18-32.57ZM504.2,315.89c1.06,4.65,1.82,9.41,2.39,14.15.26,2.16-1.13,10.24,2.49,9.48.88-.19,2.61-2.92,3.03-3.97,4.52-11.5,4.85-46.44,3.36-59.31-5.58-48.06-36.56-91.01-85.61-101.18-39.27-8.15-67.73,29.82-40.68,62.63,26.25,31.84,60.8,15.05,88.77,36.11,11.9,8.96,20.99,24.25,25.34,38.43.12.39.86,3.45.91,3.67ZM625.09,182.18c-14.92-12.14-34.18-4.97-47.53,6.11-32.93,27.35,5.15,79.63,36.82,66.73,26.6-10.84,32.39-55.18,10.7-72.84ZM742.39,343.51c.54-.43,2.05-10.65,3.01-13.49,10.79-32.09,34.44-39.34,61.94-50.93,21.15-8.92,38.81-28.5,25.02-51.94-13.04-22.17-38.05-15.61-54.51-1.5-27.99,24.01-38.99,66.66-39.53,102.36-.03,1.92.53,14.97,1.09,15.5.11.1,2.86.09,2.97,0ZM331.52,214.98c-13.78,1.76-33.77,16.06-33.57,31.19.48,36.14,68.35,40.15,65.79-3.05-1.17-19.83-11.95-30.73-32.22-28.14ZM869.3,281.6c5.98,13.7,6.28,26.93,1,40.94,12.83-1.99,23.42-9.65,31.97-18.97.32-.35.69-.64,1-1,15.04-17.61,17.3-34.2,9.99-55.92-.1-.3.11-.7,0-1-1.99-5.48-2.39-6.45-6-10.98-5.33-6.7-10.79-10.92-19.18-13.28-27.02-7.59-43,16.35-31.32,40.28,1.14,2.34,11.32,18.73,12.53,19.93ZM1005.19,247.65c-23.76-9.95-49.19.75-61.95,21.97-.58.96-1.46,2.92-2,3.99-5.58,11.13-8.79,20.06-8.99,32.95,8.56-2.3,13.85-8.13,23.43-9.02,16.9-1.58,24.77,5.66,39.51,8.03,42.21,6.8,42.77-44.19,9.99-57.92ZM223.55,319.28c.59-.92,5.81-15.06,6.03-16.45,5.79-36.67-43.54-41.85-58.89-9.92-14.44,30.04-.7,62.1,26.55,76.72,2.92,1.56,6.64,2.54,9.78,3.95,1.21.55.33,3.03,3.57,1.18,1.04-.59,1.25-.12,1.35-1.79.21-3.55-3.69-11.15-4.09-15.98-1.12-13.69,5.94-25.15,12.99-35.98.56-.85,2.3-1.09,2.72-1.73ZM453.21,288.01c-18.31-15.98-42.65-22.64-65.21-10.59-20.35,10.87-30.31,43.04-8.83,57.13.53.35,4.95,2.82,5.25,2.9,26.78,7.83,39.32-23.7,61.59-21.79,11.6,1,22.01,5.32,29.62,14.34,1.82,2.15,5.46,9.93,7.46,9.5,1.95-1.36,1.74-3.2,1.31-5.26-2.29-11.03-22.31-38.49-31.2-46.24ZM979.21,463.33c.93,1.15,21.42,2.13,24.52,2.05,33.4-.87,80.3-12.71,98.57-43.29,16.4-27.44-3.84-61.5-35.6-56.55-21.89,3.41-26.59,49.13-36.71,65.17-9.36,14.84-25.5,24.78-42.54,28.39-2.26.48-6.63-.38-7.8,1.19-.49.66-.74,2.68-.45,3.04ZM223.51,399.79c-29.68-11.4-82.39-13.35-101.8,16.93-10.94,17.06.24,43.63,19.74,46.57,38.36,5.79,57.4-50.37,102.79-43.81,2.11.3,20.77,8.57,14.61.38-.45-.6-10.34-7.4-11.88-8.32-5.66-3.37-17.83-9.57-23.47-11.74ZM725.04,415.82c-21.6-14-33.66,30.83-14.33,41.74,17.21,9.71,25.06-4.94,23.67-20.66-.49-5.52-4.59-17.99-9.35-21.07ZM244.22,450.94c-14.32-15.58-40.69-7.91-50.54,8.73-17.71,29.9-5.29,64.06,24.13,80.07,1.17.64,15.1,7.6,15.02,4.96-3.47-10.15-5.05-19.88-2.56-30.49,4.79-20.37,34-41.47,13.95-63.28ZM1049.52,522.88c25.88,18.28,64.63-1.43,51.08-36.56-12.59-32.64-63.25-9.27-62.46,15.41.24,7.42,5.33,16.87,11.38,21.15ZM826.34,568.2c-1.34,1.79,5.25,5.09,6.63,5.84,22.11,11.97,51.05,3.71,64.13-17.51,19.28-31.29-20.94-63.87-37.98-29.96-7.25,14.44-6.59,27.44-22.66,37.27-2.2,1.35-9.8,3.92-10.13,4.37ZM401.26,560.62c8.31,10.44,26.28,25.14,39.29,13.97,21.25-18.25-6.79-72.96-39.54-53.5-16.23,9.65-9.25,27.58.25,39.53ZM225.82,567.19c-8.45-12.81-56.88-28.62-72.45-29.95-24.31-2.08-67.62,5.64-73.43,33.94-4.02,19.57,6.42,40.7,26.18,46.24,31.33,8.78,57.68-23.74,85.73-32.26,13.09-3.97,28.79-6.02,41.96-1.49,2.71.93,17.56,11.71,16.88,5.14-.55-5.24-14.49-12.82-17.64-17.58l-6.22-3.04c-.21-.33-.74-.6-1-1ZM1136.09,543.23c-43-11.43-85.56,12.49-114.91,41.94-5.65,5.67-10.25,9.72-14.8,16.66-.89,1.35-4.66,5.71-1.64,6.3,4.06.8,8.19-5.03,11.76-7.17,10.51-6.33,24.15-7.7,36.21-6.84,30.34,2.16,79.71,41.95,104.67,9.76,19.31-24.9,8.23-52.8-21.28-60.65ZM301.07,630.8c9.95,10.91,43.19,4.18,43.7-12.21.64-20.36-41.2-24.95-45.57-3.52-.87,4.27-1.18,12.39,1.87,15.73ZM985.9,615.43c-15.61-16.76-71.7,8.11-56.5,34,14.06,23.94,71.24,11.09,60.36-26.37-.44-1.51-2.93-6.63-3.86-7.63ZM1150.78,678.74c.67-.69.54-2.66,1.7-3.78,2.91-2.8,5.55-3.07,7.49-7.51,6.61-15.15-1.86-31.03-19.32-28.3-8.88,1.39-16.63,17.08-24.07,22.88-7.39,5.77-16.21,8.12-25.46,9.02,6.96,9.04,25.13,16.99,36.37,15.86,4.47-.45,20.41-5.22,23.29-8.17ZM94.37,651.49c-22,28.78,42.01,51.8,46.4,13.96,3.07-26.42-37.29-25.88-46.4-13.96Z"/>
  </g>
</svg>