<?xml version="1.0" standalone="no"?>
<!DOCTYPE svg PUBLIC "-//W3C//DTD SVG 1.1//EN" "http://www.w3.org/Graphics/SVG/1.1/DTD/svg11.dtd" >
<svg>
<metadata>
Created by FontForge 20120731 at Sun Jan  8 20:59:00 2023
 By ffonts
Yoghurt Black Awansenja2020. All Rights Reserved
</metadata>
<defs>
<font id="YoghurtBlack" horiz-adv-x="915" >
  <font-face 
    font-family="Yoghurt Black"
    font-weight="400"
    font-stretch="normal"
    units-per-em="2048"
    panose-1="2 0 5 0 0 0 0 0 0 0"
    ascent="1638"
    descent="-410"
    x-height="825"
    cap-height="1288"
    bbox="-749 -629 1762 1714"
    underline-thickness="150"
    underline-position="-142"
    unicode-range="U+001D-2265"
  />
<missing-glyph horiz-adv-x="1024" 
 />
    <glyph glyph-name=".notdef" horiz-adv-x="1024" 
 />
    <glyph glyph-name=".null" horiz-adv-x="0" 
 />
    <glyph glyph-name=".null" horiz-adv-x="0" 
 />
    <glyph glyph-name="nonmarkingreturn" horiz-adv-x="508" 
 />
    <glyph glyph-name="space" unicode=" " horiz-adv-x="680" 
 />
    <glyph glyph-name="space" unicode="&#xa0;" horiz-adv-x="680" 
 />
    <glyph glyph-name="exclam" unicode="!" horiz-adv-x="332" 
d="M159 275c-19 0 -41 9 -68 28c-77 68 -115 230 -115 485c0 67 3 133 9 199c12 146 32 236 58 268c26 33 59 49 97 49c17 0 32 -4 47 -11c14 -8 26 -20 35 -36s14 -36 16 -61l1 -43c0 -63 -9 -173 -28 -328l-15 -137c-8 -79 -12 -145 -12 -198c0 -55 5 -102 17 -140
c2 -9 4 -18 4 -26c0 -20 -7 -34 -21 -43c-7 -4 -15 -6 -25 -6zM159 -22h-11c-12 0 -26 2 -41 6c-33 10 -58 31 -75 61c-9 18 -14 35 -14 51c0 25 10 45 31 60s46 23 75 23c37 0 65 -12 86 -35c16 -19 24 -45 24 -78c0 -13 -3 -26 -7 -40c-5 -13 -13 -24 -25 -33
c-13 -9 -27 -14 -43 -15z" />
    <glyph glyph-name="quotedbl" unicode="&#x22;" horiz-adv-x="498" 
d="M368 713c-51 0 -91 36 -120 107c-19 45 -28 91 -28 137c0 102 31 153 94 153c11 0 23 -2 34 -6c23 -9 39 -23 48 -44c4 -11 6 -28 6 -52c0 -25 -3 -56 -8 -95c-5 -47 -7 -79 -7 -97v-12c0 -36 7 -61 22 -73c1 -1 2 -2 2 -3c0 -2 -2 -4 -5 -6c-6 -6 -19 -9 -38 -9z
M138 713c-51 0 -91 35 -120 107c-19 46 -28 93 -28 142c0 41 7 76 21 105s38 43 72 43c12 0 24 -2 35 -6c23 -9 39 -23 47 -44c5 -14 7 -31 7 -52c0 -23 -2 -55 -8 -95c-5 -52 -8 -88 -8 -109c0 -36 8 -60 23 -73l2 -3c0 -2 -2 -4 -5 -6c-3 -3 -9 -5 -16 -7
c-7 -1 -15 -2 -22 -2z" />
    <glyph glyph-name="numbersign" unicode="#" horiz-adv-x="1008" 
d="M310 -19c-19 0 -42 12 -70 37c-62 67 -103 209 -121 425l-98 -3c-7 0 -14 2 -19 5c-6 3 -11 8 -14 15c-4 6 -6 13 -6 21s2 15 6 22c3 6 8 11 14 15c5 4 12 6 19 6l92 3c-3 61 -5 123 -5 185l-87 -3c-7 0 -14 2 -19 6c-6 3 -11 8 -14 15c-4 6 -6 13 -6 21c0 7 2 14 6 21
c7 15 18 22 33 22l88 3c3 145 12 270 29 375c10 58 34 98 72 121c17 11 34 16 52 16c17 0 34 -5 49 -14c15 -10 27 -25 37 -46s16 -47 18 -79c2 -29 3 -60 3 -92c0 -67 -4 -159 -12 -274l151 5c9 184 28 295 56 332c25 32 56 50 95 53c19 0 35 -4 50 -11
c34 -18 53 -52 57 -104c1 -22 2 -45 2 -68c0 -58 -3 -123 -9 -195l120 3c8 0 15 -2 21 -5c13 -8 19 -20 19 -36c0 -8 -2 -15 -5 -21c-4 -7 -9 -12 -15 -16s-13 -6 -20 -6l-127 -4c-1 -15 -3 -30 -5 -45l-12 -141l95 3c7 0 14 -2 20 -5s11 -8 14 -14c3 -7 5 -14 5 -22
s-2 -15 -5 -21c-3 -7 -8 -12 -14 -16s-13 -6 -20 -7l-101 -3c-2 -37 -3 -73 -3 -108c0 -70 7 -128 20 -175c3 -11 5 -22 5 -31c0 -19 -7 -33 -20 -43c-7 -5 -15 -7 -24 -7c-20 0 -44 10 -72 31c-59 54 -98 163 -116 327l-186 -5c-2 -52 -3 -107 -3 -164
c0 -85 7 -154 21 -207c3 -11 5 -22 5 -33c0 -18 -4 -33 -11 -45c-8 -13 -20 -19 -35 -19zM338 534l173 5c-3 53 -5 105 -5 158v27l-155 -5z" />
    <glyph glyph-name="dollar" unicode="$" horiz-adv-x="708" 
d="M346 -158c-7 0 -14 2 -19 6c-6 3 -11 8 -14 14c-4 5 -6 12 -6 19v104l-23 -1c-49 0 -96 11 -141 32c-67 31 -113 73 -138 128c-13 26 -19 53 -19 81c0 52 21 98 64 137c47 44 113 70 197 79c11 0 20 -3 29 -10c8 -7 12 -16 12 -30c0 -8 -3 -16 -8 -23
c-6 -7 -14 -11 -25 -12c-77 -9 -132 -33 -164 -71c-18 -22 -27 -47 -27 -74c0 -34 17 -65 51 -93c35 -27 79 -41 132 -41c20 0 40 2 60 7v435c-40 40 -81 77 -125 111c-24 19 -47 38 -69 58c-83 74 -125 160 -125 258c0 31 5 62 15 93c9 31 24 61 45 90c20 29 44 54 72 76
c27 22 57 40 89 54c32 13 65 23 98 28v75c0 7 2 13 6 19c3 6 8 11 14 14c5 3 12 5 19 5s13 -2 19 -5c13 -7 19 -18 19 -33v-72c57 -4 104 -20 141 -49c63 -51 95 -127 95 -228c0 -21 -1 -42 -3 -64c-3 -21 -6 -41 -11 -60s-11 -35 -16 -46c-1 -8 -5 -15 -10 -21
s-12 -10 -19 -13s-14 -4 -21 -4c-10 0 -20 3 -29 9c-13 8 -20 20 -20 34l1 7c14 41 21 79 21 113c0 42 -12 74 -35 96c-23 23 -52 34 -88 34h-6v-375c58 -55 102 -110 134 -163c43 -73 64 -154 64 -241c0 -95 -21 -172 -63 -231c-34 -47 -79 -79 -135 -98v-119
c0 -7 -2 -14 -5 -19c-8 -13 -19 -20 -33 -20zM307 808v282c-17 -9 -33 -19 -46 -32c-28 -26 -41 -56 -41 -91c0 -21 4 -41 14 -61c12 -27 37 -60 73 -98zM384 131c43 31 65 77 65 137c0 53 -22 110 -65 170v-307z" />
    <glyph glyph-name="percent" unicode="%" horiz-adv-x="922" 
d="M196 -33c-10 0 -21 4 -32 12c-33 22 -50 59 -50 110c0 96 43 249 130 460c48 120 99 234 153 342c113 230 192 360 235 392c24 17 50 26 78 26c36 0 64 -13 84 -38c11 -16 17 -33 17 -54c0 -16 -3 -34 -10 -53c-20 -52 -65 -145 -135 -277l-187 -345
c-148 -271 -225 -443 -234 -516c-2 -16 -7 -29 -14 -39c-10 -13 -22 -20 -35 -20zM205 866c-40 0 -77 10 -112 31c-46 27 -79 63 -98 111c-13 29 -19 60 -19 91c0 45 12 84 37 119c42 59 108 89 198 89c55 0 101 -16 139 -47c37 -32 56 -79 56 -143c0 -31 -4 -61 -13 -90
c-19 -64 -50 -109 -93 -135c-29 -17 -61 -26 -95 -26zM210 921c5 0 13 2 23 6c10 5 23 19 40 44c27 40 41 88 42 143c0 25 -4 49 -12 70c-14 35 -29 52 -45 52s-32 -11 -49 -34c-38 -52 -57 -107 -57 -165c0 -17 2 -33 6 -49c11 -45 28 -67 52 -67zM630 9
c-40 0 -77 10 -112 31c-46 27 -79 63 -98 111c-13 30 -20 60 -20 89c0 45 13 85 38 121c42 59 108 89 197 89c56 0 103 -16 140 -47c37 -32 55 -80 55 -143c0 -31 -4 -61 -12 -90c-18 -63 -49 -108 -93 -135c-29 -17 -61 -26 -95 -26zM635 64c19 0 40 17 63 50
c27 41 41 89 41 143c0 25 -4 49 -11 70c-14 35 -29 52 -45 52s-32 -11 -49 -34c-39 -53 -58 -107 -58 -162c0 -18 2 -36 6 -53c12 -44 30 -66 53 -66z" />
    <glyph glyph-name="ampersand" unicode="&#x26;" horiz-adv-x="715" 
d="M195 -25c-37 0 -71 7 -103 21c-49 21 -85 58 -107 109c-9 22 -13 49 -13 80c0 47 13 103 39 169c18 48 50 114 96 200c-50 103 -86 201 -108 293c-16 62 -24 118 -24 169c0 89 23 158 69 207c55 59 132 88 231 88c56 0 110 -12 162 -36c55 -25 97 -59 125 -102
c23 -34 34 -72 34 -113c0 -67 -32 -156 -96 -267c-35 -61 -86 -141 -152 -238c-28 -41 -55 -81 -80 -120c51 -83 104 -156 159 -217c34 68 62 156 84 264c5 19 17 28 37 28c17 0 30 -7 40 -20c5 -7 7 -17 7 -30c-28 -128 -63 -230 -106 -306c34 -31 68 -54 101 -71
c19 -9 28 -22 28 -39c0 -5 -1 -9 -3 -14c-7 -15 -19 -22 -36 -22c-6 0 -12 1 -19 4c-37 17 -75 42 -115 77c-33 -40 -75 -70 -126 -89c-41 -17 -82 -25 -124 -25zM157 643c74 124 127 222 159 294c26 58 38 105 38 140c0 27 -7 50 -20 67c-18 21 -43 32 -76 32
c-34 0 -68 -12 -103 -35c-53 -36 -80 -95 -80 -178c0 -95 27 -202 82 -320zM232 64c23 0 46 6 70 18c35 17 63 39 82 65c-57 60 -111 130 -164 210c-49 -84 -73 -149 -73 -196c0 -30 7 -53 23 -71c15 -17 36 -26 62 -26z" />
    <glyph glyph-name="quotesingle" unicode="'" horiz-adv-x="271" 
d="M144 713c-52 0 -92 35 -121 107c-18 44 -27 92 -27 142c0 41 7 76 21 105s38 43 72 43c12 0 23 -2 34 -6c24 -9 40 -24 48 -44c5 -14 7 -31 7 -52c0 -20 -2 -52 -7 -95c-6 -48 -9 -81 -9 -97v-21c0 -11 2 -22 6 -35c3 -13 9 -22 17 -29l2 -3c0 -2 -2 -4 -5 -6
c-3 -3 -9 -5 -16 -7c-7 -1 -15 -2 -22 -2z" />
    <glyph glyph-name="parenleft" unicode="(" horiz-adv-x="445" 
d="M355 -179h-14l-4 1c-13 0 -30 6 -49 17c-56 30 -106 79 -152 146c-62 89 -105 199 -130 332c-15 79 -23 160 -23 244c0 120 13 238 40 353c31 137 76 256 136 357c64 108 139 188 226 240c6 3 14 5 26 5c53 0 96 -10 129 -31c18 -11 27 -23 27 -34c0 -14 -12 -29 -36 -44
c-44 -28 -89 -83 -136 -166c-47 -82 -89 -181 -127 -295c-69 -206 -103 -400 -103 -582c0 -234 66 -386 197 -455h4c8 0 16 -2 22 -6c7 -4 12 -9 16 -16c3 -7 5 -15 5 -23c0 -25 -18 -39 -54 -43z" />
    <glyph glyph-name="parenright" unicode=")" horiz-adv-x="503" 
d="M-175 -179c-12 0 -25 1 -39 3c-32 5 -59 14 -82 27c-20 11 -30 23 -30 36c0 14 12 28 36 43c44 28 89 83 136 166s89 181 127 296c69 207 103 401 103 581c0 99 -13 185 -38 259c-32 93 -85 159 -159 196c-10 0 -18 2 -25 7c-15 8 -22 21 -22 38c0 18 9 30 27 38l20 5h25
l2 -1c17 -3 33 -8 48 -16c55 -32 106 -80 152 -146c62 -91 105 -201 130 -331c14 -81 22 -162 22 -246c0 -121 -13 -238 -39 -352c-32 -138 -78 -257 -137 -358c-64 -108 -139 -188 -226 -240c-6 -3 -16 -5 -31 -5z" />
    <glyph glyph-name="asterisk" unicode="*" horiz-adv-x="497" 
d="M51 830c-5 0 -10 2 -15 6c-9 7 -14 17 -14 30c0 5 22 53 65 145l-93 -19c-6 0 -12 2 -17 6c-9 7 -13 17 -13 30c0 17 7 27 20 29l120 25c-44 45 -78 83 -102 115c-13 17 -19 34 -19 50c0 24 8 36 26 36c12 0 24 -6 37 -17c22 -19 58 -57 109 -113l82 172c5 9 13 14 22 14
c5 0 10 -2 15 -6c9 -7 14 -17 14 -30c0 -4 -27 -70 -80 -197l159 31c6 0 12 -2 18 -7c8 -7 12 -17 12 -29c0 -17 -7 -27 -20 -29l-124 -26c53 -57 91 -86 112 -86h3c1 0 2 -2 2 -5c0 -9 -5 -19 -14 -28c-5 -5 -13 -8 -23 -8c-12 0 -25 4 -40 11s-31 18 -49 33
c-19 15 -39 32 -61 53l-3 -1l-108 -170c-4 -10 -11 -15 -21 -15z" />
    <glyph glyph-name="plus" unicode="+" horiz-adv-x="459" 
d="M166 108c-9 0 -17 3 -24 7c-7 5 -13 11 -17 18s-6 15 -6 24l3 106l-99 1c-9 0 -17 3 -24 7s-13 10 -17 17c-4 8 -6 16 -6 25c0 8 2 16 7 24c4 7 10 12 17 16c7 5 15 7 24 7l101 -2l3 108c1 13 6 24 15 33c9 8 20 13 33 13c19 0 33 -8 42 -25c4 -7 6 -15 6 -24l-3 -106
l99 -1c9 0 17 -3 24 -7s13 -10 17 -17s6 -15 6 -24s-2 -17 -6 -24c-5 -8 -11 -13 -18 -17s-15 -7 -24 -7l-101 2l-3 -107c-1 -9 -3 -17 -7 -24c-5 -7 -11 -13 -18 -17s-15 -6 -24 -6z" />
    <glyph glyph-name="comma" unicode="," horiz-adv-x="290" 
d="M37 -121c-4 0 -9 1 -18 2c-8 1 -17 8 -27 20c-1 2 -2 3 -2 4c0 2 3 6 10 11c25 18 44 43 56 74c-44 24 -66 60 -66 108c0 18 4 34 12 50c14 27 35 47 65 58c13 5 28 8 45 8c32 0 57 -15 75 -46c11 -20 16 -44 16 -71s-9 -58 -27 -94c-19 -36 -41 -66 -67 -89
c-27 -23 -51 -35 -72 -35z" />
    <glyph glyph-name="hyphen" unicode="-" horiz-adv-x="403" 
d="M266 175l-237 4c-9 0 -17 3 -24 7c-8 4 -13 10 -17 17c-4 8 -6 16 -6 25c0 13 5 24 14 33s20 13 33 14l238 -4c19 -1 32 -9 41 -24c4 -8 6 -16 6 -25s-2 -17 -7 -24c-4 -7 -10 -12 -17 -17c-7 -4 -15 -6 -24 -6z" />
    <glyph glyph-name="hyphen" unicode="&#xad;" horiz-adv-x="403" 
d="M266 175l-237 4c-9 0 -17 3 -24 7c-8 4 -13 10 -17 17c-4 8 -6 16 -6 25c0 13 5 24 14 33s20 13 33 14l238 -4c19 -1 32 -9 41 -24c4 -8 6 -16 6 -25s-2 -17 -7 -24c-4 -7 -10 -12 -17 -17c-7 -4 -15 -6 -24 -6z" />
    <glyph glyph-name="period" unicode="." horiz-adv-x="286" 
d="M103 -23c-12 0 -26 3 -40 8c-34 11 -59 33 -75 64c-9 20 -14 38 -14 55c0 26 10 47 30 64c21 16 46 24 76 24c35 0 64 -13 85 -38c16 -19 24 -47 24 -83c0 -35 -10 -61 -31 -77c-15 -11 -33 -17 -55 -17z" />
    <glyph glyph-name="slash" unicode="/" horiz-adv-x="599" 
d="M40 -33c-10 0 -21 4 -32 12c-33 22 -50 59 -50 110c0 37 7 84 22 140c44 179 131 400 261 662c113 230 192 360 235 392c24 17 50 26 78 26c37 0 65 -13 84 -38c11 -15 17 -34 18 -56c0 -16 -4 -33 -11 -51c-20 -52 -65 -145 -135 -277l-187 -345
c-145 -266 -222 -438 -234 -516c-2 -16 -7 -29 -14 -39c-10 -13 -22 -20 -35 -20z" />
    <glyph glyph-name="zero" unicode="0" horiz-adv-x="761" 
d="M322 -28c-82 0 -151 34 -208 102c-52 62 -91 144 -116 247c-19 77 -28 159 -28 244c0 83 8 162 24 238c24 111 62 207 117 286c57 85 130 143 216 174c24 8 47 12 68 12c64 0 118 -33 162 -100c71 -110 107 -276 107 -500c0 -79 -6 -158 -18 -237
c-17 -112 -43 -206 -78 -282c-38 -82 -83 -134 -135 -158c-39 -17 -76 -26 -111 -26zM385 74c34 0 64 25 91 76c26 51 48 123 63 216c15 88 22 182 22 281c0 47 -2 94 -5 139c-4 45 -10 86 -17 125s-16 73 -27 102s-24 51 -39 68c-15 16 -32 24 -51 24c-10 0 -20 -2 -30 -7
c-36 -18 -69 -53 -98 -106c-37 -67 -63 -150 -80 -251c-12 -71 -18 -142 -18 -212c0 -81 7 -153 21 -217c19 -92 48 -157 87 -196c28 -28 55 -42 81 -42z" />
    <glyph glyph-name="one" unicode="1" horiz-adv-x="488" 
d="M313 -28c-57 0 -103 40 -138 121c-43 98 -65 246 -65 444c0 60 2 128 7 205c1 22 9 108 22 259c-17 -21 -32 -41 -47 -61c-5 -8 -17 -20 -36 -36c-10 -9 -21 -13 -35 -13s-27 5 -38 15c-12 11 -17 23 -17 37c0 13 4 23 14 32c54 49 108 115 165 197c13 20 27 39 40 56
c25 44 56 66 94 66c32 0 59 -14 80 -43s32 -69 32 -121c-1 -50 -10 -158 -26 -324c-27 -277 -40 -467 -40 -570l1 -80c2 -42 8 -79 19 -112c7 -23 16 -38 26 -46c1 -1 2 -2 2 -4s-2 -4 -5 -8c-3 -3 -10 -6 -20 -9s-22 -5 -35 -5z" />
    <glyph glyph-name="two" unicode="2" horiz-adv-x="684" 
d="M203 -28c-31 0 -61 4 -90 13c-53 16 -90 42 -113 77c-13 20 -20 44 -20 72c0 23 6 48 17 76c26 60 56 123 89 189c61 128 100 213 118 254c70 163 105 295 105 398c0 73 -14 109 -42 109c-24 0 -49 -24 -77 -73c-24 -43 -42 -92 -54 -147c-1 -9 -5 -16 -11 -21
c-10 -10 -22 -14 -35 -14c-15 0 -29 5 -40 15c-12 10 -18 22 -18 35c5 45 22 95 51 150c60 116 134 176 221 178c44 0 88 -18 133 -54c97 -79 146 -177 146 -294c0 -109 -44 -239 -131 -391c-38 -65 -85 -141 -141 -226c-38 -56 -69 -105 -93 -145c-29 -40 -51 -75 -66 -106
c12 -9 28 -13 49 -13c70 0 177 50 321 149c7 5 15 7 22 7c4 0 9 -1 16 -2c7 -2 15 -8 22 -17c7 -10 11 -20 11 -29c0 -12 -5 -22 -16 -30c-157 -107 -282 -160 -374 -160z" />
    <glyph glyph-name="three" unicode="3" horiz-adv-x="675" 
d="M192 -28c-47 0 -90 15 -127 46c-35 27 -61 61 -81 103c-15 31 -22 54 -22 68c0 24 14 47 43 70c13 9 26 13 37 13c14 0 23 -6 26 -19c13 -52 30 -97 51 -132c23 -40 46 -59 70 -59c26 0 52 7 76 23c43 27 76 70 97 129c16 44 24 91 24 140c0 46 -8 89 -22 129
c-36 94 -102 143 -197 146c-2 1 -4 3 -6 6c-5 7 -7 13 -7 19c0 8 4 17 12 27c34 33 77 50 127 50l15 -1c25 61 37 133 37 217c0 63 -11 114 -33 152c-18 30 -43 45 -75 45c-29 0 -59 -10 -90 -29c-38 -24 -65 -57 -81 -101c-11 -27 -16 -57 -16 -87c0 -12 1 -24 2 -37
c0 -8 -3 -17 -8 -26c-6 -9 -14 -17 -24 -23s-19 -9 -27 -9l-7 1c-9 1 -13 22 -13 63c0 56 11 109 35 159c32 68 79 122 141 163c67 44 141 66 224 66c30 0 57 -7 82 -20c42 -24 74 -64 95 -121c16 -43 24 -92 24 -146c0 -46 -8 -92 -22 -139c-21 -70 -57 -129 -107 -176
c54 -36 91 -89 111 -159c9 -35 14 -72 14 -111c0 -70 -14 -137 -43 -202c-32 -71 -76 -127 -133 -170c-60 -46 -127 -68 -202 -68z" />
    <glyph glyph-name="four" unicode="4" horiz-adv-x="831" 
d="M658 -28c-21 0 -43 14 -66 41c-61 69 -99 203 -115 399l-455 -59c-17 0 -31 6 -41 19c-8 8 -11 17 -11 27c0 15 20 57 59 127c135 231 202 410 202 539c0 9 -1 22 -2 41s-8 42 -19 68v2c0 8 11 15 34 23c12 3 26 5 43 5c29 0 54 -11 76 -34c33 -44 49 -99 49 -165
c0 -112 -37 -233 -112 -363c-40 -70 -83 -128 -130 -175l302 39c-2 45 -3 90 -3 136c0 204 13 375 40 513c6 30 16 55 29 75c26 41 59 62 97 62c17 0 32 -5 47 -15s27 -25 36 -45c9 -21 15 -47 16 -78l1 -55c0 -104 -9 -245 -28 -422c-18 -204 -27 -344 -27 -419
c0 -81 5 -144 17 -190c3 -14 4 -26 4 -37c0 -27 -8 -45 -24 -54c-6 -3 -12 -5 -19 -5z" />
    <glyph glyph-name="five" unicode="5" horiz-adv-x="754" 
d="M283 -28c-53 0 -98 16 -136 48c-50 43 -75 100 -75 173c0 86 28 149 85 191c38 28 88 42 150 42c33 0 70 -4 112 -13c16 51 24 95 24 132c0 49 -14 85 -43 110c-25 21 -51 32 -76 32c-30 0 -58 -14 -84 -40c-29 -30 -51 -69 -67 -118c-2 -6 -5 -11 -9 -15
c-12 -12 -26 -18 -41 -18c-13 0 -27 5 -43 16c-63 43 -94 131 -94 264c0 53 3 109 9 169c12 113 30 194 54 243c27 49 115 78 263 86c54 3 112 4 175 4c41 0 75 1 104 2c10 0 19 -2 27 -7s14 -11 19 -18s7 -16 8 -25c0 -9 -2 -17 -7 -24c-5 -8 -11 -14 -19 -18
c-8 -5 -17 -7 -26 -7l-330 -20l1 -25c0 -20 -2 -44 -5 -69c-3 -26 -7 -55 -14 -86l-21 -96s-14 -64 -21 -97s-12 -67 -16 -100c57 59 119 88 187 88c4 0 13 0 27 -1c15 -1 35 -6 60 -17c73 -33 128 -89 163 -168c26 -58 39 -120 39 -187c0 -64 -12 -126 -37 -185
c-35 -86 -93 -151 -174 -197c-58 -33 -115 -49 -169 -49zM204 106c20 0 45 17 76 53c40 46 77 105 111 179c-25 5 -47 7 -67 7c-103 0 -155 -48 -155 -143c0 -8 1 -17 2 -27c1 -11 2 -21 4 -32s4 -20 6 -26c6 -7 14 -11 23 -11z" />
    <glyph glyph-name="six" unicode="6" horiz-adv-x="707" 
d="M336 -28c-33 0 -68 8 -104 23c-163 73 -244 216 -244 427c0 108 20 224 61 348c32 97 74 190 125 279c39 67 74 117 106 149c35 33 66 57 93 72c23 9 43 14 61 14c29 0 54 -8 73 -23c10 -9 15 -17 15 -24c0 -2 -1 -4 -4 -5c-13 -6 -24 -14 -33 -26l-15 -19
c-27 -33 -58 -97 -94 -193c-32 -84 -61 -174 -88 -269c-28 -99 -44 -163 -49 -194c41 29 86 43 133 43c14 0 31 -2 52 -7c21 -4 44 -14 69 -29s47 -35 66 -58s34 -50 45 -79c11 -30 16 -62 17 -96c0 -33 -4 -65 -13 -97s-22 -62 -39 -91s-38 -54 -61 -75
c-23 -22 -49 -39 -78 -51c-29 -13 -61 -19 -94 -19zM349 54c23 0 46 12 68 36c28 30 51 72 68 125c13 39 19 75 19 108c0 42 -10 77 -31 106c-25 34 -59 51 -102 51c-23 0 -46 -6 -71 -18c-22 -11 -48 -31 -78 -61c-2 -26 -3 -52 -3 -76c0 -101 19 -177 56 -226
c23 -30 47 -45 74 -45z" />
    <glyph glyph-name="seven" unicode="7" horiz-adv-x="682" 
d="M129 -28h-5c-40 0 -61 37 -61 113c0 40 5 88 16 145c28 157 81 351 160 583c70 205 120 329 151 374l-379 -12c-9 0 -18 2 -25 6s-13 10 -18 17s-7 15 -8 24c0 9 2 18 6 25s10 13 17 18s16 7 25 7l468 15c25 0 45 -2 61 -7c15 -5 27 -14 34 -25s10 -26 10 -45
c0 -39 -23 -131 -70 -277c-36 -111 -99 -291 -188 -540c-33 -92 -65 -186 -97 -283c-28 -88 -61 -133 -97 -138z" />
    <glyph glyph-name="eight" unicode="8" horiz-adv-x="803" 
d="M318 -28c-52 0 -103 10 -151 30c-68 28 -120 69 -156 124c-27 40 -41 86 -41 137c0 18 3 41 9 68c5 28 20 62 45 101s59 80 103 121s99 83 166 125c-47 32 -85 67 -115 104c-57 71 -85 144 -85 219v36c1 21 8 48 23 81c14 33 35 62 62 87s59 44 98 59s82 22 131 22
c46 0 74 -4 86 -13c11 -8 17 -20 17 -34c0 -8 -2 -15 -6 -21c66 -27 117 -72 151 -137c30 -58 46 -121 46 -187c0 -76 -17 -137 -51 -185c-25 -36 -58 -66 -99 -92c103 -90 154 -186 154 -286c0 -7 -1 -21 -2 -41s-8 -45 -20 -75c-13 -30 -29 -58 -49 -84
c-41 -52 -93 -94 -155 -124c-49 -24 -102 -35 -161 -35zM377 739c15 13 28 27 40 42c19 24 35 59 49 105c13 46 20 88 20 125v24c0 13 -3 28 -10 46c-14 37 -36 60 -67 67c-31 10 -47 25 -47 45c-85 -11 -127 -66 -127 -164c0 -61 17 -121 50 -182c26 -48 57 -84 92 -108z
M340 96c49 0 94 15 136 46c38 26 68 61 90 104c16 33 24 66 24 99c0 16 -3 35 -8 58c-5 22 -18 47 -38 76s-48 57 -84 86c-95 -49 -165 -107 -210 -172c-37 -54 -56 -106 -56 -156c0 -29 8 -55 23 -80c25 -41 66 -61 123 -61z" />
    <glyph glyph-name="nine" unicode="9" horiz-adv-x="797" 
d="M618 -15l-20 1c-27 2 -52 15 -75 41c-53 71 -80 186 -80 348c0 51 5 152 14 304c-40 -84 -96 -126 -168 -127c-30 0 -63 8 -100 22c-71 27 -125 76 -162 147c-29 54 -43 114 -43 180c0 13 1 33 4 60c3 26 12 57 27 94s36 71 63 102s60 57 99 80s84 39 136 49
c12 2 24 3 35 3c17 0 35 -3 55 -9c19 -7 38 -20 55 -39s31 -43 40 -70c14 51 39 89 75 112c17 11 34 16 53 16c14 0 27 -5 40 -15c12 -10 22 -26 30 -48s12 -51 13 -87c0 -30 -9 -137 -26 -321c-31 -346 -47 -565 -47 -658c0 -54 2 -90 6 -109c6 -27 14 -45 23 -53l1 -4
c0 -2 -1 -4 -5 -7c-10 -8 -24 -12 -43 -12zM284 661c28 0 55 19 80 58c31 48 64 152 101 312c-15 4 -23 15 -23 32c0 67 -13 101 -40 101c-11 0 -24 -5 -38 -16c-30 -23 -59 -60 -89 -112c-53 -90 -79 -174 -79 -251c0 -48 15 -84 45 -108c14 -11 28 -16 43 -16z" />
    <glyph glyph-name="colon" unicode=":" horiz-adv-x="336" 
d="M109 -23c-12 0 -26 3 -40 8c-34 11 -59 33 -75 64c-9 20 -14 38 -14 55c0 26 10 47 30 64c21 16 46 24 76 24c35 0 64 -13 85 -38c16 -19 24 -47 24 -83c0 -35 -10 -61 -31 -77c-15 -11 -33 -17 -55 -17zM168 303h-10c-13 0 -26 2 -41 7c-35 13 -61 34 -76 65
c-9 20 -14 37 -14 54c0 27 10 49 31 65s46 24 75 24c36 0 65 -13 86 -38c16 -19 24 -46 24 -83c0 -14 -3 -28 -7 -42c-5 -15 -13 -27 -25 -36c-13 -9 -27 -15 -43 -16z" />
    <glyph glyph-name="semicolon" unicode=";" horiz-adv-x="332" 
d="M161 303h-10c-13 0 -26 2 -41 7c-35 13 -61 34 -76 65c-9 20 -14 37 -14 54c0 27 10 49 31 65s46 24 75 24c36 0 65 -13 86 -38c16 -19 24 -46 24 -83c0 -14 -3 -28 -7 -42c-5 -15 -13 -27 -25 -36c-13 -9 -27 -15 -43 -16zM21 -121c-4 0 -9 1 -18 2c-8 1 -17 8 -27 20
c-1 2 -2 3 -2 4c0 2 3 6 10 11c24 17 43 42 57 74c-45 24 -67 59 -67 108c0 18 4 34 12 50c14 27 35 47 65 58c13 5 28 8 45 8c32 0 57 -15 75 -46c11 -20 16 -44 16 -72c0 -26 -9 -57 -27 -93c-19 -36 -41 -66 -67 -89c-27 -23 -51 -35 -72 -35z" />
    <glyph glyph-name="semicolon" unicode="&#x37e;" horiz-adv-x="332" 
d="M161 303h-10c-13 0 -26 2 -41 7c-35 13 -61 34 -76 65c-9 20 -14 37 -14 54c0 27 10 49 31 65s46 24 75 24c36 0 65 -13 86 -38c16 -19 24 -46 24 -83c0 -14 -3 -28 -7 -42c-5 -15 -13 -27 -25 -36c-13 -9 -27 -15 -43 -16zM21 -121c-4 0 -9 1 -18 2c-8 1 -17 8 -27 20
c-1 2 -2 3 -2 4c0 2 3 6 10 11c24 17 43 42 57 74c-45 24 -67 59 -67 108c0 18 4 34 12 50c14 27 35 47 65 58c13 5 28 8 45 8c32 0 57 -15 75 -46c11 -20 16 -44 16 -72c0 -26 -9 -57 -27 -93c-19 -36 -41 -66 -67 -89c-27 -23 -51 -35 -72 -35z" />
    <glyph glyph-name="less" unicode="&#x3c;" horiz-adv-x="381" 
d="M235 240c-6 0 -24 10 -56 30c-126 77 -195 125 -206 145c-9 19 -13 50 -13 94c2 13 55 46 158 99c86 45 131 73 137 83s10 15 13 15c1 0 3 -2 4 -4c3 -7 5 -11 5 -15c1 -3 2 -5 2 -7s1 -3 1 -4v-8c0 -21 -23 -58 -70 -110c-26 -29 -55 -53 -86 -74
c-17 -11 -36 -23 -56 -35l179 -125c20 -7 30 -21 30 -41c-3 -27 -17 -41 -42 -43z" />
    <glyph glyph-name="equal" unicode="=" horiz-adv-x="405" 
d="M268 260l-237 4c-9 0 -17 3 -24 7s-13 10 -17 18c-4 7 -6 15 -6 24c0 13 5 24 14 33s20 13 33 14l239 -4c18 -1 32 -9 41 -24c4 -8 6 -16 6 -25c-1 -8 -3 -16 -7 -24c-5 -7 -10 -12 -18 -16c-7 -5 -15 -7 -24 -7zM268 99l-237 4c-9 0 -17 2 -24 7c-7 4 -13 10 -17 17
s-6 15 -6 24c0 14 5 25 14 33c9 9 20 14 33 14l239 -4c18 0 32 -8 41 -24c4 -7 6 -15 6 -24c-1 -9 -3 -17 -7 -24c-5 -7 -10 -13 -18 -17c-7 -4 -15 -6 -24 -6z" />
    <glyph glyph-name="greater" unicode="&#x3e;" horiz-adv-x="381" 
d="M-28 240c-1 0 -3 2 -4 4c-3 7 -5 12 -5 15l-1 2c0 4 -1 8 -2 12c0 17 12 42 36 75c19 26 42 50 67 74c25 22 58 45 99 69c4 2 7 4 10 6l-178 126c-21 6 -31 19 -31 40c0 15 5 26 17 35c7 5 16 8 25 8c6 0 24 -10 56 -30c128 -78 196 -126 206 -145c9 -19 13 -46 14 -79
l-1 -15c0 -9 -34 -32 -101 -68c-36 -19 -75 -41 -119 -64c-44 -24 -69 -41 -75 -50c-6 -10 -10 -15 -13 -15z" />
    <glyph glyph-name="question" unicode="?" horiz-adv-x="610" 
d="M152 256h-12c-21 0 -41 9 -61 28c-25 23 -38 63 -38 122c0 48 11 107 34 177c11 35 36 97 74 186c42 93 70 167 85 221c12 44 19 87 19 129c0 67 -14 101 -42 101c-22 0 -48 -22 -76 -66c-25 -37 -43 -80 -53 -128c-2 -8 -6 -14 -12 -19c-9 -8 -21 -12 -34 -12
c-16 0 -29 4 -40 13c-12 9 -18 20 -18 33l1 7c27 111 80 190 161 238c48 28 96 42 146 42c95 0 163 -36 204 -108c17 -32 26 -75 26 -128c0 -86 -23 -174 -68 -263c-25 -49 -62 -109 -110 -179c-22 -33 -43 -65 -63 -98c-48 -78 -80 -147 -95 -209c-5 -20 -8 -37 -8 -53
c0 -5 2 -13 5 -25c0 -6 -9 -9 -25 -9zM155 -23c-12 0 -26 3 -40 8c-34 11 -59 33 -75 64c-9 20 -14 38 -14 55c0 26 10 48 31 64s46 24 75 24c35 0 64 -13 85 -38c16 -19 24 -47 24 -83c0 -35 -10 -61 -31 -77c-15 -11 -33 -17 -55 -17z" />
    <glyph glyph-name="at" unicode="@" horiz-adv-x="1324" 
d="M396 -30c-89 0 -168 35 -237 106c-63 65 -110 148 -140 249c-26 84 -39 175 -39 274c0 173 43 318 130 437c61 86 142 153 241 201c93 44 192 66 295 66c147 0 274 -41 382 -123c135 -107 203 -259 203 -456c0 -118 -21 -230 -64 -338c-35 -88 -75 -156 -121 -203
c-43 -45 -85 -68 -125 -68c-7 0 -18 1 -33 4c-15 2 -34 14 -56 36c-23 22 -44 54 -63 97c-27 64 -43 139 -49 223c-57 -192 -134 -288 -230 -288c-6 0 -17 1 -32 3c-16 2 -39 12 -69 29c-42 24 -76 69 -100 135c-21 56 -31 116 -31 179c0 47 6 93 19 139
c22 77 59 138 112 183c60 51 137 77 230 77c55 0 101 -9 140 -27l7 33c5 16 21 31 47 44c20 9 39 14 58 14c47 0 71 -23 71 -68c0 -7 -1 -15 -2 -24l-3 -15c-35 -185 -52 -346 -52 -483c0 -126 17 -189 51 -189c10 0 21 6 33 18c25 25 51 69 77 130c46 109 69 224 70 345
c0 90 -15 164 -45 222c-41 76 -101 128 -179 157c-43 16 -90 24 -141 24c-130 0 -248 -48 -356 -144c-80 -72 -138 -163 -175 -272c-27 -80 -41 -167 -41 -260c0 -145 35 -249 106 -314c43 -39 92 -59 146 -59c33 0 65 8 96 23c53 25 92 69 116 130c5 14 14 21 28 21
c4 0 8 -1 13 -3c13 -8 20 -19 20 -35c0 -5 -1 -10 -3 -15c-29 -74 -75 -131 -139 -169c-52 -31 -108 -46 -166 -46zM536 315c32 0 68 55 109 167c28 78 62 200 100 366c-24 13 -49 19 -74 19c-58 0 -105 -27 -143 -82c-47 -69 -70 -157 -70 -265c0 -58 9 -109 27 -153
c16 -35 33 -52 51 -52z" />
    <glyph glyph-name="A" unicode="A" 
d="M84 -43c-8 0 -15 2 -21 5c-14 6 -21 17 -22 32c-1 14 -2 31 -2 49c0 91 5 183 14 277c-9 -7 -18 -14 -26 -21c-9 -8 -18 -11 -29 -11c-10 0 -19 3 -27 11c-9 8 -13 17 -13 27s4 19 12 27c27 25 58 45 93 62c21 165 51 311 91 438c67 211 155 347 265 408
c27 13 52 20 75 20c38 0 77 -16 115 -48c86 -70 136 -213 151 -427c4 -72 7 -165 9 -281c0 -165 7 -290 22 -375c13 -75 35 -130 66 -166c2 -2 2 -4 2 -6c0 -11 -14 -16 -43 -16c-36 0 -72 11 -106 33c-77 47 -129 172 -156 373c-80 16 -156 23 -229 23
c-55 0 -106 -6 -154 -18c-10 -61 -18 -117 -25 -168c-15 -106 -22 -176 -22 -209c0 -7 -2 -13 -5 -19c-3 -5 -8 -10 -14 -13c-6 -4 -13 -6 -21 -7zM545 445c-8 73 -14 160 -19 259l-8 121c-6 90 -14 159 -24 209c-9 45 -22 67 -40 67c-76 0 -147 -129 -213 -388
c-24 -94 -43 -181 -56 -260c45 8 92 12 139 12c16 0 35 0 58 -1s50 -3 79 -6c29 -4 57 -8 84 -13z" />
    <glyph glyph-name="B" unicode="B" horiz-adv-x="870" 
d="M179 -37c-13 0 -24 1 -35 4c-28 8 -51 31 -70 69c-46 90 -76 251 -88 481c-4 66 -5 132 -5 198c0 135 6 252 19 351c10 76 22 126 36 152c12 21 32 38 59 50c21 8 43 13 67 13c38 0 66 -12 84 -35c10 -14 15 -31 15 -51c0 -10 -3 -27 -8 -50c34 44 72 78 113 101
c41 24 89 36 144 36c36 0 69 -6 98 -18c57 -24 97 -65 121 -125c11 -29 17 -62 17 -99c0 -70 -24 -140 -72 -211c-49 -71 -113 -144 -192 -219c47 15 90 22 126 22c59 0 103 -17 133 -52c24 -29 36 -66 36 -110c0 -69 -26 -140 -78 -213c-46 -65 -108 -123 -186 -172
c-84 -53 -182 -92 -297 -115c-10 -5 -22 -7 -37 -7zM223 531c46 40 93 90 143 151c109 132 163 244 163 336c0 6 -1 16 -2 29c-2 13 -8 25 -18 35c-11 10 -24 15 -39 15c-34 0 -73 -17 -117 -51s-84 -80 -121 -138c-5 -117 -8 -242 -9 -377zM235 60c37 10 77 31 121 63
c40 28 79 63 118 105c71 76 106 138 106 186c0 8 -2 17 -5 27c-3 9 -12 17 -25 24s-32 10 -56 11c-59 0 -146 -22 -260 -66l-11 -7c0 -161 4 -275 12 -343z" />
    <glyph glyph-name="C" unicode="C" horiz-adv-x="877" 
d="M412 -38c-55 0 -113 17 -174 51c-105 58 -179 158 -220 299c-22 73 -32 154 -32 243c0 56 5 114 16 174c16 96 45 185 85 266c43 87 98 157 165 210c69 55 140 83 212 83c56 0 104 -19 145 -57c42 -38 70 -96 86 -175c4 -26 7 -56 7 -91c0 -17 -1 -39 -4 -64
c-6 -70 -15 -112 -26 -124c-10 -10 -22 -14 -37 -14c-14 0 -27 4 -39 12c-13 9 -19 20 -19 34l1 10c5 24 8 48 9 72c0 24 -2 47 -7 69c-11 47 -29 80 -55 101c-16 13 -35 20 -56 20c-14 0 -29 -4 -46 -12c-42 -20 -81 -62 -116 -128c-36 -65 -63 -143 -80 -233
c-12 -64 -19 -127 -19 -190c0 -76 9 -145 28 -206c23 -79 56 -135 99 -166c27 -21 57 -31 89 -31c47 0 96 20 146 61c39 31 73 67 102 108c29 42 50 81 64 119c5 16 18 24 37 24c11 0 19 -3 26 -10c6 -7 10 -15 10 -24c0 -12 -13 -48 -39 -107c-29 -67 -63 -126 -103 -177
c-75 -97 -160 -146 -255 -147z" />
    <glyph glyph-name="D" unicode="D" horiz-adv-x="910" 
d="M152 -48c-13 0 -26 2 -38 6c-24 8 -45 34 -60 77c-41 111 -62 290 -62 537c0 169 9 315 27 440c11 83 26 139 43 170c12 20 32 35 61 47c23 9 45 14 67 14c38 0 65 -12 82 -35c9 -12 13 -27 13 -45c0 -13 -2 -28 -7 -45c-3 -11 -7 -26 -10 -45c90 135 196 203 319 204
c85 0 150 -34 197 -103c35 -54 54 -123 55 -208c0 -40 -4 -82 -11 -125c-16 -87 -44 -176 -86 -268c-41 -92 -90 -177 -147 -257c-56 -80 -118 -149 -184 -206s-130 -94 -194 -111c-1 -12 -5 -21 -12 -28c-13 -13 -31 -19 -53 -19zM210 103c68 50 138 133 211 250
c45 72 85 148 120 227c61 138 91 254 91 347c0 25 -2 48 -7 70c-5 23 -14 43 -27 60c-14 17 -32 30 -55 38c-7 2 -14 3 -21 3c-29 0 -62 -16 -99 -47c-68 -58 -129 -135 -183 -233c-20 -248 -30 -472 -30 -672v-43z" />
    <glyph glyph-name="E" unicode="E" horiz-adv-x="758" 
d="M347 -37h-17c-133 0 -216 33 -249 98c-43 89 -71 229 -85 421c-7 82 -10 162 -10 240c0 88 4 171 12 250c10 95 24 161 43 198c40 71 158 107 354 107c80 -1 155 -6 223 -14c52 -7 81 -12 88 -16c11 -8 16 -17 16 -28c0 -8 -2 -15 -7 -21c-9 -11 -22 -16 -37 -16
c-25 2 -49 4 -72 7c-80 6 -133 9 -160 9c-32 0 -62 -3 -87 -10c-42 -12 -72 -37 -90 -74c-25 -51 -44 -237 -56 -557l329 17c15 0 27 -5 35 -16c4 -5 6 -13 6 -21c0 -6 -1 -11 -4 -16s-8 -9 -14 -12s-13 -5 -20 -6l-334 -17c-2 -59 -3 -110 -3 -155l2 -226
c0 -43 50 -64 149 -64c72 0 165 11 279 34l11 1c10 0 19 -3 27 -10c7 -7 11 -15 11 -24c0 -18 -10 -30 -31 -35c-20 -5 -40 -9 -60 -13c-86 -19 -168 -29 -249 -31z" />
    <glyph glyph-name="F" unicode="F" horiz-adv-x="688" 
d="M225 -38c-68 0 -115 80 -142 239c-16 91 -28 227 -37 407l-46 -2c-19 0 -34 7 -44 22c-5 8 -8 17 -8 28c0 7 2 14 5 20c4 7 10 12 17 17s16 7 25 7l47 2c-1 36 -2 69 -2 100c0 125 13 252 39 381l-82 -1c-8 0 -15 2 -22 5c-7 4 -13 10 -18 17s-7 15 -8 24c0 9 2 17 6 24
c9 14 23 23 42 24l712 18c18 0 33 -8 43 -23c4 -8 7 -17 7 -26c0 -8 -2 -16 -6 -22c-4 -7 -10 -12 -17 -16c-7 -5 -16 -7 -25 -8l-392 -10l-3 -15c-6 -23 -11 -55 -16 -94c-5 -40 -10 -90 -15 -151s-8 -134 -11 -220l259 9c17 0 30 -7 40 -21c5 -9 8 -18 8 -28
c0 -7 -2 -14 -6 -21c-9 -15 -22 -23 -41 -24l-263 -9c-5 -151 -7 -275 -7 -371c0 -100 3 -168 9 -203l2 -21c0 -39 -17 -58 -50 -58z" />
    <glyph glyph-name="G" unicode="G" horiz-adv-x="853" 
d="M433 -38c-119 0 -219 56 -300 169c-52 71 -91 155 -115 250c-22 83 -33 168 -33 255c0 179 46 330 137 453c59 80 135 138 229 174c43 17 89 25 137 25c65 0 123 -20 174 -61c80 -65 121 -172 121 -320c-3 -108 -10 -170 -22 -184c-10 -11 -22 -17 -37 -17
c-14 0 -28 5 -39 14c-15 11 -22 24 -22 39l1 10c6 35 9 68 9 97c0 80 -20 141 -60 183c-28 28 -61 43 -99 43c-36 0 -72 -11 -106 -33c-48 -32 -88 -81 -119 -149c-43 -96 -65 -215 -65 -358c0 -121 16 -226 49 -315c24 -69 54 -116 90 -143c18 -15 37 -22 56 -22
c32 0 64 17 97 51c56 58 106 152 152 282l-284 -10c-6 0 -11 1 -16 4s-10 7 -13 12c-4 5 -6 11 -6 18s2 14 6 20c7 13 18 20 33 21l333 28c13 0 23 -6 31 -19c5 -9 8 -18 8 -28c0 -11 -10 -47 -29 -108c-22 -71 -46 -132 -70 -183c-63 -130 -139 -196 -228 -198z" />
    <glyph glyph-name="H" unicode="H" horiz-adv-x="1071" 
d="M1050 -38c-11 0 -18 1 -23 2c-13 0 -33 5 -59 15c-42 16 -80 41 -115 74c-75 72 -119 205 -133 400l-62 1c-49 -1 -109 -9 -179 -24c-17 -112 -43 -205 -78 -278c-31 -64 -72 -113 -123 -146c-44 -29 -88 -43 -133 -43h-25c-13 1 -30 6 -49 15c-20 9 -37 23 -50 40
c-25 30 -37 67 -37 113c0 67 25 128 76 183c50 54 124 100 220 137c3 68 5 137 5 207c0 167 -7 339 -20 516l-1 23c0 30 6 54 20 71c13 18 30 26 53 26c32 0 63 -10 92 -31c28 -21 45 -44 51 -69c16 -114 24 -243 24 -388c0 -111 -5 -210 -15 -298c77 15 135 22 172 22
l54 -1c-2 35 -2 69 -2 104c0 180 16 338 48 475c18 79 37 126 58 142c17 13 42 23 75 32c18 4 35 6 53 6c52 0 79 -17 79 -52c0 -10 -2 -22 -7 -36c-14 -36 -28 -112 -42 -229c-25 -201 -37 -392 -37 -572c0 -44 1 -86 3 -127c3 -63 15 -121 34 -173c20 -52 48 -82 83 -91
c18 -3 28 -11 28 -24c0 -11 -9 -18 -25 -20c-7 -1 -12 -1 -13 -2zM128 31c41 0 77 38 106 115c19 50 32 124 40 222c-35 -15 -66 -32 -91 -49c-80 -57 -121 -120 -121 -190c0 -35 8 -61 24 -78c12 -14 26 -20 42 -20z" />
    <glyph glyph-name="I" unicode="I" horiz-adv-x="438" 
d="M367 -38h-432c-7 0 -13 2 -18 5s-9 8 -12 13s-5 10 -5 17c0 6 2 12 5 17s7 9 12 12s11 5 18 5h147c-14 45 -24 125 -31 240c-6 101 -9 207 -9 318v84c0 41 1 92 3 153s5 118 9 170c3 52 8 97 14 134c5 37 12 65 19 82h-111c-7 0 -14 2 -20 5s-11 8 -14 14s-5 12 -5 19
s2 13 5 19s8 11 14 14s13 5 20 5h398c7 0 14 -2 20 -5s11 -8 15 -14c3 -6 5 -12 5 -19s-2 -13 -5 -19c-4 -6 -9 -11 -15 -14s-13 -5 -20 -5h-44c1 -6 1 -12 1 -19c0 -10 -2 -25 -7 -45c-30 -99 -53 -277 -67 -533c-5 -100 -8 -187 -8 -261c0 -122 5 -213 15 -273
c2 -12 4 -22 4 -32c0 -6 -1 -12 -2 -18h101c7 0 13 -2 18 -5s9 -7 12 -12s5 -11 5 -17c0 -7 -2 -12 -5 -17s-7 -10 -12 -13s-11 -5 -18 -5z" />
    <glyph glyph-name="J" unicode="J" horiz-adv-x="801" 
d="M290 -37h-15c-66 5 -124 28 -172 68c-46 38 -79 85 -99 141c-11 29 -16 60 -16 93c0 104 65 181 196 230c71 27 161 44 269 52c12 112 18 213 18 304c0 16 -1 36 -1 60c-1 24 -2 51 -5 82s-8 60 -13 87c-6 27 -13 52 -22 74c-9 21 -20 39 -33 53l-245 -2
c-7 0 -13 2 -19 5s-11 7 -14 12c-4 5 -6 11 -7 18c0 7 1 13 4 18c6 12 16 18 31 18l338 3c78 0 133 -17 165 -52c43 -48 64 -153 64 -316c0 -46 -2 -101 -8 -163c-18 -210 -62 -389 -129 -536c-77 -166 -173 -249 -287 -249zM221 82c22 0 44 6 63 20c76 52 129 176 160 372
c-91 -8 -166 -23 -223 -47c-101 -41 -151 -98 -151 -171c0 -22 4 -43 12 -64c14 -35 35 -63 63 -83c26 -18 51 -27 76 -27z" />
    <glyph glyph-name="K" unicode="K" horiz-adv-x="847" 
d="M187 -38c-29 0 -62 12 -98 36c-23 14 -38 27 -44 40c-23 51 -40 184 -50 399c-5 98 -7 195 -7 292v119c1 118 7 214 18 288c6 49 25 87 57 113c26 22 55 33 88 33c35 0 64 -12 85 -35c13 -16 20 -35 20 -59c0 -11 -2 -23 -6 -35c-35 -134 -53 -360 -53 -678
c0 -119 5 -223 14 -310c42 139 98 289 169 449c53 123 115 240 185 352c77 125 159 229 244 310c8 8 18 12 30 12c9 0 18 -3 27 -9s13 -14 13 -23c0 -8 -3 -16 -10 -23c-135 -131 -263 -321 -383 -571c106 -423 221 -635 345 -635h7h17c5 -1 9 -2 13 -5c3 -3 6 -9 8 -16
c3 -4 5 -8 5 -11s-2 -7 -5 -11c-3 -5 -10 -9 -22 -13s-27 -6 -46 -6c-43 0 -88 10 -135 31c-132 58 -238 176 -317 355c-24 -67 -44 -126 -60 -177c-33 -102 -49 -157 -49 -167c-9 -30 -28 -45 -60 -45z" />
    <glyph glyph-name="L" unicode="L" horiz-adv-x="717" 
d="M179 -41c-51 0 -93 42 -125 125c-23 58 -39 133 -49 225c-6 53 -9 108 -9 165c0 205 25 382 76 531c28 84 63 150 105 198c45 51 95 76 150 76c116 -2 174 -74 174 -215c0 -81 -21 -176 -62 -285c-27 -68 -58 -132 -94 -191s-72 -104 -107 -134
c-10 -153 -15 -265 -15 -335c0 -39 1 -68 4 -87l433 36c13 0 24 -5 32 -14c5 -6 7 -13 7 -20c0 -5 -1 -10 -4 -15s-7 -9 -12 -12s-12 -5 -19 -6l-458 -38c-9 -3 -19 -4 -27 -4zM247 568c27 39 49 79 68 120c35 78 59 155 70 231c6 41 9 79 9 113c0 24 -1 46 -4 67
s-8 37 -14 50c-6 12 -13 18 -21 18c-27 0 -48 -60 -65 -179c-16 -109 -30 -249 -43 -420z" />
    <glyph glyph-name="M" unicode="M" horiz-adv-x="1276" 
d="M1068 -42c-44 0 -71 16 -83 47c-23 60 -34 290 -34 689c2 123 6 230 13 321c-43 -64 -83 -172 -120 -325c-36 -152 -65 -314 -88 -485c-3 -19 -20 -28 -49 -28c-86 0 -154 60 -201 179c-48 120 -72 273 -72 458c0 57 1 104 4 140c-30 -56 -59 -141 -87 -256
c-41 -166 -76 -363 -106 -593c-10 -67 -15 -106 -15 -117c-2 -17 -18 -25 -48 -25c-14 0 -26 2 -38 5c-20 4 -34 10 -42 16c-27 21 -50 69 -69 143c-29 112 -43 269 -43 471c0 191 11 350 32 478c13 77 27 129 41 154c7 13 18 25 32 34c29 19 62 29 98 29
c33 0 58 -10 77 -30c11 -13 17 -31 17 -54c0 -13 -3 -27 -8 -44c-12 -42 -24 -136 -35 -280c-11 -128 -20 -274 -26 -439c65 349 140 569 224 659c21 23 51 43 90 60c23 9 45 14 66 14c5 0 13 -1 22 -2c37 -3 55 -31 55 -84c-9 -87 -13 -198 -13 -334
c0 -171 11 -304 33 -399c40 205 76 353 106 444c54 171 120 288 199 350c39 31 80 46 123 46c42 0 73 -11 92 -34c9 -12 13 -27 13 -44c0 -11 -2 -24 -7 -37c-26 -87 -47 -258 -61 -513c-7 -119 -10 -234 -10 -346c0 -64 2 -124 6 -180c0 -26 -8 -47 -24 -62
c-17 -16 -38 -25 -64 -26z" />
    <glyph glyph-name="N" unicode="N" horiz-adv-x="968" 
d="M777 -36c-116 0 -174 167 -174 502c0 112 8 249 25 412c2 27 12 102 28 226c-79 -50 -149 -148 -211 -292c-60 -139 -110 -317 -149 -535c-13 -71 -23 -138 -30 -202c-6 -48 -9 -75 -9 -81c-1 -17 -18 -25 -50 -25c-16 0 -32 2 -49 6c-24 5 -41 10 -50 17
c-29 21 -53 68 -71 140c-30 119 -45 283 -45 493v74c1 33 2 74 5 122c3 47 6 93 10 136s9 82 15 117c5 35 11 66 18 92s14 46 21 59s18 24 32 33c13 9 29 16 46 21s33 7 50 7c34 0 60 -10 78 -29c13 -13 19 -30 19 -51c0 -13 -2 -27 -7 -44c-12 -44 -22 -146 -31 -308
c-9 -161 -14 -316 -15 -465c99 461 243 743 431 845c46 25 93 38 139 38c59 0 88 -31 88 -93c0 -10 0 -21 -2 -32c-40 -327 -60 -606 -60 -837c0 -123 8 -213 23 -271c1 -4 2 -9 2 -13c0 -9 -3 -18 -10 -28c-6 -10 -14 -18 -23 -25c-9 -6 -24 -9 -44 -9z" />
    <glyph glyph-name="O" unicode="O" horiz-adv-x="855" 
d="M386 -39c-30 0 -61 6 -93 18c-141 52 -233 172 -277 361c-17 71 -25 147 -25 226c0 143 23 274 70 392c27 69 60 121 99 156c29 27 61 40 97 40c26 0 56 -8 88 -26c46 107 103 161 170 161c18 0 38 -6 58 -17c49 -28 89 -77 122 -147c49 -106 73 -246 73 -419
c0 -92 -10 -187 -30 -286s-51 -187 -92 -264s-90 -132 -148 -165c-35 -20 -72 -29 -112 -30zM430 65c28 0 55 15 80 46c33 40 60 99 83 177c41 176 62 351 62 526c0 63 -5 119 -14 168c-18 94 -53 141 -105 141c-28 0 -53 -21 -74 -63c-21 -41 -37 -94 -48 -159
c-11 -56 -16 -115 -16 -175c0 -125 15 -213 45 -264c18 -33 41 -49 69 -49c5 0 10 0 14 1c3 1 7 1 10 1c11 0 20 -4 29 -13c7 -7 10 -15 10 -25c0 -11 -5 -20 -15 -29c-8 -7 -20 -10 -37 -10c-52 0 -95 16 -131 48c-73 63 -112 177 -118 343c0 43 1 79 3 108
c-38 -96 -57 -208 -57 -335c0 -78 9 -148 27 -212c21 -76 53 -136 96 -180c29 -30 58 -45 87 -45z" />
    <glyph glyph-name="P" unicode="P" horiz-adv-x="853" 
d="M163 -37c-49 0 -89 60 -119 181c-19 74 -33 169 -43 285c-9 101 -13 199 -13 296c0 131 5 239 14 323c10 89 23 148 39 176c7 13 18 24 31 33c29 20 60 30 95 30c34 -1 59 -11 75 -30c11 -14 17 -31 17 -52c0 -13 -3 -29 -8 -46c-16 -56 -32 -219 -49 -491
c36 152 80 276 132 372c86 157 190 236 311 236c40 0 75 -6 105 -18c91 -37 137 -119 137 -245c0 -86 -22 -180 -66 -281c-33 -76 -74 -144 -123 -203c-105 -127 -215 -190 -332 -190c-11 0 -27 1 -49 4c-23 3 -51 12 -86 29c-21 -130 -32 -251 -32 -362
c0 -11 -2 -21 -6 -28c-6 -13 -16 -19 -30 -19zM360 417c43 0 85 15 126 44c46 34 88 82 125 144c33 56 60 119 80 190c17 59 25 114 25 164c0 34 -4 64 -13 89c-16 43 -44 65 -85 66c-77 0 -146 -53 -207 -159c-69 -121 -124 -288 -165 -501c38 -25 76 -37 114 -37z" />
    <glyph glyph-name="Q" unicode="Q" horiz-adv-x="871" 
d="M719 -37c-34 0 -63 6 -88 17c-22 9 -45 26 -69 50c-46 -43 -98 -66 -155 -67c-33 0 -64 5 -93 16c-88 33 -159 87 -212 162c-80 111 -120 251 -120 422c0 91 12 180 37 266c27 95 67 178 119 249c54 73 117 124 191 153c41 16 82 24 124 24c180 0 285 -141 313 -423
c4 -41 6 -101 6 -178c-2 -83 -13 -170 -34 -262c-23 -102 -54 -187 -93 -254c36 -87 73 -131 109 -131c5 0 15 1 29 4c3 0 5 0 8 -1c2 -1 4 -3 6 -6s3 -5 3 -8c0 -5 -3 -10 -10 -15c-2 -2 -5 -4 -7 -5l-4 -1c-7 -7 -27 -11 -60 -12zM436 37c29 0 57 17 82 52
c-43 71 -77 163 -102 277c-13 60 -21 110 -24 149c0 7 2 14 7 23c10 18 25 34 44 48c19 13 36 20 50 20l13 -1c16 -2 27 -17 32 -46c18 -105 38 -200 61 -284c19 68 34 144 44 230c9 74 13 139 13 195c0 152 -17 263 -51 332c-22 45 -51 68 -87 68c-31 0 -66 -18 -104 -53
c-77 -69 -130 -183 -160 -341c-13 -68 -20 -137 -20 -209c0 -76 8 -147 24 -215c21 -89 55 -157 103 -207c25 -25 50 -38 75 -38z" />
    <glyph glyph-name="R" unicode="R" horiz-adv-x="885" 
d="M144 -40c-15 0 -29 3 -42 9c-21 8 -40 35 -56 83c-20 58 -34 138 -42 241c-8 85 -12 177 -12 275c0 198 9 361 27 490c12 85 26 143 42 172c12 21 32 36 60 46c20 7 39 11 56 11c22 0 42 -5 61 -15c23 -13 35 -34 38 -64c0 -19 -2 -37 -7 -54c-6 -21 -12 -57 -18 -108
c70 122 150 197 239 226c39 12 74 18 107 18c61 -1 110 -19 148 -53c41 -36 61 -84 61 -144v-27c0 -16 -5 -41 -14 -74c-26 -92 -81 -198 -164 -318c-92 -131 -196 -252 -312 -365c81 -153 163 -229 247 -229c35 0 70 15 105 46c21 21 43 48 65 79c8 11 19 16 32 16
c9 0 17 -2 25 -6c12 -8 18 -18 18 -30c0 -23 -15 -50 -45 -82c-18 -20 -35 -38 -53 -52c-65 -59 -131 -88 -198 -88c-77 0 -153 39 -227 116c-31 32 -58 65 -81 99c0 -45 2 -100 7 -165c0 -18 -7 -31 -20 -40c-14 -9 -29 -13 -47 -13zM206 328c38 32 88 93 148 182
c43 63 80 125 114 186c81 148 121 258 121 330v20c-1 11 -5 22 -14 35c-9 12 -24 18 -43 18c-17 0 -35 -5 -56 -15c-21 -11 -42 -25 -65 -44s-45 -42 -68 -69s-44 -56 -63 -89c-20 -33 -37 -69 -52 -108c-11 -153 -18 -301 -22 -446z" />
    <glyph glyph-name="S" unicode="S" horiz-adv-x="699" 
d="M301 -43h-16c-50 0 -98 10 -142 31c-68 31 -115 74 -139 128c-12 25 -18 53 -18 83c0 52 21 98 64 138c46 44 112 70 197 79c14 0 25 -5 33 -16c5 -7 8 -15 8 -25c0 -5 -1 -9 -4 -14c-5 -13 -15 -20 -30 -21c-66 -8 -115 -27 -149 -57c-28 -25 -42 -53 -42 -85
c0 -41 20 -75 59 -102c35 -24 76 -36 124 -36c71 0 127 24 166 72c24 30 36 67 36 111c0 48 -18 99 -54 155c-41 62 -112 135 -212 218c-45 34 -80 66 -107 97c-58 64 -87 139 -87 222c0 61 17 118 51 172c35 53 81 96 139 127c59 31 117 47 176 47c65 0 118 -15 161 -44
c69 -49 104 -128 104 -239c0 -67 -10 -122 -31 -167c-1 -9 -4 -16 -9 -22c-10 -11 -22 -17 -38 -17c-13 0 -23 3 -31 10c-14 9 -20 22 -20 38c15 43 22 81 22 114c0 63 -24 104 -70 123c-18 7 -36 10 -55 10c-52 0 -96 -19 -133 -56c-24 -25 -35 -53 -35 -86
c0 -36 14 -72 43 -108c24 -32 55 -64 91 -97l57 -57c45 -46 81 -92 107 -138c42 -75 64 -157 64 -247c0 -51 -7 -98 -20 -139c-22 -66 -57 -116 -105 -150c-45 -32 -96 -49 -155 -52z" />
    <glyph glyph-name="T" unicode="T" horiz-adv-x="676" 
d="M395 -30l-12 1c-20 5 -35 36 -46 93c-19 87 -28 226 -28 419c0 142 2 260 8 355c9 196 20 312 33 348c-20 1 -40 2 -59 2c-52 0 -98 -5 -137 -16c-62 -18 -111 -51 -146 -100c-9 -13 -21 -19 -36 -19c-7 0 -13 2 -20 5c-12 8 -18 18 -18 31c0 9 2 16 6 22
c57 86 141 139 254 159c45 8 93 12 142 12c67 0 164 -10 292 -29c101 -15 173 -22 216 -22c56 0 89 13 100 39c9 21 22 32 40 32c11 0 21 -2 29 -7c15 -11 22 -27 22 -49c0 -17 -5 -35 -16 -54c-15 -37 -43 -61 -83 -72c-20 -5 -45 -8 -76 -8c-52 0 -134 11 -246 34l-8 1
l-7 -27c-29 -96 -50 -258 -64 -486c-7 -124 -11 -234 -11 -330c0 -81 1 -142 4 -185c0 -40 -8 -70 -25 -92c-16 -21 -36 -37 -61 -47c-17 -7 -33 -10 -47 -10z" />
    <glyph glyph-name="U" unicode="U" horiz-adv-x="883" 
d="M286 -39c-14 0 -30 6 -49 19c-91 62 -157 160 -200 294c-31 98 -47 211 -47 337c0 97 8 197 23 299c11 70 25 149 42 238c15 50 37 88 67 113c23 20 48 30 74 30c59 -4 88 -46 88 -125c0 -23 -3 -48 -10 -77c-52 -204 -79 -388 -79 -554c0 -105 15 -214 43 -329
c13 -47 27 -71 42 -71c32 0 70 93 114 281c10 43 17 73 19 89c30 144 61 276 92 394c57 217 104 341 141 374c11 13 25 19 41 19c34 0 64 -19 90 -56c13 -20 19 -42 20 -67l-1 -12c-32 -271 -48 -520 -48 -748c0 -111 3 -205 9 -282l1 -18c0 -31 -9 -59 -26 -83
c-18 -23 -40 -41 -66 -51c-20 -8 -36 -12 -51 -12c-37 0 -63 45 -78 134c-13 81 -20 196 -20 346c0 59 1 108 2 148v30c-12 -57 -24 -114 -36 -170c-50 -231 -96 -381 -135 -449c-17 -27 -37 -41 -62 -41z" />
    <glyph glyph-name="V" unicode="V" horiz-adv-x="726" 
d="M397 -38l-10 1l-2 1c-48 11 -98 70 -151 176c-75 149 -143 352 -205 609c-45 183 -67 319 -67 407c0 25 2 44 6 57c8 26 29 45 63 58c19 6 42 10 69 10c62 0 98 -42 109 -125c19 -140 50 -332 93 -578c32 -182 61 -323 86 -422c7 35 16 76 27 125c62 276 133 515 213 719
c52 132 105 237 160 317c7 13 19 20 36 20c13 0 24 -5 33 -14c5 -7 7 -13 7 -21c0 -4 -1 -9 -3 -13c-62 -114 -133 -297 -211 -549c-72 -229 -141 -479 -208 -750c-4 -18 -17 -27 -39 -27z" />
    <glyph glyph-name="W" unicode="W" horiz-adv-x="1267" 
d="M331 -119c-14 0 -28 4 -41 12c-52 34 -98 78 -137 131c-115 154 -172 369 -172 646c0 132 15 292 45 477c10 43 31 76 62 100c25 19 54 29 84 29c20 0 37 -5 54 -14c34 -21 51 -59 51 -113c0 -19 -2 -41 -7 -65c-39 -194 -58 -363 -58 -508c0 -48 2 -96 6 -143
c8 -90 28 -189 61 -296c14 -46 29 -72 45 -76c5 30 13 88 23 173c9 76 19 153 30 230c47 320 129 514 246 582c36 21 70 31 100 31c48 0 72 -25 72 -74l-1 -20c-23 -197 -34 -356 -34 -477c0 -147 13 -259 39 -335c15 -44 33 -66 54 -66c2 0 7 1 14 3c7 1 18 11 32 29
c14 17 29 43 45 77c20 43 37 91 52 143c15 51 27 105 38 162s20 114 27 171s13 113 18 167c4 54 7 105 9 152s4 88 5 125c1 36 1 65 1 86l-1 36c0 10 2 18 7 25c9 14 21 21 37 21c25 0 39 -15 41 -44c4 -87 6 -180 6 -277c0 -37 -1 -80 -2 -129c-11 -292 -46 -516 -107 -672
c-26 -69 -59 -123 -100 -162c-40 -39 -83 -58 -128 -58h-20c-13 1 -31 7 -56 20c-50 26 -98 79 -144 160c-64 113 -96 274 -96 483v27c-18 -80 -34 -181 -50 -302c-21 -158 -41 -270 -59 -335c-22 -88 -52 -132 -91 -132z" />
    <glyph glyph-name="X" unicode="X" horiz-adv-x="979" 
d="M-84 -111c-29 0 -44 19 -44 57c0 34 16 77 47 127c35 56 91 127 167 212c44 50 104 117 182 202c-123 212 -210 400 -263 566c-19 59 -28 102 -28 128c0 23 18 46 56 67c25 15 51 22 76 22c13 0 25 -3 36 -8s21 -13 29 -24s14 -26 18 -45c5 -25 18 -65 39 -120
s48 -118 81 -190c32 -73 67 -148 105 -226c120 144 210 268 270 373c51 91 88 177 109 258c4 15 24 24 59 27c18 0 32 -3 42 -10c8 -6 12 -13 13 -23l-2 -11c-39 -133 -115 -277 -227 -430c-57 -77 -131 -167 -221 -270c102 -205 182 -343 239 -416c23 -27 43 -49 60 -66
c47 -49 89 -74 126 -74c10 0 17 -2 24 -5c11 -7 17 -14 17 -23c0 -6 -4 -11 -13 -15c-1 -1 -1 -1 -2 -1c-1 -1 -3 -1 -4 -2s-3 -2 -5 -2c-1 0 -4 -1 -8 -2s-16 -2 -35 -3c-56 0 -119 18 -187 53c-111 57 -231 189 -358 397l-150 -161c-78 -85 -131 -149 -161 -190
c-35 -49 -52 -87 -52 -115c0 -4 0 -8 1 -12s2 -7 2 -10c0 -9 -4 -17 -12 -24c-7 -7 -16 -11 -26 -11z" />
    <glyph glyph-name="Y" unicode="Y" horiz-adv-x="826" 
d="M343 -37c-66 0 -126 21 -179 64c-46 35 -78 79 -96 132c-11 27 -16 54 -16 81c0 157 149 247 446 269c7 65 10 150 10 254c0 53 -1 125 -5 215c-7 -32 -10 -49 -10 -51c-20 -101 -35 -171 -46 -211c-22 -76 -49 -128 -81 -157c-26 -23 -56 -34 -89 -34
c-44 0 -89 18 -136 54c-41 30 -74 78 -99 144c-37 99 -56 225 -56 378c0 27 0 50 1 71c1 13 6 25 14 36c16 24 38 42 68 54c20 9 40 13 61 13c56 0 84 -30 84 -89l-1 -21c-7 -57 -10 -116 -10 -176c0 -150 19 -266 57 -346c13 -28 26 -42 37 -42c9 0 19 8 28 24
c16 30 30 67 42 109c13 50 28 118 44 203c19 100 35 172 48 217c17 57 34 93 54 108c16 13 37 20 61 20c47 0 86 -18 118 -53c39 -45 59 -147 59 -305c0 -152 -14 -299 -43 -442c-45 -217 -113 -368 -206 -453c-48 -44 -101 -66 -159 -66zM276 74c21 0 41 6 60 19
c74 48 125 164 153 348c-163 -15 -273 -54 -328 -119c-20 -25 -30 -53 -30 -85c0 -20 4 -40 12 -59c13 -33 33 -59 60 -78c23 -17 48 -26 73 -26z" />
    <glyph glyph-name="Z" unicode="Z" horiz-adv-x="826" 
d="M380 -37c-173 0 -291 25 -355 75c-31 24 -47 56 -47 98c0 80 38 199 113 357c42 90 89 181 142 273c115 200 215 350 298 450l-390 -17c-7 0 -14 2 -20 5c-13 6 -21 17 -22 32c0 24 12 38 36 40l492 22c70 0 119 -17 147 -51c9 -12 13 -26 13 -44c0 -27 -14 -57 -43 -89
c-58 -63 -163 -205 -315 -427c-97 -139 -179 -266 -247 -379c-58 -97 -87 -153 -87 -168c0 -17 12 -32 35 -44c51 -28 143 -41 278 -41c83 0 150 3 201 10c53 6 87 12 104 20c5 2 11 3 17 3c16 0 28 -8 36 -23c3 -5 4 -13 4 -24c-4 -25 -61 -46 -169 -62
c-72 -11 -145 -16 -221 -16z" />
    <glyph glyph-name="bracketleft" unicode="[" horiz-adv-x="749" 
d="M570 463h-9c-52 0 -112 18 -182 56c-66 36 -111 79 -135 129c-13 26 -19 52 -19 79c0 39 12 72 36 100c26 31 60 47 101 48c47 0 90 -22 130 -67c27 -29 41 -62 41 -99c0 -9 -3 -16 -9 -22c-7 -7 -15 -10 -26 -10c-10 1 -19 5 -26 12s-11 16 -12 26c-1 19 -8 35 -21 48
c-27 29 -53 43 -80 43c-15 0 -27 -4 -37 -12c-9 -9 -14 -19 -14 -31c0 -24 15 -45 45 -65c46 -30 111 -46 196 -49c40 -5 70 -23 90 -52c11 -18 17 -36 17 -55c0 -49 -29 -76 -86 -79zM132 315c-51 0 -91 14 -118 41c-24 23 -36 50 -36 81c0 24 8 46 24 67
c25 32 66 49 124 50c19 0 39 -2 62 -6c58 -12 102 -30 133 -54c23 -19 34 -38 34 -60c0 -38 -31 -68 -94 -92c-49 -18 -92 -27 -129 -27zM366 -14h-5c-38 0 -70 14 -97 44c-26 29 -39 63 -39 102v25c1 13 7 31 18 54s27 46 50 68c22 22 51 43 86 62s71 34 110 45
c26 7 48 11 67 11c27 0 48 -4 63 -12c24 -15 37 -36 37 -64c0 -20 -6 -38 -16 -55c-21 -32 -51 -50 -91 -54c-87 -4 -153 -20 -196 -49c-30 -21 -45 -42 -45 -65c0 -13 4 -23 14 -31c10 -9 22 -13 37 -13c27 0 53 14 80 43c13 14 20 30 21 48c1 11 5 20 12 27s16 10 26 11
c11 0 19 -3 26 -9c6 -6 9 -14 9 -25c-3 -39 -16 -71 -41 -97c-40 -44 -82 -66 -126 -66z" />
    <glyph glyph-name="backslash" unicode="\" horiz-adv-x="689" 
d="M434 -33c-13 0 -25 7 -34 20c-8 10 -13 23 -15 39c-12 78 -89 250 -233 516l-89 164c-76 138 -136 251 -180 339c-43 85 -65 142 -65 170c0 21 6 40 18 56c19 25 47 38 84 38c45 0 82 -20 112 -60c49 -68 115 -188 201 -358c52 -105 103 -219 154 -342
c48 -118 84 -225 108 -320c13 -55 20 -102 21 -140c0 -27 -4 -49 -12 -65c-23 -38 -46 -57 -70 -57z" />
    <glyph glyph-name="bracketright" unicode="]" horiz-adv-x="754" 
d="M80 463c-26 0 -46 5 -62 16c-23 15 -34 36 -34 63c0 17 6 36 18 55c19 29 48 47 89 52c84 3 149 19 197 49c30 19 45 40 45 63c0 13 -5 24 -15 32c-9 9 -22 13 -37 13c-27 0 -53 -14 -80 -43c-12 -12 -19 -28 -20 -48c-1 -10 -5 -19 -12 -26s-16 -11 -27 -12
c-11 0 -19 3 -25 10c-7 7 -10 15 -10 25c2 36 16 68 41 96c40 45 83 67 131 67c40 -1 73 -17 99 -47c25 -29 38 -64 38 -102c0 -82 -52 -151 -157 -207c-68 -38 -128 -56 -179 -56zM510 306c-7 0 -20 1 -39 3c-19 1 -50 10 -91 25c-25 9 -45 20 -60 33c-23 18 -34 37 -34 57
c0 39 31 71 94 94c47 18 90 27 129 27c59 -1 101 -18 128 -50c17 -22 26 -45 26 -70c0 -30 -11 -56 -34 -79c-27 -27 -66 -40 -119 -40zM279 -14h-19c-11 0 -27 5 -48 16c-22 11 -43 27 -64 50c-25 28 -38 60 -41 96c0 11 3 19 10 26c6 6 14 9 25 9c11 -1 20 -4 27 -11
s11 -16 12 -27c1 -19 8 -35 20 -48c27 -29 53 -43 80 -43c15 0 27 4 37 13c10 8 15 19 15 33c0 22 -15 43 -45 63c-45 29 -110 45 -197 49c-40 4 -70 22 -90 54c-11 18 -17 36 -17 55c0 28 13 49 38 64c15 8 35 12 62 12c19 0 42 -4 67 -11c39 -11 75 -25 110 -44
c68 -38 113 -81 137 -131c12 -25 18 -50 18 -74c0 -43 -13 -78 -39 -108c-27 -29 -59 -43 -98 -43z" />
    <glyph glyph-name="asciicircum" unicode="^" horiz-adv-x="527" 
d="M1 886c-18 0 -32 8 -40 25c-5 7 -7 15 -7 24c0 11 2 19 5 26l152 292c17 39 40 58 69 58c20 0 42 -8 65 -25c21 -15 51 -52 88 -113c61 -106 91 -172 91 -200c0 -30 -12 -51 -35 -64c-11 -6 -24 -9 -39 -9c-27 0 -51 12 -74 36c-23 28 -66 85 -130 173l-102 -197
c-9 -17 -23 -26 -43 -26z" />
    <glyph glyph-name="underscore" unicode="_" horiz-adv-x="493" 
d="M351 -23l-331 4c-9 0 -17 2 -24 6c-8 5 -13 11 -17 18c-5 7 -7 15 -7 24s3 17 7 24s10 13 17 17s15 6 24 6l332 -4c8 0 16 -2 24 -6c7 -5 12 -10 17 -17c4 -8 6 -16 6 -25s-2 -17 -7 -24c-4 -7 -10 -12 -17 -17c-7 -4 -15 -6 -24 -6z" />
    <glyph glyph-name="grave" unicode="`" horiz-adv-x="390" 
d="M216 789c-30 0 -65 16 -104 47c-50 39 -87 85 -110 137c-14 30 -20 58 -20 81c0 22 9 40 27 56s39 24 63 24c29 0 53 -16 73 -47c10 -16 25 -49 47 -97c15 -37 31 -70 48 -98c17 -31 36 -48 56 -52c2 0 3 -2 3 -4c-4 -14 -17 -26 -37 -36c-13 -7 -28 -11 -46 -11z" />
    <glyph glyph-name="a" unicode="a" horiz-adv-x="827" 
d="M591 -47l-12 1c-20 6 -36 33 -50 81c-13 48 -22 109 -26 182c-68 -147 -152 -221 -252 -221c-36 0 -76 11 -118 32c-45 24 -79 64 -104 120c-23 52 -35 110 -35 174v33c0 18 4 44 12 77c25 112 82 197 171 255c63 41 144 63 241 64c71 0 131 -13 182 -38
c10 15 24 30 42 45c23 20 43 30 58 30c25 0 37 -27 38 -80c0 -13 -3 -46 -7 -99c-9 -119 -14 -215 -14 -288c0 -74 3 -146 8 -216v-8c0 -34 -8 -62 -25 -84c-16 -22 -37 -39 -62 -49c-18 -7 -33 -11 -47 -11zM297 125c35 0 72 40 114 120c33 63 72 161 116 293
c6 29 18 69 36 122l1 6c-27 13 -55 19 -84 19c-80 0 -148 -43 -203 -129c-47 -75 -71 -156 -71 -245c0 -50 9 -94 28 -132c20 -36 41 -54 63 -54z" />
    <glyph glyph-name="b" unicode="b" horiz-adv-x="816" 
d="M123 -54c-30 0 -56 17 -77 51c-39 62 -58 178 -58 347c1 58 3 116 5 174c5 152 18 283 40 393c29 153 81 253 154 298c25 15 51 23 77 23c15 0 29 -3 42 -8c12 -6 23 -14 32 -24c9 -11 17 -23 23 -36s10 -27 13 -41c2 -14 3 -29 3 -45c0 -117 -56 -283 -170 -498v-146
c64 249 172 374 322 374c44 0 83 -21 117 -61c34 -41 58 -97 72 -169c7 -38 11 -78 11 -119c0 -124 -27 -232 -83 -325c-38 -64 -80 -107 -126 -131c-32 -16 -62 -24 -91 -24c-55 0 -98 21 -128 63c-19 26 -28 53 -28 82c0 7 1 18 3 31c5 36 29 72 72 108
c29 25 63 38 102 39c7 0 13 -2 18 -5s10 -8 13 -13c3 -6 4 -13 4 -20c-1 -7 -3 -13 -7 -19c-9 -13 -20 -20 -34 -20c-36 -2 -65 -22 -86 -60c-9 -15 -13 -30 -13 -46c0 -9 1 -17 5 -26c4 -8 10 -14 17 -19c8 -4 15 -6 23 -6c13 0 26 4 39 14c26 19 47 53 63 104
c17 55 26 114 26 177c0 72 -9 138 -26 199c-11 37 -26 69 -43 94c-9 14 -19 20 -30 20c-31 0 -65 -58 -103 -176c-32 -95 -59 -206 -81 -332c-15 -107 -39 -176 -70 -207c-10 -10 -24 -15 -42 -15zM211 760c60 131 90 236 90 316c0 12 0 22 -2 32c-6 33 -17 50 -32 50
c-7 0 -13 -3 -19 -10c-15 -17 -25 -41 -30 -75c-5 -41 -8 -98 -8 -173c0 -30 0 -57 1 -81v-59z" />
    <glyph glyph-name="c" unicode="c" horiz-adv-x="674" 
d="M288 -26c-28 0 -56 3 -85 9c-76 16 -131 50 -167 104c-33 50 -50 112 -50 185c0 68 15 139 44 214c27 71 66 133 114 187c70 77 148 115 233 115c61 0 109 -21 144 -63c16 -21 25 -46 25 -76c0 -56 -22 -98 -67 -125c-5 -2 -10 -4 -14 -4c-10 0 -17 4 -21 10s-6 12 -6 17
c0 9 4 16 12 21c29 18 43 49 43 93c0 36 -14 54 -43 54c-14 0 -29 -4 -46 -13c-35 -20 -68 -52 -98 -98c-35 -51 -61 -110 -79 -176c-15 -51 -22 -101 -22 -149c0 -83 23 -146 68 -188c25 -23 53 -35 83 -35c40 0 77 20 113 59c26 29 46 64 59 106c4 19 16 28 38 28
c9 0 18 -4 25 -11c8 -7 12 -15 12 -25c-6 -34 -20 -70 -44 -107c-58 -88 -148 -132 -271 -132z" />
    <glyph glyph-name="d" unicode="d" horiz-adv-x="882" 
d="M605 -40c-38 0 -66 18 -82 54c-16 41 -27 119 -33 233c-18 -58 -36 -105 -56 -141c-44 -81 -100 -121 -167 -121c-17 0 -36 3 -58 10c-56 17 -103 49 -141 96s-66 104 -84 172c-12 47 -18 95 -19 144c0 58 9 111 28 160c24 67 65 117 121 153c53 32 116 49 190 49
c82 0 151 -15 207 -46c20 144 50 257 92 341c51 104 114 156 187 156c49 0 80 -37 93 -110c2 -17 4 -39 4 -65c0 -66 -12 -140 -36 -224c-31 -105 -73 -200 -128 -283c-7 -175 -10 -308 -10 -400c0 -51 -1 -84 -4 -100c-4 -27 -19 -48 -46 -63c-18 -10 -37 -15 -58 -15z
M733 720c19 43 34 86 46 129c21 77 31 144 31 203c0 22 -2 44 -6 66c-4 16 -8 25 -12 26c-6 0 -11 -15 -16 -45c-18 -104 -32 -230 -43 -379zM296 125c31 0 63 42 96 127c30 75 58 178 86 308c8 37 14 68 18 93c1 5 1 7 2 8c-32 19 -66 28 -100 28c-32 0 -60 -7 -84 -20
c-44 -24 -76 -64 -99 -121c-19 -47 -28 -100 -28 -157c0 -76 13 -142 40 -197c22 -46 45 -69 69 -69z" />
    <glyph glyph-name="e" unicode="e" horiz-adv-x="688" 
d="M284 -23c-5 0 -18 0 -41 1s-55 9 -98 25c-30 11 -56 27 -78 47c-65 59 -97 146 -97 262c0 65 12 130 37 197c47 130 129 223 244 279c49 23 94 35 134 35c57 0 102 -26 136 -78c13 -22 19 -46 19 -74c0 -64 -29 -131 -87 -200c-39 -46 -82 -81 -129 -107
c-37 -20 -72 -30 -105 -30c-11 0 -21 1 -31 3c-2 -17 -3 -34 -3 -51l2 -36c2 -44 14 -82 35 -113c31 -47 71 -71 121 -71c49 0 94 24 134 71c32 37 52 81 61 132c1 7 4 13 9 18c7 9 17 13 27 13s20 -3 28 -10c8 -6 12 -15 12 -27l-1 -7c-17 -89 -58 -158 -121 -208
c-61 -47 -130 -71 -208 -71zM221 408c21 0 46 8 73 24c33 18 64 46 95 81c50 58 75 111 75 158c0 14 -3 26 -9 37c-7 11 -14 19 -21 24c-8 5 -16 7 -24 7c-20 0 -42 -15 -67 -44c-40 -49 -79 -119 -116 -213c-14 -35 -22 -59 -25 -72c6 -2 12 -2 19 -2z" />
    <glyph glyph-name="f" unicode="f" horiz-adv-x="460" 
d="M172 -337c-64 0 -111 38 -141 116c-30 73 -44 227 -44 462c0 191 13 366 40 527c17 106 41 195 70 268c52 130 119 195 200 195c28 0 49 -12 65 -35c20 -31 30 -74 30 -128c0 -46 -5 -102 -16 -168c-14 -84 -32 -162 -55 -233c-28 -87 -60 -158 -95 -213
c-4 -7 -7 -22 -10 -47c27 -15 51 -35 73 -59c44 -50 76 -111 96 -182c14 -53 21 -105 21 -157c0 -58 -8 -112 -26 -161c-24 -70 -63 -121 -117 -156c-30 -20 -61 -29 -91 -29zM235 633c30 69 53 165 70 289c7 54 10 101 10 139c0 27 -2 49 -5 66c-4 17 -8 27 -12 28
c-18 0 -39 -174 -63 -522zM245 -224c4 0 8 1 13 4c15 10 27 25 37 46c9 20 16 44 21 71s7 57 7 88c0 64 -10 127 -29 188c-22 66 -49 114 -83 144c-1 -45 -2 -95 -2 -147c0 -207 5 -328 16 -364c5 -20 12 -30 20 -30z" />
    <glyph glyph-name="g" unicode="g" horiz-adv-x="860" 
d="M355 -481c-98 0 -166 40 -204 120c-14 26 -22 57 -23 91c0 94 47 160 140 197c42 17 91 25 148 25c7 0 14 -2 20 -5c5 -3 10 -8 14 -14c3 -6 5 -12 5 -19s-2 -14 -5 -19c-7 -13 -18 -20 -33 -20c-71 0 -125 -14 -162 -42c-32 -25 -48 -58 -48 -101c0 -20 5 -39 15 -57
c10 -21 23 -37 40 -48c16 -11 34 -16 54 -16c38 0 73 24 105 72c74 106 111 324 111 654c-74 -226 -172 -339 -294 -340c-9 0 -23 1 -42 4c-19 2 -45 11 -78 27c-45 24 -80 64 -105 119c-25 56 -37 117 -37 185c0 70 14 136 43 197c31 65 76 118 137 158
c63 41 143 63 240 64c69 0 129 -12 178 -36c12 17 25 32 40 45s30 24 46 32c16 7 31 11 45 12c45 0 68 -39 68 -116l-1 -32c-14 -150 -22 -354 -25 -614c-7 -239 -95 -401 -265 -486c-45 -23 -88 -36 -127 -37zM281 126c3 0 9 1 18 3c18 5 42 28 69 71c22 34 46 82 71 143
c35 86 66 181 94 286l10 37c-27 13 -55 19 -84 19c-81 0 -148 -43 -201 -129c-46 -73 -69 -155 -69 -245c0 -52 10 -95 29 -131s40 -54 63 -54z" />
    <glyph glyph-name="h" unicode="h" horiz-adv-x="733" 
d="M512 -47c-56 0 -84 78 -84 235c0 61 2 133 8 214c5 75 7 132 7 173c0 72 -9 108 -26 108c-2 0 -6 -2 -11 -5c-22 -13 -54 -89 -97 -226c-40 -129 -64 -226 -73 -289c-13 -89 -34 -149 -65 -180c-11 -11 -28 -16 -51 -16c-84 0 -126 126 -126 379c0 87 4 186 12 298
c26 392 114 588 264 588c43 0 75 -23 97 -68c11 -24 16 -52 16 -86c0 -117 -56 -283 -170 -498v-146c28 108 66 195 113 262c55 77 118 116 189 116c70 0 113 -62 128 -186c4 -36 7 -81 7 -134c0 -64 -5 -139 -13 -227c-5 -67 -7 -110 -7 -129c0 -13 0 -23 2 -31
c1 -9 2 -17 2 -25c0 -26 -6 -49 -18 -67c-15 -23 -34 -39 -58 -49c-18 -7 -33 -11 -46 -11zM217 760c60 134 90 238 90 312c0 13 -1 25 -3 36c-5 33 -15 50 -31 50c-7 0 -13 -3 -20 -10c-14 -15 -24 -40 -29 -75c-5 -41 -8 -98 -8 -173c0 -30 0 -57 1 -81v-59z" />
    <glyph glyph-name="i" unicode="i" horiz-adv-x="312" 
d="M166 876c-2 0 -7 0 -15 1s-18 6 -29 13c-12 7 -22 17 -31 28s-16 22 -21 34s-8 24 -8 36c0 21 10 38 31 54c26 19 59 28 98 28c9 -1 18 -4 26 -8c15 -8 28 -17 37 -26c13 -13 19 -29 19 -48c0 -21 -11 -45 -33 -72c-23 -27 -47 -40 -74 -40zM133 -29
c-96 0 -144 100 -144 301c0 118 16 234 48 347c21 68 47 120 79 156c19 23 38 34 55 34c11 0 20 -4 29 -11c17 -16 25 -40 25 -75v-14c-9 -100 -14 -267 -15 -500c0 -78 3 -132 11 -161l2 -11c0 -10 -4 -20 -11 -30c-8 -11 -16 -19 -24 -24c-11 -8 -29 -12 -55 -12z" />
    <glyph glyph-name="j" unicode="j" horiz-adv-x="311" 
d="M-223 920h-7c-24 0 -46 11 -66 33c-22 25 -33 47 -33 68c0 19 6 36 19 50c10 11 29 25 56 40l28 2c31 0 56 -6 76 -19c21 -13 31 -29 32 -46c0 -10 -2 -20 -5 -31s-8 -22 -14 -33c-7 -11 -14 -21 -23 -30s-19 -17 -30 -23s-22 -10 -33 -11zM-538 -531
c-54 0 -100 19 -139 57c-48 47 -72 105 -72 175c0 61 17 113 53 155c53 64 135 96 245 96c7 0 13 -2 19 -5s11 -8 14 -14s5 -12 6 -19c0 -7 -2 -14 -5 -19c-8 -13 -19 -20 -33 -20c-71 0 -126 -16 -163 -47c-38 -31 -57 -71 -57 -122c0 -32 9 -62 26 -91
c20 -33 46 -50 79 -50c31 0 61 21 90 63c52 78 84 216 95 416c5 95 8 189 8 284c0 46 0 90 -1 132c0 117 1 192 4 224c1 17 6 33 14 50c16 34 38 63 67 88c29 24 57 36 84 36c23 0 40 -11 53 -33c10 -20 15 -47 15 -82l-1 -33c-10 -151 -16 -370 -18 -657
c0 -59 -5 -115 -15 -168c-38 -193 -119 -321 -243 -384c-43 -21 -84 -32 -125 -32z" />
    <glyph glyph-name="k" unicode="k" horiz-adv-x="780" 
d="M117 -40c-21 0 -40 7 -56 20c-35 25 -57 122 -65 291c-3 42 -4 95 -4 159c0 133 10 259 29 378c34 202 92 331 175 387c26 17 53 25 83 25c48 0 79 -37 94 -110c4 -21 6 -44 6 -68c0 -65 -11 -139 -33 -221c-28 -105 -68 -199 -121 -283c-2 -68 -3 -136 -3 -204
c38 130 81 240 128 330c34 69 66 115 94 138c26 20 53 30 82 30c37 0 67 -16 91 -47c21 -25 32 -59 32 -102c0 -7 -2 -14 -5 -19c-3 -6 -8 -11 -13 -14c-6 -3 -13 -5 -20 -5s-14 2 -19 5c-13 7 -19 18 -19 33c0 24 -5 42 -15 55c-10 12 -21 18 -32 18c-19 0 -39 -15 -60 -44
c-37 -54 -73 -127 -108 -217c30 -93 64 -179 103 -257c52 -107 98 -160 139 -160l14 2c21 4 40 31 58 83c7 17 19 26 36 26c12 0 21 -4 28 -13s11 -17 11 -25c0 -4 -1 -8 -3 -13c-12 -35 -26 -63 -43 -84c-34 -43 -74 -65 -121 -66c-72 0 -140 33 -203 98
c-43 41 -78 92 -105 152c-11 -41 -28 -107 -51 -197c-5 -29 -20 -51 -45 -66c-18 -10 -38 -15 -59 -15zM231 720c48 115 72 224 72 327c0 22 -3 46 -8 71c-4 16 -8 24 -13 26c-6 0 -11 -15 -15 -45c-17 -111 -29 -237 -36 -379z" />
    <glyph glyph-name="l" unicode="l" horiz-adv-x="470" 
d="M246 -27c-31 0 -64 8 -98 25c-28 14 -52 34 -73 61c-67 87 -101 227 -101 421c0 181 29 357 86 529c31 90 65 161 105 213c39 51 78 77 119 77c37 0 64 -21 81 -63c14 -36 21 -80 21 -131c0 -47 -7 -103 -21 -167c-18 -76 -41 -148 -71 -216c-29 -68 -60 -123 -92 -166
c-2 -40 -3 -79 -3 -116c0 -175 16 -289 49 -344c14 -23 28 -34 43 -34c9 0 18 4 28 11c10 8 24 24 41 48c7 11 16 16 25 16c5 0 11 -1 17 -4c5 -3 10 -8 15 -15c4 -7 6 -14 7 -23c0 -9 -3 -17 -8 -26c-43 -64 -100 -96 -170 -96zM212 720c16 34 30 69 40 106
c11 36 20 73 26 110s11 73 13 106c3 33 4 63 4 89c-1 56 -6 84 -14 85c-3 0 -6 -5 -9 -15c-4 -14 -13 -66 -25 -156c-14 -109 -26 -217 -35 -325z" />
    <glyph glyph-name="m" unicode="m" horiz-adv-x="956" 
d="M157 -28c-75 0 -125 51 -150 154c-13 47 -19 108 -19 183c0 64 5 127 15 190s21 112 32 147c21 63 48 113 80 150c29 31 56 47 81 47s40 -16 44 -47c0 -19 -2 -38 -7 -56c-25 -130 -37 -259 -37 -388c0 -83 6 -156 18 -220c12 48 25 116 38 203c24 147 51 254 81 322
c26 60 61 101 105 124c17 11 37 16 59 16c30 0 52 -8 66 -25c5 -7 8 -16 8 -27c0 -9 -2 -18 -7 -28c-12 -26 -23 -67 -31 -122c-11 -63 -16 -133 -16 -210c0 -64 4 -139 13 -225c6 25 12 52 18 81c28 149 47 244 57 285c48 209 116 314 205 314c29 0 52 -8 68 -23
c5 -7 8 -16 8 -27c0 -9 -2 -19 -6 -29c-12 -27 -22 -79 -31 -155c-6 -51 -9 -112 -9 -183c0 -114 9 -230 28 -347c3 -17 5 -31 5 -44c0 -39 -14 -58 -41 -58c-22 0 -45 15 -70 45c-60 72 -95 201 -105 387c-31 -159 -51 -255 -61 -290c-17 -61 -37 -103 -61 -124
c-8 -13 -18 -19 -32 -19c-21 0 -43 14 -66 42c-56 67 -89 188 -100 363l-26 -154c-21 -113 -45 -185 -72 -217c-14 -23 -41 -35 -82 -35z" />
    <glyph glyph-name="n" unicode="n" horiz-adv-x="710" 
d="M571 -49c-17 0 -36 11 -55 34c-46 51 -78 140 -97 267c-9 56 -13 115 -13 175c0 25 1 51 3 78c-45 -97 -90 -210 -135 -340c-36 -103 -54 -158 -54 -165c-4 -16 -15 -25 -31 -29c-9 -6 -25 -8 -49 -8c-106 0 -158 107 -158 323c0 59 5 129 16 211c6 53 15 98 24 136
c15 63 37 112 65 147c25 30 49 45 73 45c12 0 22 -4 31 -12c12 -12 18 -32 18 -59c0 -10 -1 -21 -3 -33c-14 -124 -21 -258 -21 -404c0 -52 1 -100 4 -143c65 206 138 371 219 495c35 53 61 86 80 100c20 20 45 30 74 30c15 0 31 -4 50 -11c16 -11 24 -26 24 -44
c0 -8 -2 -17 -6 -29c-12 -28 -23 -76 -33 -143c-9 -60 -13 -127 -13 -204c0 -95 7 -200 22 -313c3 -16 5 -30 5 -43c0 -27 -7 -46 -21 -56c-6 -4 -12 -5 -19 -5z" />
    <glyph glyph-name="o" unicode="o" horiz-adv-x="659" 
d="M279 -31c-120 0 -205 58 -256 176c-23 53 -35 111 -35 172c0 71 14 136 41 192c27 57 67 100 119 130v13c0 50 14 91 43 124c28 33 66 49 112 49c43 0 84 -15 122 -46c42 -34 75 -85 101 -153c30 -83 45 -167 45 -252c0 -90 -17 -170 -52 -241
c-29 -60 -69 -104 -118 -133c-35 -21 -76 -31 -122 -31zM432 427c18 0 36 3 56 10c-7 59 -19 113 -38 164c-13 34 -26 62 -41 83s-29 37 -43 47c-15 10 -29 15 -42 15c-17 0 -31 -7 -43 -21s-20 -33 -25 -57c13 1 26 1 40 1h21c14 -2 21 -8 21 -20c0 -11 -18 -36 -54 -76
l-16 -21c6 -17 14 -32 25 -47c36 -52 82 -78 139 -78zM347 90c2 0 9 0 20 1s24 7 41 19c56 40 83 122 83 247v22c-29 -14 -58 -22 -87 -22c-68 0 -130 36 -186 106c-22 -52 -33 -102 -33 -151c0 -73 22 -133 66 -177c29 -30 61 -45 96 -45z" />
    <glyph glyph-name="p" unicode="p" horiz-adv-x="833" 
d="M143 -505h-6c-33 0 -65 23 -96 69c-20 30 -31 62 -34 96c-12 165 -18 333 -18 505v94c2 117 8 226 21 327c13 103 31 173 54 208s49 52 77 52c26 0 46 -12 61 -37s23 -55 23 -91c0 -10 -2 -36 -6 -76c-6 -78 -11 -157 -16 -235c7 33 23 75 46 128c22 50 49 97 82 140
c69 93 139 140 209 140c31 0 62 -10 92 -31c45 -30 77 -83 98 -159c12 -47 18 -98 18 -154c0 -126 -30 -238 -90 -337c-39 -63 -82 -107 -129 -131c-32 -16 -62 -24 -91 -24c-54 0 -97 21 -127 63c-17 24 -26 51 -26 80c0 8 1 19 3 32c6 35 31 71 74 109c31 25 65 38 103 39
c7 0 14 -2 19 -5s9 -8 12 -13c2 -5 3 -10 3 -16c0 -8 -2 -15 -7 -23c-9 -13 -20 -20 -34 -20c-36 -2 -65 -22 -88 -60c-9 -15 -13 -31 -13 -47c0 -8 1 -17 5 -25c3 -8 9 -14 16 -19c7 -4 15 -6 23 -6c41 0 76 39 105 118c19 57 29 123 29 197c0 82 -11 154 -34 215
c-16 43 -34 65 -55 65c-22 0 -45 -19 -68 -58c-35 -58 -70 -144 -105 -257c-39 -128 -62 -367 -69 -718c-2 -85 -22 -130 -61 -135z" />
    <glyph glyph-name="q" unicode="q" horiz-adv-x="849" 
d="M673 -580c-61 0 -106 43 -134 128c-21 63 -31 161 -31 292c0 72 5 178 15 316c4 47 8 98 11 153c-39 -136 -92 -229 -160 -278c-32 -23 -67 -34 -107 -34c-37 0 -77 10 -121 31c-23 12 -44 28 -63 49c-38 41 -66 94 -82 158c-10 40 -15 80 -15 119c0 63 10 121 32 175
c27 66 69 118 127 158c62 41 141 63 237 64c63 0 120 -10 171 -31c4 25 11 47 21 65c10 17 22 31 35 40s26 14 40 14c13 0 26 -4 39 -13c28 -20 46 -58 55 -115s13 -142 13 -254c0 -147 -4 -257 -14 -328c119 -98 179 -215 179 -349c0 -80 -21 -155 -64 -225
c-31 -51 -67 -89 -108 -112c-26 -15 -51 -23 -76 -23zM303 126c27 0 55 24 83 74c37 63 73 165 110 304c16 59 28 113 38 162c-28 13 -56 19 -85 19c-58 0 -108 -22 -149 -67c-34 -37 -60 -82 -78 -136c-15 -46 -23 -96 -23 -150c0 -57 13 -108 38 -153
c22 -36 44 -53 66 -53zM761 -415c8 0 16 4 24 13c16 19 29 48 40 86c9 31 13 64 13 98c0 102 -34 184 -103 246c-7 -82 -11 -166 -11 -250c0 -57 2 -104 7 -139c4 -36 14 -54 30 -54z" />
    <glyph glyph-name="r" unicode="r" horiz-adv-x="593" 
d="M120 -27h-4c-85 0 -127 120 -127 359c0 65 4 141 14 227c7 64 14 113 22 150c17 81 52 121 105 121c11 0 21 -3 30 -8c9 -6 17 -15 22 -26s7 -24 7 -40l-1 -112l1 -104c14 45 30 84 47 117c54 101 115 151 184 151c42 0 75 -20 101 -60c22 -34 34 -81 37 -140
c0 -7 -2 -14 -5 -19c-3 -6 -8 -11 -13 -14c-6 -3 -12 -5 -19 -5s-14 2 -19 6c-13 8 -20 19 -21 33c-1 31 -4 57 -11 77c-12 31 -27 46 -47 46c-13 0 -27 -5 -43 -17c-28 -20 -53 -53 -77 -98c-57 -109 -86 -257 -86 -443l4 -133c0 -25 -16 -44 -47 -56
c-15 -6 -33 -10 -54 -12z" />
    <glyph glyph-name="s" unicode="s" horiz-adv-x="526" 
d="M191 -21c-29 0 -54 1 -74 4c-45 7 -80 26 -107 55c-23 23 -34 53 -34 90c0 59 22 101 65 128c17 10 35 15 54 15c27 0 55 -10 84 -30c11 -8 16 -19 16 -31c0 -8 -2 -16 -7 -22c-7 -10 -17 -15 -31 -15c-9 0 -16 2 -22 6c-15 11 -28 16 -40 16c-13 0 -24 -7 -33 -22
c-7 -11 -10 -26 -10 -44c0 -23 8 -41 24 -52c15 -13 33 -19 55 -19c33 0 60 12 82 35c17 19 26 42 26 69c-3 52 -19 99 -46 141c-18 26 -45 57 -82 94l-36 38c-53 56 -80 116 -80 178c0 82 40 144 119 185c45 22 92 33 141 33c22 0 43 -2 63 -7c81 -19 122 -63 122 -133
c0 -33 -12 -71 -35 -115c-8 -11 -18 -17 -30 -17c-9 0 -17 2 -23 6c-11 6 -17 16 -17 30c0 9 2 16 6 22c15 23 22 45 22 65c0 19 -7 35 -21 47c-13 12 -28 18 -44 18c-35 0 -60 -19 -77 -57c-9 -20 -14 -45 -14 -76c0 -62 26 -118 79 -168l73 -71c26 -26 46 -54 61 -83
c15 -32 23 -68 23 -108c0 -73 -37 -129 -112 -168c-41 -22 -88 -34 -140 -37z" />
    <glyph glyph-name="t" unicode="t" horiz-adv-x="570" 
d="M304 -24c-45 0 -83 6 -114 19c-108 44 -175 159 -202 344c-8 53 -12 113 -12 180s5 139 14 216h-54c-7 0 -13 2 -18 6c-6 3 -11 8 -14 14c-4 5 -6 12 -6 19s2 13 6 19c7 13 18 19 32 19h64c10 65 22 127 37 184c52 203 107 304 165 304c11 0 22 -4 31 -12
c16 -15 24 -38 24 -68c0 -13 -1 -28 -4 -46c-14 -104 -27 -224 -40 -362h190c7 0 13 -2 19 -5c5 -3 10 -8 14 -14c3 -6 5 -12 5 -19s-2 -14 -5 -19c-9 -13 -20 -20 -33 -20h-196c-6 -89 -9 -172 -9 -249c0 -201 23 -334 69 -399c14 -20 30 -30 47 -30c16 0 32 9 47 26
c20 22 36 55 48 97c5 19 17 28 37 28c11 0 20 -4 27 -11c7 -8 11 -16 11 -25c0 -4 -1 -8 -2 -12c-35 -123 -94 -184 -178 -184z" />
    <glyph glyph-name="u" unicode="u" horiz-adv-x="743" 
d="M510 -12c-22 0 -39 21 -52 64c-12 36 -19 81 -23 133c-8 -27 -17 -52 -26 -75c-33 -81 -93 -122 -181 -122c-37 0 -68 7 -95 20c-87 39 -134 162 -143 368v102c0 149 22 250 65 301c19 24 39 38 61 42c7 1 16 2 27 2c30 -2 50 -17 60 -45l-2 -16
c-10 -57 -15 -134 -15 -230c0 -28 1 -56 3 -86c6 -112 22 -204 47 -275c15 -42 32 -64 49 -64c13 0 28 14 44 42c24 42 46 111 68 208l33 154c22 98 47 173 77 224c16 31 38 60 66 86c22 19 41 29 55 29c24 0 36 -26 36 -79l-1 -31c-19 -198 -29 -351 -29 -460
c0 -43 1 -91 4 -142c0 -73 -28 -120 -85 -141c-15 -6 -29 -9 -43 -9z" />
    <glyph glyph-name="v" unicode="v" horiz-adv-x="629" 
d="M233 -19c-84 0 -146 39 -186 116c-38 74 -57 175 -57 304c0 38 1 73 4 104c3 43 6 75 9 98c4 29 15 59 34 90c18 31 38 58 61 81c20 19 37 28 51 28c10 0 17 -6 22 -18c3 -8 4 -23 4 -44c-4 -40 -5 -113 -5 -217c0 -87 4 -162 13 -227c18 -133 52 -200 102 -200
c2 0 7 0 16 1c8 1 22 8 41 23c17 13 32 31 47 55c29 49 53 110 70 183c19 78 28 152 28 223c0 125 -24 213 -72 263c-9 8 -13 18 -13 31c0 7 3 15 8 23c9 9 18 13 28 13c9 0 17 -3 24 -10c37 -34 65 -87 82 -161c11 -50 16 -104 16 -160c0 -63 -5 -126 -16 -190
c-15 -85 -37 -158 -64 -221c-28 -66 -62 -114 -100 -144c-43 -29 -92 -44 -147 -44z" />
    <glyph glyph-name="w" unicode="w" horiz-adv-x="1055" 
d="M670 -28c-24 0 -49 4 -76 12c-82 26 -134 103 -157 233c-10 -40 -21 -73 -33 -100c-39 -96 -98 -144 -176 -144c-46 0 -85 12 -117 35c-80 54 -119 181 -119 381c0 243 39 373 119 390c7 1 16 2 27 2c30 -2 52 -17 64 -44l-10 -61c-7 -43 -12 -95 -13 -157
c0 -205 30 -337 89 -396c9 -11 19 -17 29 -17c37 0 72 105 104 314c7 45 12 76 15 93c6 35 17 66 34 93c33 50 68 75 103 75c29 0 44 -27 44 -82c-1 -13 -1 -27 -1 -41c0 -107 12 -209 35 -304c16 -68 37 -119 63 -151c16 -22 34 -33 52 -33c41 0 80 55 117 165
c31 97 47 207 47 329c0 136 -25 230 -76 283c-8 7 -13 16 -13 28c0 10 3 18 10 26c6 8 15 12 25 12c9 0 18 -3 26 -10c67 -67 101 -184 101 -351c0 -81 -9 -166 -28 -256c-35 -154 -96 -254 -184 -299c-32 -17 -65 -25 -101 -25z" />
    <glyph glyph-name="x" unicode="x" horiz-adv-x="761" 
d="M-89 -74c-7 0 -13 2 -18 5c-6 3 -11 8 -14 13c-3 6 -5 11 -5 17c0 17 6 29 19 36c89 51 177 133 262 245c-68 130 -120 258 -155 383c-17 58 -27 107 -28 146c0 22 7 39 23 51s35 18 59 18c45 0 75 -17 92 -50l48 -146c29 -87 56 -160 81 -219c65 115 122 235 170 360
c23 59 34 90 34 95c7 16 19 25 36 26c12 0 21 -4 28 -12c7 -9 11 -17 11 -26c0 -5 -4 -19 -12 -42c-67 -183 -143 -345 -230 -485c49 -104 98 -175 149 -213c20 -16 38 -24 53 -24c36 0 54 36 56 108c2 26 16 39 40 39c7 0 13 -2 19 -5c5 -3 10 -8 13 -14s5 -13 5 -20
c-4 -75 -26 -131 -66 -168c-33 -31 -74 -46 -122 -46c-34 0 -70 9 -106 27c-61 29 -114 77 -158 145c-87 -109 -175 -189 -265 -239c-6 -3 -12 -5 -19 -5z" />
    <glyph glyph-name="y" unicode="y" horiz-adv-x="727" 
d="M228 -532c-48 0 -90 15 -125 45c-29 25 -51 56 -66 93c-13 32 -20 65 -20 97c0 6 1 15 2 28s4 29 10 48c5 19 14 37 25 54s24 32 40 47s35 27 57 38c21 11 46 19 73 25s58 9 92 9c7 0 14 -2 20 -5c5 -3 10 -8 14 -14c3 -6 5 -12 5 -19s-2 -14 -5 -19
c-8 -13 -19 -20 -33 -20c-52 0 -95 -8 -128 -24c-61 -30 -92 -79 -92 -145c0 -26 6 -51 18 -77c11 -23 26 -41 45 -53c12 -8 25 -12 39 -12c32 0 63 21 91 61c30 44 53 103 68 177c16 76 27 178 33 306c-32 -55 -87 -83 -164 -83c-92 0 -158 45 -196 134
c-36 84 -54 198 -54 342c0 22 0 42 1 62c2 133 31 215 86 247c16 10 33 14 50 14c31 0 54 -14 68 -43c-8 -71 -11 -128 -11 -170v-58c2 -61 8 -127 21 -199c27 -143 57 -214 91 -214c9 0 20 8 35 24c15 17 34 66 55 149c7 28 13 55 16 81c3 31 5 81 5 150c0 61 1 108 4 142
c4 40 24 79 59 116c36 37 72 57 107 58c46 0 68 -38 68 -115l-1 -33c-11 -122 -17 -342 -18 -659c-1 -59 -6 -115 -16 -168c-39 -198 -123 -328 -252 -389c-39 -19 -78 -28 -117 -28z" />
    <glyph glyph-name="z" unicode="z" horiz-adv-x="670" 
d="M233 -393h-6c-64 3 -124 21 -178 56c-59 37 -98 86 -119 145c-8 24 -12 47 -12 69c0 4 0 14 1 29s6 34 17 56c11 21 25 40 43 56s38 28 61 36c22 7 46 11 71 11h25c15 -1 37 -7 66 -18c29 -12 57 -30 86 -54c11 -10 16 -21 16 -32c0 -8 -2 -15 -7 -22
c-7 -9 -16 -13 -26 -13s-18 3 -27 10c-41 35 -81 52 -120 52c-40 0 -71 -16 -94 -48c-17 -23 -25 -46 -25 -69c0 -42 22 -76 66 -102c29 -18 61 -26 95 -26c38 0 73 12 104 36c40 31 71 74 94 129c21 51 31 99 31 146c0 55 -14 93 -41 114c-27 17 -65 29 -115 36
c-16 3 -31 6 -46 9c-59 13 -88 42 -88 88c0 31 12 72 35 123c13 30 43 83 89 158c53 88 87 151 102 190c-58 -10 -119 -14 -183 -14c-25 0 -50 0 -77 2c-11 1 -21 5 -29 13s-12 18 -12 30c0 10 3 18 9 24c7 7 15 10 26 10c14 -1 28 -1 43 -1c14 0 33 0 55 1c23 1 49 4 79 8
c30 3 59 7 88 11c29 3 56 7 81 10s47 4 67 4c45 0 68 -11 69 -32c0 -18 -15 -60 -45 -125c-31 -66 -76 -159 -136 -279c-21 -43 -31 -73 -31 -91c0 -15 3 -25 11 -31c9 -9 29 -15 60 -20c18 -1 34 -5 50 -10c44 -13 75 -49 95 -110c12 -39 18 -83 18 -131
c0 -60 -9 -119 -27 -175c-25 -77 -63 -138 -113 -184c-54 -50 -120 -75 -196 -75z" />
    <glyph glyph-name="braceleft" unicode="{" horiz-adv-x="597" 
d="M379 582c-78 1 -137 18 -177 51c-32 26 -48 58 -48 95c0 19 5 38 17 57c20 32 52 49 97 50c54 0 111 -28 172 -83c37 -34 56 -66 56 -97c0 -8 -2 -17 -6 -28s-16 -22 -35 -31s-45 -14 -76 -14zM170 290c-69 0 -121 13 -157 40c-30 21 -45 47 -45 77c0 24 12 47 36 68
c35 32 91 49 168 50c24 0 50 -2 79 -6c77 -12 135 -30 172 -52c30 -19 45 -39 45 -59s-15 -40 -45 -58c-20 -13 -47 -24 -80 -33c-66 -18 -124 -27 -173 -27zM275 -20h-5c-42 0 -74 16 -96 47c-13 18 -20 39 -20 61c0 36 16 67 46 93c39 33 99 51 179 52c31 0 57 -5 77 -15
c27 -13 40 -32 40 -57c0 -30 -19 -63 -56 -98c-59 -54 -114 -82 -165 -83z" />
    <glyph glyph-name="bar" unicode="|" horiz-adv-x="252" 
d="M81 -74c-6 0 -14 1 -22 4c-9 3 -17 10 -25 21c-9 10 -14 23 -17 39c-7 42 -17 248 -30 617l-1 249c0 87 1 148 2 181c2 34 6 72 11 115s11 86 18 130c3 15 7 27 14 38c7 10 15 18 24 23s18 8 27 8s18 -2 26 -7c18 -12 28 -33 31 -63c7 -59 13 -125 19 -198
c4 -55 6 -206 7 -451c-15 -403 -23 -617 -26 -641c-2 -18 -7 -32 -15 -43c-11 -15 -26 -22 -43 -22z" />
    <glyph glyph-name="braceright" unicode="}" horiz-adv-x="600" 
d="M93 582c-31 0 -57 5 -76 14c-27 13 -41 33 -41 59c0 31 19 63 56 97c61 55 119 83 173 83c43 -1 76 -18 97 -50c11 -18 16 -37 16 -57c0 -37 -16 -69 -47 -95c-40 -33 -99 -50 -178 -51zM302 290c-9 0 -26 1 -52 3c-26 1 -66 9 -121 24c-33 9 -60 20 -80 33
c-30 18 -45 38 -45 58c0 7 3 15 8 25s17 21 37 34c20 12 47 23 80 32s63 15 92 20c29 4 55 6 79 6c77 -1 133 -18 169 -50c23 -21 35 -44 35 -69c0 -29 -15 -55 -45 -76c-36 -27 -88 -40 -157 -40zM202 -20h-21c-13 1 -33 8 -60 21c-28 13 -58 33 -89 62
c-37 35 -56 68 -56 98c0 25 13 44 40 57c20 10 46 15 77 15c80 -1 140 -19 179 -52c31 -26 47 -58 47 -93c0 -22 -7 -42 -20 -61c-21 -31 -54 -47 -97 -47z" />
    <glyph glyph-name="asciitilde" unicode="~" horiz-adv-x="725" 
d="M20 362c-16 0 -27 7 -34 20c-4 7 -6 14 -6 22l1 10c12 54 41 88 86 105c23 8 52 12 84 12c31 0 83 -5 157 -15c67 -10 113 -15 139 -15c56 0 88 14 96 43c6 22 17 33 32 33c17 -2 32 -13 44 -33c9 -17 14 -35 14 -55c0 -40 -22 -75 -65 -103c-21 -14 -49 -21 -82 -21
c-35 0 -99 12 -192 35c-76 21 -132 32 -168 32c-38 0 -60 -11 -68 -32c-8 -25 -21 -38 -38 -38z" />
    <glyph glyph-name="exclamdown" unicode="&#xa1;" horiz-adv-x="333" 
d="M76 -622c-17 0 -32 4 -46 12c-15 7 -27 19 -36 35s-15 36 -16 61c-1 15 -1 30 -1 46c0 21 1 48 2 79c2 32 5 70 10 114c5 43 10 88 15 134c5 45 11 91 16 136s8 88 10 129l2 60c0 62 -6 111 -17 148c-3 9 -4 17 -4 25c0 21 7 36 21 44c6 4 15 6 24 6c4 0 12 -1 22 -2
c10 -2 25 -11 46 -26c77 -67 116 -232 116 -498c0 -60 -3 -122 -8 -185c-13 -148 -33 -238 -60 -270c-26 -32 -58 -48 -96 -48zM91 503c-35 0 -64 12 -85 36c-16 18 -24 44 -24 78s11 58 32 73c15 10 33 15 53 15c12 0 26 -2 41 -7c35 -11 61 -32 76 -61
c9 -17 13 -34 13 -51c0 -24 -10 -44 -30 -60c-20 -15 -46 -23 -76 -23z" />
    <glyph glyph-name="cent" unicode="&#xa2;" horiz-adv-x="691" 
d="M166 -145c-14 0 -25 4 -34 14c-9 9 -13 21 -13 34c0 5 8 38 25 98c-46 19 -82 48 -108 86c-33 50 -50 112 -50 186c0 67 15 138 44 213c27 71 66 134 115 188s103 89 162 106c21 5 42 8 64 8l34 117c3 8 7 15 13 21c10 9 20 13 32 13c14 0 26 -5 35 -14
c9 -10 14 -21 14 -34c0 -5 -12 -46 -34 -123c54 -27 81 -67 81 -119c0 -56 -22 -98 -67 -125c-5 -2 -10 -4 -14 -4c-10 0 -17 4 -21 10s-6 12 -6 17c0 9 4 16 12 21c29 18 43 50 43 96c0 34 -14 51 -43 51l-179 -622c25 -25 53 -37 85 -37c40 0 77 20 113 59
c26 29 46 64 59 106c1 7 4 12 9 17c7 7 16 11 27 11c10 0 19 -4 27 -11s12 -15 12 -25c-6 -34 -20 -70 -44 -107c-58 -88 -149 -132 -272 -132c-17 0 -33 1 -50 3l-25 -88c-7 -23 -22 -34 -46 -34zM209 225l118 408c-44 -56 -78 -125 -100 -205c-14 -51 -21 -99 -21 -144
c0 -25 1 -45 3 -59z" />
    <glyph glyph-name="sterling" unicode="&#xa3;" horiz-adv-x="953" 
d="M319 -93h-9c-38 0 -70 22 -95 68c-48 83 -75 232 -81 446c-83 -24 -127 -39 -131 -43l-13 -2c-11 0 -21 3 -28 11c-11 9 -16 22 -16 38c0 21 10 36 29 45c46 17 99 34 157 50c0 76 2 149 5 218c5 133 13 229 22 288c5 39 16 74 32 107c31 64 77 115 138 152
s123 56 185 56c112 0 197 -47 254 -140c41 -68 61 -155 61 -261c0 -72 -6 -146 -18 -224c-1 -1 -1 -3 -1 -5c-7 -28 -22 -42 -44 -42c-14 0 -26 5 -34 16c-6 7 -8 15 -8 26c13 81 19 150 19 208c0 41 -5 78 -14 112c-18 66 -48 116 -90 152c-32 26 -64 40 -95 40
c-8 0 -19 -2 -33 -5c-13 -3 -28 -13 -43 -30c-16 -17 -29 -40 -38 -69c-4 -14 -9 -48 -16 -103s-15 -122 -23 -201c-9 -80 -17 -164 -25 -253c29 2 58 4 87 4c54 0 105 -6 153 -17c8 -2 15 -6 20 -11c9 -10 14 -22 14 -36c0 -12 -4 -23 -12 -33c-8 -11 -19 -16 -32 -16l-7 1
c-42 10 -86 15 -131 15c-33 0 -67 -2 -100 -5c-14 -168 -21 -299 -21 -393c0 -36 1 -64 4 -83l461 41c10 0 20 -3 29 -10s14 -16 14 -28c0 -10 -3 -19 -10 -26c-7 -8 -17 -13 -28 -14z" />
    <glyph glyph-name="currency" unicode="&#xa4;" horiz-adv-x="878" 
d="M83 79c-14 0 -26 6 -35 17c-13 16 -19 35 -19 57c0 34 11 74 33 121c-61 86 -91 194 -91 322c0 31 3 68 8 109c6 42 18 87 37 135c18 48 42 93 72 134c-33 33 -62 49 -87 49c-4 0 -9 0 -14 -1c-6 -2 -11 -2 -15 -2c-20 0 -30 11 -30 32c0 20 9 39 27 57
c20 20 46 30 77 30c3 0 10 0 21 -1s27 -8 48 -19s42 -28 63 -51c21 17 44 32 69 45c24 13 50 23 78 32c27 9 53 14 77 14c8 0 21 -2 40 -4s41 -11 65 -27c24 -17 45 -38 63 -64c3 13 5 26 5 37c0 15 -4 27 -12 38c-7 11 -11 21 -11 29c0 10 4 18 13 24c9 5 20 8 32 8
c28 0 53 -11 74 -32c22 -22 33 -51 33 -88c0 -47 -22 -108 -66 -185c13 -59 19 -120 19 -185c0 -122 -19 -234 -57 -336c19 -35 35 -65 50 -91s27 -46 38 -60c10 -14 18 -21 23 -21c5 2 10 3 18 3c7 0 14 -2 22 -6c10 -6 16 -15 16 -29c0 -8 -3 -17 -8 -25
c-9 -13 -24 -20 -46 -20c-13 0 -28 4 -45 12c-17 7 -37 22 -59 44c-23 21 -45 47 -68 77c-54 -80 -131 -120 -230 -120c-68 1 -128 22 -180 63c-17 -24 -26 -41 -26 -50c0 -3 1 -5 4 -8c7 -9 11 -18 11 -28c0 -11 -4 -20 -12 -26c-9 -6 -17 -10 -25 -10zM392 758
c51 69 90 128 119 175c-22 47 -50 71 -84 72c-11 0 -22 -3 -34 -8c-32 -13 -64 -41 -95 -84c31 -48 63 -100 94 -155zM200 497c35 48 70 97 107 146c-27 47 -53 93 -79 136c-22 -65 -33 -133 -33 -203c0 -27 2 -53 5 -79zM542 484c9 56 14 117 14 183c0 31 -1 61 -4 90
c-29 -41 -59 -82 -90 -124zM390 227c42 0 78 31 107 95c-35 53 -75 119 -120 198l-134 -170c15 -31 35 -58 59 -80c31 -29 60 -43 88 -43z" />
    <glyph glyph-name="yen" unicode="&#xa5;" horiz-adv-x="892" 
d="M393 -49c-13 0 -27 2 -42 7c-15 4 -23 9 -23 14c0 1 1 2 3 3c15 8 29 26 41 54c20 48 34 131 42 248c-35 -9 -63 -18 -84 -25c-29 -10 -46 -15 -50 -15c-16 0 -27 8 -34 23c-2 5 -3 10 -3 15c0 16 8 28 24 34c54 19 105 34 153 45c2 31 3 63 4 96
c-46 -12 -86 -24 -121 -37c-10 -4 -18 -6 -23 -6c-16 0 -28 8 -34 24c-2 5 -3 10 -3 15c0 15 8 27 24 33c52 18 105 34 160 47l2 147c0 147 -5 263 -14 348c-9 -49 -18 -97 -25 -143c-20 -120 -38 -207 -55 -260c-29 -93 -78 -140 -146 -140c-35 0 -69 11 -101 34
c-79 56 -118 161 -118 316c0 84 12 188 37 312c8 31 28 57 62 77c25 15 50 23 75 23c49 0 73 -26 74 -78c0 -15 -3 -33 -8 -54c-38 -136 -57 -255 -57 -359c0 -48 4 -94 13 -138c3 -15 9 -28 16 -39s15 -16 24 -16c22 0 42 30 60 90c13 46 34 151 61 314
c32 190 56 294 73 311c7 16 16 29 28 40c23 21 52 32 86 33c14 0 28 -2 42 -7c30 -10 53 -29 70 -57c35 -57 53 -199 53 -427c0 -106 -4 -206 -12 -300c71 -3 111 -13 122 -30c4 -5 5 -11 5 -18c-3 -25 -16 -38 -38 -38l-9 1c-28 7 -57 10 -87 11c-4 -33 -8 -65 -13 -96
c82 0 130 -10 142 -30c4 -5 5 -11 5 -18c0 -14 -6 -25 -18 -33c-6 -4 -12 -5 -19 -5l-10 1c-33 7 -71 11 -114 11c-33 -173 -85 -284 -155 -334c-26 -16 -55 -24 -85 -24z" />
    <glyph glyph-name="brokenbar" unicode="&#xa6;" horiz-adv-x="255" 
d="M87 658c-13 0 -26 4 -38 12c-26 16 -41 42 -46 78c-10 67 -15 129 -15 188c0 30 1 63 3 98c2 36 6 75 11 118s11 86 18 130c3 15 7 27 14 38c7 10 15 18 24 23s18 8 27 8s18 -2 26 -7c18 -12 28 -33 31 -63c17 -155 26 -284 26 -386c0 -107 -7 -173 -22 -199
c-14 -25 -34 -38 -59 -38zM84 -74c-18 0 -34 8 -47 25c-9 10 -14 23 -17 39c-21 133 -32 242 -32 327l2 63c4 83 14 136 31 161s39 37 66 37c26 0 47 -12 60 -36c14 -24 21 -86 21 -187v-55c-1 -64 -10 -167 -26 -309c-2 -18 -7 -32 -15 -43c-11 -15 -26 -22 -43 -22z" />
    <glyph glyph-name="section" unicode="&#xa7;" horiz-adv-x="722" 
d="M156 -27c-73 0 -130 18 -170 54c-32 28 -48 64 -48 108c0 10 1 21 3 32c9 50 32 86 69 107c18 11 38 16 60 16c30 0 60 -10 90 -32c12 -9 17 -20 17 -32c0 -9 -2 -17 -8 -25c-8 -12 -19 -17 -33 -17c-8 0 -16 2 -24 7c-16 11 -31 17 -44 17c-15 0 -26 -8 -35 -24
c-8 -13 -12 -29 -12 -48c0 -28 12 -49 35 -62c14 -9 32 -13 52 -13c31 0 58 9 81 29c24 20 36 48 36 85c-3 54 -20 104 -51 151c-20 29 -49 63 -88 102c-42 42 -72 78 -90 108c-24 39 -36 82 -36 128v16c3 59 27 108 75 147c42 36 94 58 154 68c-45 53 -67 111 -67 172
c0 63 22 115 66 155c58 53 133 80 224 80c56 0 103 -14 141 -43c35 -26 52 -62 52 -107c0 -8 -1 -22 -4 -41c-2 -19 -13 -48 -34 -86c-9 -12 -20 -19 -34 -19c-8 0 -15 3 -23 7c-12 8 -19 20 -19 34c0 8 3 16 7 23c16 24 24 48 24 70c0 12 -3 24 -9 35s-15 20 -27 27
c-12 6 -25 9 -39 9c-33 -1 -58 -19 -76 -54c-12 -25 -19 -55 -19 -91c0 -45 12 -85 35 -121c19 -30 49 -63 90 -99c45 -43 76 -78 93 -105c26 -41 39 -88 39 -138v-15c-3 -55 -27 -102 -74 -140c-42 -35 -95 -57 -159 -67c14 -16 27 -33 38 -52c22 -37 33 -82 33 -135
c0 -33 -7 -62 -21 -88c-25 -45 -67 -79 -125 -104c-45 -19 -94 -29 -145 -29zM291 465c28 4 51 17 69 37c18 21 27 47 27 78c0 72 -38 147 -114 226c-30 -6 -52 -25 -67 -58c-11 -23 -16 -52 -16 -88c0 -69 34 -134 101 -195z" />
    <glyph glyph-name="dieresis" unicode="&#xa8;" horiz-adv-x="558" 
d="M109 885c-12 0 -26 3 -40 8c-34 11 -59 33 -75 64c-9 20 -14 38 -14 55c0 26 10 47 30 64c21 16 46 24 76 24c35 0 64 -13 85 -38c16 -19 24 -47 24 -83c0 -35 -10 -61 -31 -77c-15 -11 -33 -17 -55 -17zM378 885c-12 0 -26 3 -40 8c-34 11 -59 33 -75 64
c-9 20 -14 38 -14 55c0 26 10 47 30 64c21 16 46 24 76 24c35 0 64 -13 85 -38c16 -19 24 -47 24 -83c0 -35 -10 -61 -31 -77c-15 -11 -33 -17 -55 -17z" />
    <glyph glyph-name="copyright" unicode="&#xa9;" horiz-adv-x="1412" 
d="M410 -30c-92 0 -174 36 -247 107c-67 66 -117 153 -151 263c-28 89 -42 187 -42 295c0 39 4 86 10 141c7 55 22 113 46 175c24 61 54 117 91 166s78 93 124 130c45 37 94 67 147 92c52 24 106 42 161 55c55 12 111 18 166 18c105 0 202 -21 290 -62
c93 -45 166 -107 220 -188c61 -93 92 -192 92 -297c0 -101 -25 -197 -76 -289c-50 -93 -118 -168 -202 -227c-90 -63 -186 -100 -288 -110l1 -10c0 -6 -1 -12 -3 -18c-32 -82 -82 -144 -150 -186c-58 -37 -121 -55 -189 -55zM441 57c39 0 76 10 112 28c57 30 99 78 128 144
l-36 -1c-71 0 -132 16 -183 49c-92 58 -138 154 -138 289c0 108 32 207 98 297c47 63 107 111 181 141c50 21 107 31 170 31c145 0 219 -61 219 -184c0 -18 -2 -37 -5 -57c-4 -20 -16 -30 -38 -30c-13 0 -24 5 -33 16c-7 7 -10 16 -10 25c-8 46 -28 69 -59 69
c-35 0 -72 -11 -110 -32c-58 -33 -106 -85 -143 -154c-35 -66 -53 -134 -53 -204c0 -78 21 -131 62 -161c23 -17 52 -26 87 -26c51 0 109 18 174 54c70 38 134 89 193 155c61 68 105 141 132 221c15 44 22 89 22 134c0 86 -28 165 -83 239c-22 28 -48 51 -78 70
c-60 37 -131 56 -213 56c-87 -1 -174 -21 -261 -60c-91 -41 -171 -98 -241 -172c-75 -81 -130 -172 -163 -276c-25 -76 -38 -155 -38 -238c0 -73 10 -139 31 -198c28 -81 71 -141 129 -180c45 -30 94 -45 147 -45z" />
    <glyph glyph-name="ordfeminine" unicode="&#xaa;" horiz-adv-x="487" 
d="M303 787c-31 0 -51 29 -60 86c-30 -41 -66 -62 -108 -65c-23 0 -47 6 -72 19c-54 28 -81 86 -81 173c0 58 17 107 50 149c44 53 105 80 183 80c29 0 57 -5 85 -14c21 22 40 33 58 33c25 0 38 -21 38 -63c0 -11 0 -17 -1 -19c-5 -85 -8 -147 -8 -185c0 -37 1 -69 3 -95
c0 -36 -12 -63 -35 -80c-16 -13 -34 -19 -52 -19zM154 916c7 1 17 13 31 36c23 39 44 91 63 155c3 15 8 29 13 44c-5 1 -13 1 -24 1c-32 -4 -58 -25 -79 -62c-18 -33 -27 -68 -27 -104v-19c1 -10 4 -22 11 -35c1 -1 2 -3 4 -5c1 -3 3 -5 4 -7s3 -3 4 -4z" />
    <glyph glyph-name="ordmasculine" unicode="&#xba;" horiz-adv-x="387" 
d="M144 745c-28 0 -53 7 -73 22c-37 26 -64 70 -78 133c-8 30 -11 63 -11 102c0 64 12 122 37 174c27 59 67 97 117 115c11 4 23 6 35 6c47 0 82 -35 105 -104c14 -42 21 -90 21 -143l-1 -42c-2 -52 -11 -103 -29 -152c-26 -74 -67 -111 -123 -111zM166 828c9 2 17 15 25 39
c14 47 22 104 22 171c0 48 -6 90 -18 125c-5 14 -9 22 -14 24c-1 -1 -3 -1 -4 -2c-2 -1 -4 -2 -7 -5c-21 -18 -36 -51 -46 -99c-7 -32 -10 -65 -10 -99c0 -76 13 -125 40 -147c5 -5 9 -7 12 -7z" />
    <glyph glyph-name="onesuperior" unicode="&#xb9;" horiz-adv-x="287" 
d="M153 743h-8c-20 0 -36 7 -49 21c-1 0 -1 0 -1 1c-36 39 -53 114 -53 224c0 35 2 78 6 127c-6 -4 -13 -5 -20 -5c-12 0 -22 4 -31 12c-8 8 -12 18 -12 30s4 22 12 30c20 18 40 41 60 71l19 26c14 25 33 37 56 37c11 -1 22 -4 33 -11c10 -7 18 -18 25 -31
c6 -13 9 -29 9 -47c-1 -34 -6 -95 -15 -184c-9 -82 -13 -141 -13 -176s4 -60 11 -76c6 -5 10 -11 10 -19c0 -5 -2 -10 -6 -14c-3 -5 -8 -8 -14 -11c-7 -3 -13 -4 -19 -5z" />
    <glyph glyph-name="twosuperior" unicode="&#xb2;" horiz-adv-x="351" 
d="M72 743c-41 0 -73 13 -95 40c-11 13 -16 29 -17 47c0 12 3 24 9 38c10 23 22 48 36 77c55 107 84 187 87 239v27c-14 -20 -22 -41 -25 -63c-5 -21 -19 -31 -40 -31c-13 0 -23 3 -31 11c-10 9 -15 19 -15 31c3 35 19 70 47 106c24 30 52 46 84 47c23 0 45 -9 67 -27
c45 -36 67 -80 67 -134c0 -38 -11 -80 -34 -126c-17 -35 -43 -78 -77 -131c-30 -46 -46 -70 -47 -73c26 9 59 27 99 54c7 5 14 7 22 7c12 0 23 -5 32 -16c6 -7 9 -16 9 -26c0 -23 -35 -49 -104 -79c-27 -12 -52 -18 -74 -18z" />
    <glyph glyph-name="threesuperior" unicode="&#xb3;" horiz-adv-x="365" 
d="M106 743h-5c-35 0 -65 17 -88 52c-15 21 -23 40 -23 56c0 21 9 36 27 46c9 6 18 10 29 10c15 0 25 -9 30 -25c1 -5 3 -11 6 -20c8 -23 14 -37 20 -40c12 1 22 7 31 16c8 9 14 20 19 34c5 13 7 28 8 43c0 15 -2 30 -6 44c-11 31 -33 47 -69 47c-12 12 -18 22 -18 31
c0 10 4 19 11 27c14 14 33 23 57 26c6 21 9 44 9 68c0 36 -8 54 -24 54c-10 0 -21 -5 -31 -15c-14 -14 -20 -29 -20 -47l1 -15c0 -18 -8 -32 -24 -41c-7 -4 -15 -6 -24 -6c-6 0 -12 2 -17 5c-5 4 -8 10 -9 19s-2 18 -2 26c0 43 15 81 46 114c36 40 83 60 141 60
c29 0 53 -13 72 -40c16 -24 24 -54 26 -91c0 -49 -14 -93 -42 -130c27 -29 40 -65 40 -108c0 -56 -17 -104 -52 -144c-32 -38 -72 -56 -119 -56z" />
    <glyph glyph-name="guillemotleft" unicode="&#xab;" horiz-adv-x="632" 
d="M487 240c-4 0 -8 1 -12 2c-85 53 -142 89 -170 108c-47 31 -74 53 -81 65c-9 19 -13 50 -13 94c2 13 55 46 158 99c87 46 132 74 138 83c5 10 9 15 12 15s5 -5 8 -15l2 -4c1 -9 2 -15 3 -16c0 -23 -23 -61 -70 -113c-24 -27 -53 -52 -86 -74l-57 -35l179 -125
c21 -7 31 -21 31 -41c0 -4 -1 -8 -2 -12c-5 -19 -19 -29 -40 -31zM235 240c-6 0 -24 10 -56 30c-126 77 -195 125 -206 145c-9 19 -13 50 -13 94c2 13 55 46 158 99c86 45 131 73 137 83s10 15 13 15c1 0 3 -2 4 -4c3 -7 5 -11 5 -15c1 -3 2 -5 2 -7s1 -3 1 -4v-8
c0 -21 -23 -58 -70 -110c-26 -29 -55 -53 -86 -74c-17 -11 -36 -23 -56 -35l179 -125c20 -7 30 -21 30 -41c-3 -27 -17 -41 -42 -43z" />
    <glyph glyph-name="registered" unicode="&#xae;" horiz-adv-x="1429" 
d="M425 -30c-92 0 -173 36 -246 107c-68 67 -119 155 -152 263c-28 91 -41 189 -41 295c0 38 3 85 9 140c7 55 22 113 46 175c24 61 54 117 91 166s78 93 124 130c45 37 94 67 146 92s106 43 161 56c55 12 111 18 167 18c154 0 286 -43 397 -128c76 -59 132 -135 169 -229
c28 -72 42 -153 42 -241c0 -80 -10 -159 -29 -235c-29 -109 -74 -208 -135 -296c-65 -93 -143 -165 -233 -216c-95 -54 -199 -81 -313 -81c-22 0 -37 7 -44 22c-50 -25 -104 -38 -159 -38zM454 57c21 0 44 4 71 11s56 21 85 44s53 53 73 90c-23 11 -45 26 -64 43
s-36 35 -51 54s-28 36 -38 53c-15 -81 -22 -134 -22 -161v-6c0 -30 -8 -45 -24 -45c-5 0 -11 2 -18 5c-46 25 -69 110 -69 254c2 103 9 205 24 305c12 89 28 170 47 244c20 73 40 121 59 145c17 19 43 28 77 28c35 0 62 -9 81 -27c11 -11 17 -25 17 -43
c0 -12 -4 -26 -12 -41c-7 -15 -16 -39 -27 -74c71 71 148 106 232 106c67 0 118 -18 153 -55c22 -23 33 -50 33 -82c0 -58 -39 -128 -117 -209c-46 -49 -104 -98 -171 -149c-59 -44 -116 -81 -170 -112c4 -11 10 -24 18 -39c7 -15 16 -31 27 -47c11 -17 23 -32 37 -46
c14 -15 30 -26 47 -35s35 -14 56 -14c37 0 78 21 124 62c5 5 12 7 21 7c8 0 16 -3 23 -8s11 -10 11 -16c0 -18 -20 -39 -59 -64c-57 -35 -110 -53 -157 -53l-18 1c-21 -43 -47 -80 -78 -111c54 3 105 15 154 34c93 37 175 100 245 187c66 83 115 178 146 283
c21 74 32 148 32 222c0 173 -63 294 -190 361c-64 34 -138 51 -223 51c-88 0 -175 -19 -260 -56c-88 -39 -167 -94 -235 -165c-71 -75 -124 -165 -158 -271c-25 -76 -37 -156 -37 -238c0 -73 10 -139 31 -198c28 -81 71 -141 130 -180c46 -30 94 -45 144 -45zM552 466
c28 17 64 44 108 83c41 36 83 79 128 129c79 90 119 157 120 203c0 9 -2 17 -7 23c-4 7 -10 12 -17 15s-16 4 -25 4c-34 0 -73 -13 -116 -40c-48 -30 -90 -67 -124 -113c-24 -99 -46 -201 -67 -304z" />
    <glyph glyph-name="macron" unicode="&#xaf;" horiz-adv-x="403" 
d="M266 1002l-237 4c-9 0 -17 3 -24 7c-8 4 -13 10 -17 17c-4 8 -6 16 -6 25c0 13 5 24 14 33s20 13 33 14l238 -4c19 -1 32 -9 41 -24c4 -8 6 -16 6 -25s-2 -17 -7 -24c-4 -7 -10 -12 -17 -17c-7 -4 -15 -6 -24 -6z" />
    <glyph glyph-name="degree" unicode="&#xb0;" horiz-adv-x="396" 
d="M173 996c-48 0 -89 17 -125 53s-54 78 -54 125c0 50 19 88 58 115c30 21 65 31 105 31c19 0 38 -3 56 -8c65 -19 98 -69 98 -148c0 -40 -9 -76 -27 -106c-24 -42 -61 -62 -111 -62zM178 1036c14 0 29 13 43 38c15 25 23 55 23 90c0 26 -5 49 -14 68c-11 25 -23 37 -37 37
c-15 0 -31 -17 -46 -50c-13 -29 -20 -56 -20 -81c0 -19 3 -37 9 -54c11 -32 25 -48 42 -48z" />
    <glyph glyph-name="plusminus" unicode="&#xb1;" horiz-adv-x="459" 
d="M162 108c-9 0 -17 3 -24 7c-7 5 -13 11 -17 18s-6 15 -6 24l3 106l-99 1c-9 0 -17 3 -24 7s-13 10 -17 17c-4 8 -6 16 -6 25c0 8 2 16 7 24c4 7 10 12 17 16c7 5 15 7 24 7l101 -2l3 108c1 13 6 24 15 33c9 8 20 13 33 13c19 0 33 -8 42 -25c4 -7 6 -15 6 -24l-3 -106
l99 -1c9 0 17 -3 24 -7s13 -10 17 -17s6 -15 6 -24s-2 -17 -6 -24c-5 -8 -11 -13 -18 -17s-15 -7 -24 -7l-101 2l-3 -107c-1 -9 -3 -17 -7 -24c-5 -7 -11 -13 -18 -17s-15 -6 -24 -6zM313 -9l-298 4c-9 0 -17 3 -24 7c-8 4 -13 10 -17 17c-4 8 -6 16 -6 25c0 13 5 24 14 33
s20 13 33 14l299 -4c19 -1 32 -9 41 -24c4 -8 6 -16 6 -25s-2 -17 -7 -24c-4 -7 -10 -12 -17 -17c-7 -4 -15 -6 -24 -6z" />
    <glyph glyph-name="acute" unicode="&#xb4;" horiz-adv-x="388" 
d="M62 789c-27 0 -51 9 -69 27c-9 8 -14 15 -14 20c0 2 2 4 4 4c20 4 39 21 57 52c10 18 26 50 47 98c28 68 52 111 72 128c15 11 31 16 48 16c23 0 44 -8 62 -24c19 -15 28 -35 28 -58s-7 -49 -20 -79c-25 -54 -62 -100 -110 -137c-40 -31 -75 -47 -105 -47z" />
    <glyph glyph-name="periodcentered" unicode="&#xb7;" horiz-adv-x="289" 
d="M109 393c-12 0 -26 3 -40 8c-34 11 -59 33 -75 64c-9 20 -14 38 -14 55c0 26 10 47 30 64c21 16 46 24 76 24c35 0 64 -13 85 -38c16 -19 24 -47 24 -83c0 -35 -10 -61 -31 -77c-15 -11 -33 -17 -55 -17z" />
    <glyph glyph-name="periodcentered" unicode="&#x2219;" horiz-adv-x="289" 
d="M109 393c-12 0 -26 3 -40 8c-34 11 -59 33 -75 64c-9 20 -14 38 -14 55c0 26 10 47 30 64c21 16 46 24 76 24c35 0 64 -13 85 -38c16 -19 24 -47 24 -83c0 -35 -10 -61 -31 -77c-15 -11 -33 -17 -55 -17z" />
    <glyph glyph-name="cedilla" unicode="&#xb8;" horiz-adv-x="447" 
d="M100 -341c-24 0 -47 5 -69 15c-41 18 -73 48 -96 91c0 1 -1 4 -2 7c-1 4 -1 8 -1 11v9c1 4 3 9 8 15c4 6 11 11 22 14c8 3 14 4 20 4c16 0 31 -11 45 -34c19 -25 36 -38 52 -38c25 0 46 24 63 71c12 34 18 69 18 106c0 38 -7 67 -22 88c-11 13 -23 20 -38 20
c-17 0 -33 -14 -50 -43c-10 -17 -26 -27 -48 -27c-17 0 -30 5 -38 16c-6 8 -9 38 -9 91c0 65 5 120 16 167c17 30 44 45 82 45c38 -1 57 -17 57 -48l-1 -16c-5 -23 -8 -51 -9 -85c12 3 24 4 37 4c36 0 68 -10 95 -30c65 -48 98 -115 98 -200c0 -13 -2 -29 -5 -50
s-10 -44 -22 -70c-13 -27 -29 -50 -49 -70s-43 -36 -69 -47s-54 -16 -85 -16z" />
    <glyph glyph-name="guillemotright" unicode="&#xbb;" horiz-adv-x="632" 
d="M-28 240c-1 0 -3 2 -4 4c-3 7 -5 12 -5 15l-1 2c0 4 -1 8 -2 12c0 17 12 42 36 75c19 26 42 50 67 74c25 22 58 45 99 69c4 2 7 4 10 6l-178 126c-21 6 -31 19 -31 40c0 15 5 26 17 35c7 5 16 8 25 8c6 0 24 -10 56 -30c128 -78 196 -126 206 -145c9 -19 13 -46 14 -79
l-1 -15c0 -9 -34 -32 -101 -68c-36 -19 -75 -41 -119 -64c-44 -24 -69 -41 -75 -50c-6 -10 -10 -15 -13 -15zM224 240c-3 1 -6 5 -9 15c0 3 -1 5 -2 6l-1 10l-1 2c0 10 3 21 10 34c13 26 34 53 60 82c27 29 55 53 86 73c10 6 29 18 57 35l-179 126c-21 6 -31 20 -31 40
c3 29 17 43 42 43c4 0 8 -1 12 -2l44 -28c126 -76 195 -125 207 -145c8 -18 12 -44 13 -79l-1 -15c0 -9 -33 -31 -100 -68l-121 -65c-43 -23 -68 -39 -74 -48c-5 -10 -9 -16 -12 -16z" />
    <glyph glyph-name="questiondown" unicode="&#xbf;" horiz-adv-x="608" 
d="M202 -629c-27 0 -54 4 -79 13c-96 31 -144 106 -144 224c0 87 23 175 68 263c25 47 61 107 109 178c22 33 43 66 64 99c45 71 77 141 95 208c5 21 8 39 8 53c0 9 -2 17 -5 24c0 3 2 6 7 8s13 3 24 3c25 -1 47 -11 67 -28c25 -23 37 -62 37 -116v-26
c0 -40 -11 -92 -33 -157c-15 -43 -40 -105 -74 -186c-42 -96 -71 -170 -85 -221c-13 -45 -19 -89 -19 -134c0 -64 14 -96 42 -96c23 0 48 21 76 64c23 36 41 80 53 130c1 7 5 14 11 19c9 8 21 13 35 13c15 0 28 -5 40 -14c11 -9 17 -19 17 -32c-5 -35 -17 -72 -38 -111
c-31 -59 -72 -104 -123 -135c-48 -29 -99 -43 -153 -43zM363 507c-36 0 -65 13 -86 38c-16 19 -24 46 -24 83c0 36 11 62 33 78c14 11 31 16 52 16c13 0 27 -2 42 -7c34 -11 59 -32 75 -65c9 -20 14 -37 14 -54c0 -27 -10 -49 -31 -65s-46 -24 -75 -24z" />
    <glyph glyph-name="Agrave" unicode="&#xc0;" 
d="M84 -43c-8 0 -15 2 -21 5c-14 6 -21 17 -22 32c-1 14 -2 31 -2 49c0 91 5 183 14 277c-9 -7 -18 -14 -26 -21c-9 -8 -18 -11 -29 -11c-10 0 -19 3 -27 11c-9 8 -13 17 -13 27s4 19 12 27c27 25 58 45 93 62c21 165 51 311 91 438c67 211 155 347 265 408
c27 13 52 20 75 20c38 0 77 -16 115 -48c86 -70 136 -213 151 -427c4 -72 7 -165 9 -281c0 -165 7 -290 22 -375c13 -75 35 -130 66 -166c2 -2 2 -4 2 -6c0 -11 -14 -16 -43 -16c-36 0 -72 11 -106 33c-77 47 -129 172 -156 373c-80 16 -156 23 -229 23
c-55 0 -106 -6 -154 -18c-10 -61 -18 -117 -25 -168c-15 -106 -22 -176 -22 -209c0 -7 -2 -13 -5 -19c-3 -5 -8 -10 -14 -13c-6 -4 -13 -6 -21 -7zM545 445c-8 73 -14 160 -19 259l-8 121c-6 90 -14 159 -24 209c-9 45 -22 67 -40 67c-76 0 -147 -129 -213 -388
c-24 -94 -43 -181 -56 -260c45 8 92 12 139 12c16 0 35 0 58 -1s50 -3 79 -6c29 -4 57 -8 84 -13zM549 1346c-30 0 -65 16 -104 47c-50 39 -87 85 -110 137c-14 30 -20 58 -20 81c0 22 9 40 27 56s39 24 63 24c29 0 53 -16 73 -47c10 -16 25 -49 47 -97
c15 -37 31 -70 48 -98c17 -31 36 -48 56 -52c2 0 3 -2 3 -4c-4 -14 -17 -26 -37 -36c-13 -7 -28 -11 -46 -11z" />
    <glyph glyph-name="Aacute" unicode="&#xc1;" 
d="M84 -43c-8 0 -15 2 -21 5c-14 6 -21 17 -22 32c-1 14 -2 31 -2 49c0 91 5 183 14 277c-9 -7 -18 -14 -26 -21c-9 -8 -18 -11 -29 -11c-10 0 -19 3 -27 11c-9 8 -13 17 -13 27s4 19 12 27c27 25 58 45 93 62c21 165 51 311 91 438c67 211 155 347 265 408
c27 13 52 20 75 20c38 0 77 -16 115 -48c86 -70 136 -213 151 -427c4 -72 7 -165 9 -281c0 -165 7 -290 22 -375c13 -75 35 -130 66 -166c2 -2 2 -4 2 -6c0 -11 -14 -16 -43 -16c-36 0 -72 11 -106 33c-77 47 -129 172 -156 373c-80 16 -156 23 -229 23
c-55 0 -106 -6 -154 -18c-10 -61 -18 -117 -25 -168c-15 -106 -22 -176 -22 -209c0 -7 -2 -13 -5 -19c-3 -5 -8 -10 -14 -13c-6 -4 -13 -6 -21 -7zM545 445c-8 73 -14 160 -19 259l-8 121c-6 90 -14 159 -24 209c-9 45 -22 67 -40 67c-76 0 -147 -129 -213 -388
c-24 -94 -43 -181 -56 -260c45 8 92 12 139 12c16 0 35 0 58 -1s50 -3 79 -6c29 -4 57 -8 84 -13zM427 1361c-27 0 -51 9 -69 27c-9 8 -14 15 -14 20c0 2 2 4 4 4c20 4 39 21 57 52c10 18 26 50 47 98c28 68 52 111 72 128c15 11 31 16 48 16c23 0 44 -8 62 -24
c19 -15 28 -35 28 -58s-7 -49 -20 -79c-25 -54 -62 -100 -110 -137c-40 -31 -75 -47 -105 -47z" />
    <glyph glyph-name="Acircumflex" unicode="&#xc2;" 
d="M84 -43c-8 0 -15 2 -21 5c-14 6 -21 17 -22 32c-1 14 -2 31 -2 49c0 91 5 183 14 277c-9 -7 -18 -14 -26 -21c-9 -8 -18 -11 -29 -11c-10 0 -19 3 -27 11c-9 8 -13 17 -13 27s4 19 12 27c27 25 58 45 93 62c21 165 51 311 91 438c67 211 155 347 265 408
c27 13 52 20 75 20c38 0 77 -16 115 -48c86 -70 136 -213 151 -427c4 -72 7 -165 9 -281c0 -165 7 -290 22 -375c13 -75 35 -130 66 -166c2 -2 2 -4 2 -6c0 -11 -14 -16 -43 -16c-36 0 -72 11 -106 33c-77 47 -129 172 -156 373c-80 16 -156 23 -229 23
c-55 0 -106 -6 -154 -18c-10 -61 -18 -117 -25 -168c-15 -106 -22 -176 -22 -209c0 -7 -2 -13 -5 -19c-3 -5 -8 -10 -14 -13c-6 -4 -13 -6 -21 -7zM545 445c-8 73 -14 160 -19 259l-8 121c-6 90 -14 159 -24 209c-9 45 -22 67 -40 67c-76 0 -147 -129 -213 -388
c-24 -94 -43 -181 -56 -260c45 8 92 12 139 12c16 0 35 0 58 -1s50 -3 79 -6c29 -4 57 -8 84 -13zM668 1340h-17c-65 9 -117 69 -158 181l-78 -158c-8 -15 -20 -23 -38 -23c-7 0 -13 1 -19 4c-16 9 -24 22 -24 39c0 6 31 71 92 195c15 31 41 46 77 46c23 0 46 -3 69 -8
c7 -1 21 -36 41 -103c26 -87 47 -138 63 -152c5 -4 8 -8 8 -11c0 -5 -6 -8 -16 -10z" />
    <glyph glyph-name="Atilde" unicode="&#xc3;" 
d="M84 -43c-8 0 -15 2 -21 5c-14 6 -21 17 -22 32c-1 14 -2 31 -2 49c0 91 5 183 14 277c-9 -7 -18 -14 -26 -21c-9 -8 -18 -11 -29 -11c-10 0 -19 3 -27 11c-9 8 -13 17 -13 27s4 19 12 27c27 25 58 45 93 62c21 165 51 311 91 438c67 211 155 347 265 408
c27 13 52 20 75 20c38 0 77 -16 115 -48c86 -70 136 -213 151 -427c4 -72 7 -165 9 -281c0 -165 7 -290 22 -375c13 -75 35 -130 66 -166c2 -2 2 -4 2 -6c0 -11 -14 -16 -43 -16c-36 0 -72 11 -106 33c-77 47 -129 172 -156 373c-80 16 -156 23 -229 23
c-55 0 -106 -6 -154 -18c-10 -61 -18 -117 -25 -168c-15 -106 -22 -176 -22 -209c0 -7 -2 -13 -5 -19c-3 -5 -8 -10 -14 -13c-6 -4 -13 -6 -21 -7zM545 445c-8 73 -14 160 -19 259l-8 121c-6 90 -14 159 -24 209c-9 45 -22 67 -40 67c-76 0 -147 -129 -213 -388
c-24 -94 -43 -181 -56 -260c45 8 92 12 139 12c16 0 35 0 58 -1s50 -3 79 -6c29 -4 57 -8 84 -13zM221 1332c-16 0 -27 7 -34 20c-4 7 -6 14 -6 22l1 10c12 54 41 88 86 105c23 8 52 12 84 12c31 0 83 -5 157 -15c63 -10 111 -14 144 -15c53 0 83 15 91 43c6 22 17 33 32 33
c17 -2 32 -13 44 -33c10 -17 14 -34 14 -52c0 -42 -21 -77 -65 -106c-21 -14 -49 -21 -82 -21c-12 0 -28 1 -46 4c-19 2 -41 6 -67 12s-52 12 -79 19c-21 6 -43 12 -64 17s-41 9 -60 12s-36 4 -51 4c-33 -1 -54 -13 -62 -36c-6 -23 -18 -35 -37 -35z" />
    <glyph glyph-name="Adieresis" unicode="&#xc4;" 
d="M84 -43c-8 0 -15 2 -21 5c-14 6 -21 17 -22 32c-1 14 -2 31 -2 49c0 91 5 183 14 277c-9 -7 -18 -14 -26 -21c-9 -8 -18 -11 -29 -11c-10 0 -19 3 -27 11c-9 8 -13 17 -13 27s4 19 12 27c27 25 58 45 93 62c21 165 51 311 91 438c67 211 155 347 265 408
c27 13 52 20 75 20c38 0 77 -16 115 -48c86 -70 136 -213 151 -427c4 -72 7 -165 9 -281c0 -165 7 -290 22 -375c13 -75 35 -130 66 -166c2 -2 2 -4 2 -6c0 -11 -14 -16 -43 -16c-36 0 -72 11 -106 33c-77 47 -129 172 -156 373c-80 16 -156 23 -229 23
c-55 0 -106 -6 -154 -18c-10 -61 -18 -117 -25 -168c-15 -106 -22 -176 -22 -209c0 -7 -2 -13 -5 -19c-3 -5 -8 -10 -14 -13c-6 -4 -13 -6 -21 -7zM545 445c-8 73 -14 160 -19 259l-8 121c-6 90 -14 159 -24 209c-9 45 -22 67 -40 67c-76 0 -147 -129 -213 -388
c-24 -94 -43 -181 -56 -260c45 8 92 12 139 12c16 0 35 0 58 -1s50 -3 79 -6c29 -4 57 -8 84 -13zM371 1317c-12 0 -26 3 -40 8c-34 11 -59 33 -75 64c-9 20 -14 38 -14 55c0 26 10 47 30 64c21 16 46 24 76 24c35 0 64 -13 85 -38c16 -19 24 -47 24 -83
c0 -35 -10 -61 -31 -77c-15 -11 -33 -17 -55 -17zM640 1317c-12 0 -26 3 -40 8c-34 11 -59 33 -75 64c-9 20 -14 38 -14 55c0 26 10 47 30 64c21 16 46 24 76 24c35 0 64 -13 85 -38c16 -19 24 -47 24 -83c0 -35 -10 -61 -31 -77c-15 -11 -33 -17 -55 -17z" />
    <glyph glyph-name="Aring" unicode="&#xc5;" 
d="M546 445c-8 73 -14 160 -19 259l-8 121c-6 90 -14 159 -24 209c-9 45 -22 67 -40 67c-76 0 -147 -129 -213 -388c-24 -94 -43 -181 -56 -260c45 8 92 12 139 12c16 0 35 0 58 -1s50 -3 79 -6c29 -4 57 -8 84 -13zM517 1297c14 0 29 13 43 38c15 25 23 56 23 91
c0 26 -5 48 -14 67c-11 25 -23 37 -37 37c-15 0 -31 -17 -46 -50c-13 -29 -20 -56 -20 -81c0 -19 3 -37 9 -54c11 -32 25 -48 42 -48zM85 -43c-8 0 -15 2 -21 5c-14 6 -21 17 -22 32c-1 14 -2 31 -2 49c0 91 5 183 14 277c-9 -7 -18 -14 -26 -21c-9 -8 -18 -11 -29 -11
c-10 0 -19 3 -27 11s-12 17 -12 27s3 19 11 27c27 25 58 45 93 62c29 232 76 422 141 570c39 90 83 160 131 211c37 38 73 63 108 75c-24 12 -43 25 -57 39c-36 36 -54 78 -54 125c0 50 19 88 58 115c30 21 65 31 105 31c19 0 38 -3 56 -8c65 -19 98 -69 98 -150
c0 -39 -9 -74 -27 -104c-15 -26 -36 -44 -62 -54c116 -53 183 -207 200 -459c4 -72 7 -165 9 -281c0 -165 7 -290 22 -375c13 -75 35 -130 66 -166c2 -2 2 -4 2 -6c0 -11 -14 -16 -43 -16c-36 0 -72 11 -106 33c-77 47 -129 172 -156 373c-81 16 -154 24 -219 24
c-61 0 -115 -7 -164 -19c-10 -61 -18 -117 -25 -168c-15 -106 -22 -176 -22 -209c0 -7 -2 -13 -5 -19c-3 -5 -8 -10 -14 -13c-6 -4 -13 -6 -21 -7z" />
    <glyph glyph-name="Amacron" unicode="&#x100;" 
d="M84 -43c-8 0 -15 2 -21 5c-14 6 -21 17 -22 32c-1 14 -2 31 -2 49c0 91 5 183 14 277c-9 -7 -18 -14 -26 -21c-9 -8 -18 -11 -29 -11c-10 0 -19 3 -27 11c-9 8 -13 17 -13 27s4 19 12 27c27 25 58 45 93 62c21 165 51 311 91 438c67 211 155 347 265 408
c27 13 52 20 75 20c38 0 77 -16 115 -48c86 -70 136 -213 151 -427c4 -72 7 -165 9 -281c0 -165 7 -290 22 -375c13 -75 35 -130 66 -166c2 -2 2 -4 2 -6c0 -11 -14 -16 -43 -16c-36 0 -72 11 -106 33c-77 47 -129 172 -156 373c-80 16 -156 23 -229 23
c-55 0 -106 -6 -154 -18c-10 -61 -18 -117 -25 -168c-15 -106 -22 -176 -22 -209c0 -7 -2 -13 -5 -19c-3 -5 -8 -10 -14 -13c-6 -4 -13 -6 -21 -7zM545 445c-8 73 -14 160 -19 259l-8 121c-6 90 -14 159 -24 209c-9 45 -22 67 -40 67c-76 0 -147 -129 -213 -388
c-24 -94 -43 -181 -56 -260c45 8 92 12 139 12c16 0 35 0 58 -1s50 -3 79 -6c29 -4 57 -8 84 -13zM606 1351l-237 4c-9 0 -17 3 -24 7c-8 4 -13 10 -17 17c-4 8 -6 16 -6 25c0 13 5 24 14 33s20 13 33 14l238 -4c19 -1 32 -9 41 -24c4 -8 6 -16 6 -25s-2 -17 -7 -24
c-4 -7 -10 -12 -17 -17c-7 -4 -15 -6 -24 -6z" />
    <glyph glyph-name="Abreve" unicode="&#x102;" 
d="M84 -43c-8 0 -15 2 -21 5c-14 6 -21 17 -22 32c-1 14 -2 31 -2 49c0 91 5 183 14 277c-9 -7 -18 -14 -26 -21c-9 -8 -18 -11 -29 -11c-10 0 -19 3 -27 11c-9 8 -13 17 -13 27s4 19 12 27c27 25 58 45 93 62c21 165 51 311 91 438c67 211 155 347 265 408
c27 13 52 20 75 20c38 0 77 -16 115 -48c86 -70 136 -213 151 -427c4 -72 7 -165 9 -281c0 -165 7 -290 22 -375c13 -75 35 -130 66 -166c2 -2 2 -4 2 -6c0 -11 -14 -16 -43 -16c-36 0 -72 11 -106 33c-77 47 -129 172 -156 373c-80 16 -156 23 -229 23
c-55 0 -106 -6 -154 -18c-10 -61 -18 -117 -25 -168c-15 -106 -22 -176 -22 -209c0 -7 -2 -13 -5 -19c-3 -5 -8 -10 -14 -13c-6 -4 -13 -6 -21 -7zM545 445c-8 73 -14 160 -19 259l-8 121c-6 90 -14 159 -24 209c-9 45 -22 67 -40 67c-76 0 -147 -129 -213 -388
c-24 -94 -43 -181 -56 -260c45 8 92 12 139 12c16 0 35 0 58 -1s50 -3 79 -6c29 -4 57 -8 84 -13zM509 1343c-60 0 -115 31 -163 93c-20 27 -29 56 -29 87c0 35 13 64 39 87c21 18 44 27 71 27c18 0 30 -9 37 -28c3 -11 6 -32 8 -63c2 -36 6 -62 12 -76
c12 -30 26 -44 42 -44c1 0 5 0 10 1s12 8 23 21c19 24 35 65 48 121c9 33 28 51 55 52c24 0 36 -15 36 -44c0 -24 -7 -55 -21 -94c-37 -93 -93 -140 -168 -140z" />
    <glyph glyph-name="Aogonek" unicode="&#x104;" 
d="M546 445c-8 73 -14 160 -19 259l-8 121c-6 90 -14 159 -24 209c-9 45 -22 67 -40 67c-76 0 -147 -129 -213 -388c-24 -94 -43 -181 -56 -260c45 8 92 12 139 12c16 0 35 0 58 -1s50 -3 79 -6c29 -4 57 -8 84 -13zM786 -350c-39 0 -79 17 -121 51c-38 31 -67 71 -85 121
c-12 31 -18 64 -19 101c0 25 4 50 10 77c19 29 45 48 79 56c-45 70 -77 174 -95 312c-81 16 -154 24 -219 24c-61 0 -115 -7 -164 -19c-10 -61 -18 -117 -25 -168c-15 -106 -22 -176 -22 -209c0 -7 -2 -13 -5 -19c-3 -5 -8 -10 -14 -13c-6 -4 -13 -6 -21 -7
c-8 0 -15 2 -21 5c-14 6 -21 17 -22 32c-1 14 -2 31 -2 49c0 91 5 183 14 277c-9 -7 -18 -14 -26 -21c-9 -8 -18 -11 -29 -11c-10 0 -19 3 -27 11s-12 17 -12 27s3 19 11 27c27 25 58 45 93 62c21 165 51 311 91 438c67 211 155 347 265 408c27 13 52 20 75 20
c38 0 77 -16 115 -48c86 -70 136 -213 151 -427c4 -72 7 -165 9 -281c0 -165 7 -290 22 -375c13 -75 35 -130 66 -166c2 -2 2 -4 2 -6c0 -11 -14 -16 -43 -16c-18 0 -38 3 -59 10c-2 -9 -6 -24 -13 -46c-13 -38 -19 -67 -19 -88c0 -23 7 -40 20 -51c8 -8 24 -17 46 -29
c41 -20 62 -39 62 -55c0 -6 -2 -11 -5 -18c-13 -23 -34 -35 -63 -35z" />
    <glyph glyph-name="AE" unicode="&#xc6;" horiz-adv-x="1356" 
d="M92 -29c-12 0 -22 3 -30 10s-12 15 -13 26c-1 19 -1 41 -1 64c0 78 4 166 13 264c-9 -7 -18 -14 -26 -21s-17 -11 -26 -11c-13 0 -23 4 -31 11c-8 8 -12 17 -12 27s4 19 12 26c28 26 59 47 94 63c14 118 35 233 64 343c69 267 167 435 293 504c23 13 48 20 75 20
c50 0 96 -23 139 -70c60 44 167 66 322 66c85 0 182 -8 289 -23c11 -1 20 -5 27 -12c6 -7 9 -15 9 -24c0 -11 -5 -20 -15 -27c-7 -5 -16 -8 -26 -8l-76 6c-69 7 -120 10 -152 10c-20 0 -41 -1 -64 -4c-53 -6 -91 -29 -115 -69c-29 -47 -49 -237 -62 -569l329 16
c11 0 21 -3 29 -9s12 -14 13 -25c0 -10 -4 -18 -11 -25s-17 -11 -28 -12l-333 -16c2 -106 5 -188 10 -244c7 -83 20 -147 39 -192c24 -7 55 -11 94 -11c76 0 171 11 284 34l10 1c7 0 15 -2 22 -6c11 -6 17 -16 17 -28c0 -7 -3 -14 -8 -21c-9 -14 -73 -30 -192 -46
c-58 -8 -111 -12 -157 -12c-17 0 -34 0 -51 1c-7 -1 -14 -1 -22 -1c-35 0 -70 10 -104 30c-16 7 -30 17 -43 28c-22 19 -41 57 -59 113c-26 70 -44 148 -55 235c-80 15 -156 23 -227 23c-58 0 -111 -6 -158 -18c-31 -194 -46 -319 -46 -376c0 -24 -14 -38 -41 -41zM554 460
c-6 63 -12 149 -19 259c-7 151 -18 261 -32 332c-8 45 -22 67 -41 67c-39 -3 -76 -37 -111 -103c-58 -108 -111 -290 -158 -547c46 8 94 12 146 12c72 0 144 -7 215 -20z" />
    <glyph glyph-name="OE" unicode="&#x152;" horiz-adv-x="1436" 
d="M994 -24c-134 0 -217 33 -250 99c-24 51 -44 119 -59 202c-15 -43 -33 -82 -53 -117c-70 -123 -155 -184 -255 -184c-30 0 -61 5 -94 17c-129 49 -217 154 -264 313c-26 85 -38 178 -38 279c0 113 16 222 48 326c27 91 64 161 110 208c33 35 68 52 105 52
c29 0 60 -9 92 -26c14 32 30 60 47 85c17 24 36 43 56 56s41 20 64 20c19 0 40 -6 61 -17c21 -12 42 -31 65 -56c22 -26 41 -57 57 -93c5 19 11 35 18 47c41 71 157 106 350 106c94 0 192 -7 296 -23c11 -1 20 -5 27 -12c6 -7 9 -15 9 -24c0 -11 -4 -20 -13 -26
c-8 -6 -18 -9 -28 -9c-133 11 -209 16 -228 16c-20 0 -41 -1 -64 -4c-53 -6 -91 -29 -115 -69c-28 -46 -48 -236 -61 -569l329 16c11 0 21 -3 29 -9c7 -6 11 -14 12 -25c0 -10 -3 -18 -10 -25s-17 -11 -28 -12l-335 -17c-2 -59 -3 -110 -3 -155l2 -227c0 -43 51 -64 153 -64
c74 0 166 11 276 34l11 1c7 0 14 -2 22 -6c11 -6 16 -16 16 -29c0 -19 -10 -30 -30 -34c-21 -5 -45 -10 -72 -15c-94 -20 -179 -30 -255 -30zM419 79c42 0 81 33 117 99c47 87 80 234 100 440c7 74 11 140 11 197c0 213 -39 321 -118 324c-32 0 -59 -25 -82 -76
c-22 -46 -38 -108 -48 -184c-7 -49 -11 -99 -11 -152c0 -104 13 -184 40 -238c19 -41 44 -62 75 -62l23 3c8 0 16 -3 24 -8c11 -6 16 -16 16 -30c0 -26 -18 -39 -54 -39c-59 0 -108 22 -148 67c-66 73 -99 191 -99 354c0 26 1 52 3 79c-38 -97 -57 -208 -57 -333
c0 -180 41 -312 123 -396c30 -30 58 -44 85 -45z" />
    <glyph glyph-name="Ccedilla" unicode="&#xc7;" horiz-adv-x="877" 
d="M420 -588c-24 0 -47 5 -69 15c-41 18 -73 48 -96 91c0 1 -1 4 -2 8c-1 3 -1 7 -1 10v9c1 4 3 9 8 15c4 6 11 11 22 14c8 3 14 4 20 4c16 0 31 -11 45 -34c19 -25 36 -38 52 -38c25 0 46 24 63 71c12 34 18 69 18 106c0 38 -7 67 -22 88c-11 13 -23 20 -38 20
c-17 0 -33 -14 -50 -43c-10 -18 -28 -27 -51 -27c-15 0 -27 6 -35 16c-6 8 -9 38 -9 91c0 61 5 115 15 161c-133 53 -223 161 -271 323c-21 72 -32 150 -32 236c0 162 34 311 101 447c43 87 98 157 165 210c69 55 140 83 212 83c56 0 104 -19 145 -57c42 -38 70 -96 86 -175
c5 -28 7 -55 7 -80c0 -21 -1 -45 -3 -72c-7 -72 -16 -115 -27 -127c-10 -10 -22 -14 -37 -14c-14 0 -27 4 -39 12c-13 9 -19 20 -19 35l1 9c5 24 8 48 9 72c0 24 -2 47 -7 69c-11 47 -29 80 -55 101c-17 14 -35 21 -54 21c-14 0 -30 -5 -47 -13c-43 -20 -82 -63 -117 -128
c-36 -65 -63 -143 -80 -233c-12 -64 -19 -127 -19 -190c0 -76 9 -145 28 -206c23 -79 56 -135 99 -166c27 -21 56 -31 89 -31c47 0 96 20 146 61c39 31 73 67 102 108c29 42 50 81 64 119c5 16 18 24 37 24c11 0 20 -4 26 -11c7 -7 10 -14 10 -22c0 -13 -13 -49 -39 -108
c-66 -151 -148 -250 -244 -297c-35 -17 -68 -26 -100 -26c-4 -19 -6 -43 -7 -72c12 3 25 4 37 4c36 0 68 -10 95 -30s48 -43 63 -69c23 -39 35 -82 35 -128c0 -14 -2 -31 -5 -52s-10 -45 -22 -71c-13 -27 -29 -50 -49 -70s-43 -36 -69 -47s-54 -16 -85 -16z" />
    <glyph glyph-name="Cacute" unicode="&#x106;" horiz-adv-x="877" 
d="M412 -38c-55 0 -113 17 -174 51c-105 58 -179 158 -220 299c-22 73 -32 154 -32 243c0 56 5 114 16 174c16 96 45 185 85 266c43 87 98 157 165 210c69 55 140 83 212 83c56 0 104 -19 145 -57c42 -38 70 -96 86 -175c4 -26 7 -56 7 -91c0 -17 -1 -39 -4 -64
c-6 -70 -15 -112 -26 -124c-10 -10 -22 -14 -37 -14c-14 0 -27 4 -39 12c-13 9 -19 20 -19 34l1 10c5 24 8 48 9 72c0 24 -2 47 -7 69c-11 47 -29 80 -55 101c-16 13 -35 20 -56 20c-14 0 -29 -4 -46 -12c-42 -20 -81 -62 -116 -128c-36 -65 -63 -143 -80 -233
c-12 -64 -19 -127 -19 -190c0 -76 9 -145 28 -206c23 -79 56 -135 99 -166c27 -21 57 -31 89 -31c47 0 96 20 146 61c39 31 73 67 102 108c29 42 50 81 64 119c5 16 18 24 37 24c11 0 19 -3 26 -10c6 -7 10 -15 10 -24c0 -12 -13 -48 -39 -107c-29 -67 -63 -126 -103 -177
c-75 -97 -160 -146 -255 -147zM422 1361c-27 0 -51 9 -69 27c-9 8 -14 15 -14 20c0 2 2 4 4 4c20 4 39 21 57 52c10 18 26 50 47 98c28 68 52 111 72 128c15 11 31 16 48 16c23 0 44 -8 62 -24c19 -15 28 -35 28 -58s-7 -49 -20 -79c-25 -54 -62 -100 -110 -137
c-40 -31 -75 -47 -105 -47z" />
    <glyph glyph-name="Ccircumflex" unicode="&#x108;" horiz-adv-x="877" 
d="M412 -38c-55 0 -113 17 -174 51c-105 58 -179 158 -220 299c-22 73 -32 154 -32 243c0 56 5 114 16 174c16 96 45 185 85 266c43 87 98 157 165 210c69 55 140 83 212 83c56 0 104 -19 145 -57c42 -38 70 -96 86 -175c4 -26 7 -56 7 -91c0 -17 -1 -39 -4 -64
c-6 -70 -15 -112 -26 -124c-10 -10 -22 -14 -37 -14c-14 0 -27 4 -39 12c-13 9 -19 20 -19 34l1 10c5 24 8 48 9 72c0 24 -2 47 -7 69c-11 47 -29 80 -55 101c-16 13 -35 20 -56 20c-14 0 -29 -4 -46 -12c-42 -20 -81 -62 -116 -128c-36 -65 -63 -143 -80 -233
c-12 -64 -19 -127 -19 -190c0 -76 9 -145 28 -206c23 -79 56 -135 99 -166c27 -21 57 -31 89 -31c47 0 96 20 146 61c39 31 73 67 102 108c29 42 50 81 64 119c5 16 18 24 37 24c11 0 19 -3 26 -10c6 -7 10 -15 10 -24c0 -12 -13 -48 -39 -107c-29 -67 -63 -126 -103 -177
c-75 -97 -160 -146 -255 -147zM633 1340h-17c-65 9 -117 69 -158 181l-78 -158c-8 -15 -20 -23 -38 -23c-7 0 -13 1 -19 4c-16 9 -24 22 -24 39c0 6 31 71 92 195c15 31 41 46 77 46c23 0 46 -3 69 -8c7 -1 21 -36 41 -103c26 -87 47 -138 63 -152c5 -4 8 -8 8 -11
c0 -5 -6 -8 -16 -10z" />
    <glyph glyph-name="Ccaron" unicode="&#x10c;" horiz-adv-x="877" 
d="M412 -38c-55 0 -113 17 -174 51c-105 58 -179 158 -220 299c-22 73 -32 154 -32 243c0 56 5 114 16 174c16 96 45 185 85 266c43 87 98 157 165 210c69 55 140 83 212 83c56 0 104 -19 145 -57c42 -38 70 -96 86 -175c4 -26 7 -56 7 -91c0 -17 -1 -39 -4 -64
c-6 -70 -15 -112 -26 -124c-10 -10 -22 -14 -37 -14c-14 0 -27 4 -39 12c-13 9 -19 20 -19 34l1 10c5 24 8 48 9 72c0 24 -2 47 -7 69c-11 47 -29 80 -55 101c-16 13 -35 20 -56 20c-14 0 -29 -4 -46 -12c-42 -20 -81 -62 -116 -128c-36 -65 -63 -143 -80 -233
c-12 -64 -19 -127 -19 -190c0 -76 9 -145 28 -206c23 -79 56 -135 99 -166c27 -21 57 -31 89 -31c47 0 96 20 146 61c39 31 73 67 102 108c29 42 50 81 64 119c5 16 18 24 37 24c11 0 19 -3 26 -10c6 -7 10 -15 10 -24c0 -12 -13 -48 -39 -107c-29 -67 -63 -126 -103 -177
c-75 -97 -160 -146 -255 -147zM422 1364c-45 0 -70 7 -77 23c-4 9 -21 60 -50 153c-16 46 -30 76 -43 87c-5 4 -8 8 -8 11c0 5 6 8 16 10c18 0 35 -3 52 -10c48 -22 89 -79 123 -171l78 158c8 15 20 23 38 23c6 0 13 -1 19 -4c16 -9 24 -22 24 -39c0 -6 -31 -71 -92 -195
c-16 -31 -43 -46 -80 -46z" />
    <glyph glyph-name="Egrave" unicode="&#xc8;" horiz-adv-x="758" 
d="M347 -37h-17c-133 0 -216 33 -249 98c-43 89 -71 229 -85 421c-7 82 -10 162 -10 240c0 88 4 171 12 250c10 95 24 161 43 198c40 71 158 107 354 107c80 -1 155 -6 223 -14c52 -7 81 -12 88 -16c11 -8 16 -17 16 -28c0 -8 -2 -15 -7 -21c-9 -11 -22 -16 -37 -16
c-25 2 -49 4 -72 7c-80 6 -133 9 -160 9c-32 0 -62 -3 -87 -10c-42 -12 -72 -37 -90 -74c-25 -51 -44 -237 -56 -557l329 17c15 0 27 -5 35 -16c4 -5 6 -13 6 -21c0 -6 -1 -11 -4 -16s-8 -9 -14 -12s-13 -5 -20 -6l-334 -17c-2 -59 -3 -110 -3 -155l2 -226
c0 -43 50 -64 149 -64c72 0 165 11 279 34l11 1c10 0 19 -3 27 -10c7 -7 11 -15 11 -24c0 -18 -10 -30 -31 -35c-20 -5 -40 -9 -60 -13c-86 -19 -168 -29 -249 -31zM434 1346c-30 0 -65 16 -104 47c-50 39 -87 85 -110 137c-14 30 -20 58 -20 81c0 22 9 40 27 56
s39 24 63 24c29 0 53 -16 73 -47c10 -16 25 -49 47 -97c15 -37 31 -70 48 -98c17 -31 36 -48 56 -52c2 0 3 -2 3 -4c-4 -14 -17 -26 -37 -36c-13 -7 -28 -11 -46 -11z" />
    <glyph glyph-name="Eacute" unicode="&#xc9;" horiz-adv-x="758" 
d="M347 -37h-17c-133 0 -216 33 -249 98c-43 89 -71 229 -85 421c-7 82 -10 162 -10 240c0 88 4 171 12 250c10 95 24 161 43 198c40 71 158 107 354 107c80 -1 155 -6 223 -14c52 -7 81 -12 88 -16c11 -8 16 -17 16 -28c0 -8 -2 -15 -7 -21c-9 -11 -22 -16 -37 -16
c-25 2 -49 4 -72 7c-80 6 -133 9 -160 9c-32 0 -62 -3 -87 -10c-42 -12 -72 -37 -90 -74c-25 -51 -44 -237 -56 -557l329 17c15 0 27 -5 35 -16c4 -5 6 -13 6 -21c0 -6 -1 -11 -4 -16s-8 -9 -14 -12s-13 -5 -20 -6l-334 -17c-2 -59 -3 -110 -3 -155l2 -226
c0 -43 50 -64 149 -64c72 0 165 11 279 34l11 1c10 0 19 -3 27 -10c7 -7 11 -15 11 -24c0 -18 -10 -30 -31 -35c-20 -5 -40 -9 -60 -13c-86 -19 -168 -29 -249 -31zM346 1361c-27 0 -51 9 -69 27c-9 8 -14 15 -14 20c0 2 2 4 4 4c20 4 39 21 57 52c10 18 26 50 47 98
c28 68 52 111 72 128c15 11 31 16 48 16c23 0 44 -8 62 -24c19 -15 28 -35 28 -58s-7 -49 -20 -79c-25 -54 -62 -100 -110 -137c-40 -31 -75 -47 -105 -47z" />
    <glyph glyph-name="Ecircumflex" unicode="&#xca;" horiz-adv-x="758" 
d="M347 -37h-17c-133 0 -216 33 -249 98c-43 89 -71 229 -85 421c-7 82 -10 162 -10 240c0 88 4 171 12 250c10 95 24 161 43 198c40 71 158 107 354 107c80 -1 155 -6 223 -14c52 -7 81 -12 88 -16c11 -8 16 -17 16 -28c0 -8 -2 -15 -7 -21c-9 -11 -22 -16 -37 -16
c-25 2 -49 4 -72 7c-80 6 -133 9 -160 9c-32 0 -62 -3 -87 -10c-42 -12 -72 -37 -90 -74c-25 -51 -44 -237 -56 -557l329 17c15 0 27 -5 35 -16c4 -5 6 -13 6 -21c0 -6 -1 -11 -4 -16s-8 -9 -14 -12s-13 -5 -20 -6l-334 -17c-2 -59 -3 -110 -3 -155l2 -226
c0 -43 50 -64 149 -64c72 0 165 11 279 34l11 1c10 0 19 -3 27 -10c7 -7 11 -15 11 -24c0 -18 -10 -30 -31 -35c-20 -5 -40 -9 -60 -13c-86 -19 -168 -29 -249 -31zM553 1340h-17c-65 9 -117 69 -158 181l-78 -158c-8 -15 -20 -23 -38 -23c-7 0 -13 1 -19 4
c-16 9 -24 22 -24 39c0 6 31 71 92 195c15 31 41 46 77 46c23 0 46 -3 69 -8c7 -1 21 -36 41 -103c26 -87 47 -138 63 -152c5 -4 8 -8 8 -11c0 -5 -6 -8 -16 -10z" />
    <glyph glyph-name="Edieresis" unicode="&#xcb;" horiz-adv-x="758" 
d="M347 -37h-17c-133 0 -216 33 -249 98c-43 89 -71 229 -85 421c-7 82 -10 162 -10 240c0 88 4 171 12 250c10 95 24 161 43 198c40 71 158 107 354 107c80 -1 155 -6 223 -14c52 -7 81 -12 88 -16c11 -8 16 -17 16 -28c0 -8 -2 -15 -7 -21c-9 -11 -22 -16 -37 -16
c-25 2 -49 4 -72 7c-80 6 -133 9 -160 9c-32 0 -62 -3 -87 -10c-42 -12 -72 -37 -90 -74c-25 -51 -44 -237 -56 -557l329 17c15 0 27 -5 35 -16c4 -5 6 -13 6 -21c0 -6 -1 -11 -4 -16s-8 -9 -14 -12s-13 -5 -20 -6l-334 -17c-2 -59 -3 -110 -3 -155l2 -226
c0 -43 50 -64 149 -64c72 0 165 11 279 34l11 1c10 0 19 -3 27 -10c7 -7 11 -15 11 -24c0 -18 -10 -30 -31 -35c-20 -5 -40 -9 -60 -13c-86 -19 -168 -29 -249 -31zM252 1359c-12 0 -26 3 -40 8c-34 11 -59 33 -75 64c-9 20 -14 38 -14 55c0 26 10 47 30 64
c21 16 46 24 76 24c35 0 64 -13 85 -38c16 -19 24 -47 24 -83c0 -35 -10 -61 -31 -77c-15 -11 -33 -17 -55 -17zM521 1359c-12 0 -26 3 -40 8c-34 11 -59 33 -75 64c-9 20 -14 38 -14 55c0 26 10 47 30 64c21 16 46 24 76 24c35 0 64 -13 85 -38c16 -19 24 -47 24 -83
c0 -35 -10 -61 -31 -77c-15 -11 -33 -17 -55 -17z" />
    <glyph glyph-name="Emacron" unicode="&#x112;" horiz-adv-x="758" 
d="M347 -37h-17c-133 0 -216 33 -249 98c-43 89 -71 229 -85 421c-7 82 -10 162 -10 240c0 88 4 171 12 250c10 95 24 161 43 198c40 71 158 107 354 107c80 -1 155 -6 223 -14c52 -7 81 -12 88 -16c11 -8 16 -17 16 -28c0 -8 -2 -15 -7 -21c-9 -11 -22 -16 -37 -16
c-25 2 -49 4 -72 7c-80 6 -133 9 -160 9c-32 0 -62 -3 -87 -10c-42 -12 -72 -37 -90 -74c-25 -51 -44 -237 -56 -557l329 17c15 0 27 -5 35 -16c4 -5 6 -13 6 -21c0 -6 -1 -11 -4 -16s-8 -9 -14 -12s-13 -5 -20 -6l-334 -17c-2 -59 -3 -110 -3 -155l2 -226
c0 -43 50 -64 149 -64c72 0 165 11 279 34l11 1c10 0 19 -3 27 -10c7 -7 11 -15 11 -24c0 -18 -10 -30 -31 -35c-20 -5 -40 -9 -60 -13c-86 -19 -168 -29 -249 -31zM506 1351l-237 4c-9 0 -17 3 -24 7c-8 4 -13 10 -17 17c-4 8 -6 16 -6 25c0 13 5 24 14 33s20 13 33 14
l238 -4c19 -1 32 -9 41 -24c4 -8 6 -16 6 -25s-2 -17 -7 -24c-4 -7 -10 -12 -17 -17c-7 -4 -15 -6 -24 -6z" />
    <glyph glyph-name="Ecaron" unicode="&#x11a;" horiz-adv-x="758" 
d="M347 -37h-17c-133 0 -216 33 -249 98c-43 89 -71 229 -85 421c-7 82 -10 162 -10 240c0 88 4 171 12 250c10 95 24 161 43 198c40 71 158 107 354 107c80 -1 155 -6 223 -14c52 -7 81 -12 88 -16c11 -8 16 -17 16 -28c0 -8 -2 -15 -7 -21c-9 -11 -22 -16 -37 -16
c-25 2 -49 4 -72 7c-80 6 -133 9 -160 9c-32 0 -62 -3 -87 -10c-42 -12 -72 -37 -90 -74c-25 -51 -44 -237 -56 -557l329 17c15 0 27 -5 35 -16c4 -5 6 -13 6 -21c0 -6 -1 -11 -4 -16s-8 -9 -14 -12s-13 -5 -20 -6l-334 -17c-2 -59 -3 -110 -3 -155l2 -226
c0 -43 50 -64 149 -64c72 0 165 11 279 34l11 1c10 0 19 -3 27 -10c7 -7 11 -15 11 -24c0 -18 -10 -30 -31 -35c-20 -5 -40 -9 -60 -13c-86 -19 -168 -29 -249 -31zM388 1364c-45 0 -70 7 -77 23c-4 9 -21 60 -50 153c-16 46 -30 76 -43 87c-5 4 -8 8 -8 11c0 5 6 8 16 10
c18 0 35 -3 52 -10c48 -22 89 -79 123 -171l78 158c8 15 20 23 38 23c6 0 13 -1 19 -4c16 -9 24 -22 24 -39c0 -6 -31 -71 -92 -195c-16 -31 -43 -46 -80 -46z" />
    <glyph glyph-name="Igrave" unicode="&#xcc;" horiz-adv-x="438" 
d="M367 -38h-432c-7 0 -13 2 -18 5s-9 8 -12 13s-5 10 -5 17c0 6 2 12 5 17s7 9 12 12s11 5 18 5h147c-14 45 -24 125 -31 240c-6 101 -9 207 -9 318v84c0 41 1 92 3 153s5 118 9 170c3 52 8 97 14 134c5 37 12 65 19 82h-111c-7 0 -14 2 -20 5s-11 8 -14 14s-5 12 -5 19
s2 13 5 19s8 11 14 14s13 5 20 5h398c7 0 14 -2 20 -5s11 -8 15 -14c3 -6 5 -12 5 -19s-2 -13 -5 -19c-4 -6 -9 -11 -15 -14s-13 -5 -20 -5h-44c1 -6 1 -12 1 -19c0 -10 -2 -25 -7 -45c-30 -99 -53 -277 -67 -533c-5 -100 -8 -187 -8 -261c0 -122 5 -213 15 -273
c2 -12 4 -22 4 -32c0 -6 -1 -12 -2 -18h101c7 0 13 -2 18 -5s9 -7 12 -12s5 -11 5 -17c0 -7 -2 -12 -5 -17s-7 -10 -12 -13s-11 -5 -18 -5zM225 1369c-30 0 -65 16 -104 47c-50 39 -87 85 -110 137c-14 30 -20 58 -20 81c0 22 9 40 27 56s39 24 63 24c29 0 53 -16 73 -47
c10 -16 25 -49 47 -97c15 -37 31 -70 48 -98c17 -31 36 -48 56 -52c2 0 3 -2 3 -4c-4 -14 -17 -26 -37 -36c-13 -7 -28 -11 -46 -11z" />
    <glyph glyph-name="Iacute" unicode="&#xcd;" horiz-adv-x="438" 
d="M367 -38h-432c-7 0 -13 2 -18 5s-9 8 -12 13s-5 10 -5 17c0 6 2 12 5 17s7 9 12 12s11 5 18 5h147c-14 45 -24 125 -31 240c-6 101 -9 207 -9 318v84c0 41 1 92 3 153s5 118 9 170c3 52 8 97 14 134c5 37 12 65 19 82h-111c-7 0 -14 2 -20 5s-11 8 -14 14s-5 12 -5 19
s2 13 5 19s8 11 14 14s13 5 20 5h398c7 0 14 -2 20 -5s11 -8 15 -14c3 -6 5 -12 5 -19s-2 -13 -5 -19c-4 -6 -9 -11 -15 -14s-13 -5 -20 -5h-44c1 -6 1 -12 1 -19c0 -10 -2 -25 -7 -45c-30 -99 -53 -277 -67 -533c-5 -100 -8 -187 -8 -261c0 -122 5 -213 15 -273
c2 -12 4 -22 4 -32c0 -6 -1 -12 -2 -18h101c7 0 13 -2 18 -5s9 -7 12 -12s5 -11 5 -17c0 -7 -2 -12 -5 -17s-7 -10 -12 -13s-11 -5 -18 -5zM137 1361c-27 0 -51 9 -69 27c-9 8 -14 15 -14 20c0 2 2 4 4 4c20 4 39 21 57 52c10 18 26 50 47 98c28 68 52 111 72 128
c15 11 31 16 48 16c23 0 44 -8 62 -24c19 -15 28 -35 28 -58s-7 -49 -20 -79c-25 -54 -62 -100 -110 -137c-40 -31 -75 -47 -105 -47z" />
    <glyph glyph-name="Icircumflex" unicode="&#xce;" horiz-adv-x="438" 
d="M367 -38h-432c-7 0 -13 2 -18 5s-9 8 -12 13s-5 10 -5 17c0 6 2 12 5 17s7 9 12 12s11 5 18 5h147c-14 45 -24 125 -31 240c-6 101 -9 207 -9 318v84c0 41 1 92 3 153s5 118 9 170c3 52 8 97 14 134c5 37 12 65 19 82h-111c-7 0 -14 2 -20 5s-11 8 -14 14s-5 12 -5 19
s2 13 5 19s8 11 14 14s13 5 20 5h398c7 0 14 -2 20 -5s11 -8 15 -14c3 -6 5 -12 5 -19s-2 -13 -5 -19c-4 -6 -9 -11 -15 -14s-13 -5 -20 -5h-44c1 -6 1 -12 1 -19c0 -10 -2 -25 -7 -45c-30 -99 -53 -277 -67 -533c-5 -100 -8 -187 -8 -261c0 -122 5 -213 15 -273
c2 -12 4 -22 4 -32c0 -6 -1 -12 -2 -18h101c7 0 13 -2 18 -5s9 -7 12 -12s5 -11 5 -17c0 -7 -2 -12 -5 -17s-7 -10 -12 -13s-11 -5 -18 -5zM344 1340h-17c-65 9 -117 69 -158 181l-78 -158c-8 -15 -20 -23 -38 -23c-7 0 -13 1 -19 4c-16 9 -24 22 -24 39c0 6 31 71 92 195
c15 31 41 46 77 46c23 0 46 -3 69 -8c7 -1 21 -36 41 -103c26 -87 47 -138 63 -152c5 -4 8 -8 8 -11c0 -5 -6 -8 -16 -10z" />
    <glyph glyph-name="Idieresis" unicode="&#xcf;" horiz-adv-x="438" 
d="M367 -38h-432c-7 0 -13 2 -18 5s-9 8 -12 13s-5 10 -5 17c0 6 2 12 5 17s7 9 12 12s11 5 18 5h147c-14 45 -24 125 -31 240c-6 101 -9 207 -9 318v84c0 41 1 92 3 153s5 118 9 170c3 52 8 97 14 134c5 37 12 65 19 82h-111c-7 0 -14 2 -20 5s-11 8 -14 14s-5 12 -5 19
s2 13 5 19s8 11 14 14s13 5 20 5h398c7 0 14 -2 20 -5s11 -8 15 -14c3 -6 5 -12 5 -19s-2 -13 -5 -19c-4 -6 -9 -11 -15 -14s-13 -5 -20 -5h-44c1 -6 1 -12 1 -19c0 -10 -2 -25 -7 -45c-30 -99 -53 -277 -67 -533c-5 -100 -8 -187 -8 -261c0 -122 5 -213 15 -273
c2 -12 4 -22 4 -32c0 -6 -1 -12 -2 -18h101c7 0 13 -2 18 -5s9 -7 12 -12s5 -11 5 -17c0 -7 -2 -12 -5 -17s-7 -10 -12 -13s-11 -5 -18 -5zM84 1359c-12 0 -26 3 -40 8c-34 11 -59 33 -75 64c-9 20 -14 38 -14 55c0 26 10 47 30 64c21 16 46 24 76 24c35 0 64 -13 85 -38
c16 -19 24 -47 24 -83c0 -35 -10 -61 -31 -77c-15 -11 -33 -17 -55 -17zM353 1359c-12 0 -26 3 -40 8c-34 11 -59 33 -75 64c-9 20 -14 38 -14 55c0 26 10 47 30 64c21 16 46 24 76 24c35 0 64 -13 85 -38c16 -19 24 -47 24 -83c0 -35 -10 -61 -31 -77
c-15 -11 -33 -17 -55 -17z" />
    <glyph glyph-name="Imacron" unicode="&#x12a;" horiz-adv-x="438" 
d="M367 -38h-432c-7 0 -13 2 -18 5s-9 8 -12 13s-5 10 -5 17c0 6 2 12 5 17s7 9 12 12s11 5 18 5h147c-14 45 -24 125 -31 240c-6 101 -9 207 -9 318v84c0 41 1 92 3 153s5 118 9 170c3 52 8 97 14 134c5 37 12 65 19 82h-111c-7 0 -14 2 -20 5s-11 8 -14 14s-5 12 -5 19
s2 13 5 19s8 11 14 14s13 5 20 5h398c7 0 14 -2 20 -5s11 -8 15 -14c3 -6 5 -12 5 -19s-2 -13 -5 -19c-4 -6 -9 -11 -15 -14s-13 -5 -20 -5h-44c1 -6 1 -12 1 -19c0 -10 -2 -25 -7 -45c-30 -99 -53 -277 -67 -533c-5 -100 -8 -187 -8 -261c0 -122 5 -213 15 -273
c2 -12 4 -22 4 -32c0 -6 -1 -12 -2 -18h101c7 0 13 -2 18 -5s9 -7 12 -12s5 -11 5 -17c0 -7 -2 -12 -5 -17s-7 -10 -12 -13s-11 -5 -18 -5zM323 1374l-237 4c-9 0 -17 3 -24 7c-8 4 -13 10 -17 17c-4 8 -6 16 -6 25c0 13 5 24 14 33s20 13 33 14l238 -4c19 -1 32 -9 41 -24
c4 -8 6 -16 6 -25s-2 -17 -7 -24c-4 -7 -10 -12 -17 -17c-7 -4 -15 -6 -24 -6z" />
    <glyph glyph-name="Eth" unicode="&#xd0;" horiz-adv-x="910" 
d="M83 103c67 50 138 133 211 250c45 73 85 148 120 227c61 138 91 254 91 347c0 25 -2 48 -7 71c-5 22 -14 42 -27 59c-14 17 -32 30 -55 38c-7 2 -14 3 -21 3c-29 0 -62 -16 -99 -47c-68 -57 -129 -135 -183 -233c-5 -57 -9 -113 -12 -167c17 0 34 -1 52 -1
c18 -1 31 -9 40 -24c4 -7 6 -16 6 -25s-2 -16 -6 -23c-5 -7 -11 -13 -18 -17c-7 -5 -15 -7 -24 -7l-56 1c-8 -146 -12 -297 -12 -452zM25 -48c-13 0 -25 2 -38 6c-25 8 -45 34 -60 77c-41 109 -61 283 -62 522l-80 1c-9 0 -17 2 -24 7s-13 11 -17 18s-6 15 -6 24
c0 13 5 24 14 33s20 13 33 14l81 -1c2 135 11 255 26 359c11 83 26 139 43 170c12 20 32 36 61 47c23 9 46 14 67 14c37 0 65 -12 82 -35c9 -12 13 -27 13 -45c0 -13 -2 -28 -7 -45c-3 -11 -7 -26 -10 -45c90 135 196 203 319 204c85 0 150 -34 197 -103
c35 -54 54 -123 55 -208c0 -118 -32 -249 -97 -393c-86 -192 -197 -346 -331 -463c-66 -57 -131 -94 -194 -111c-1 -12 -5 -21 -12 -28c-13 -13 -30 -19 -53 -19z" />
    <glyph glyph-name="Ntilde" unicode="&#xd1;" horiz-adv-x="968" 
d="M777 -36c-116 0 -174 167 -174 502c0 112 8 249 25 412c2 27 12 102 28 226c-79 -50 -149 -148 -211 -292c-60 -139 -110 -317 -149 -535c-13 -71 -23 -138 -30 -202c-6 -48 -9 -75 -9 -81c-1 -17 -18 -25 -50 -25c-16 0 -32 2 -49 6c-24 5 -41 10 -50 17
c-29 21 -53 68 -71 140c-30 119 -45 283 -45 493v74c1 33 2 74 5 122c3 47 6 93 10 136s9 82 15 117c5 35 11 66 18 92s14 46 21 59s18 24 32 33c13 9 29 16 46 21s33 7 50 7c34 0 60 -10 78 -29c13 -13 19 -30 19 -51c0 -13 -2 -27 -7 -44c-12 -44 -22 -146 -31 -308
c-9 -161 -14 -316 -15 -465c99 461 243 743 431 845c46 25 93 38 139 38c59 0 88 -31 88 -93c0 -10 0 -21 -2 -32c-40 -327 -60 -606 -60 -837c0 -123 8 -213 23 -271c1 -4 2 -9 2 -13c0 -9 -3 -18 -10 -28c-6 -10 -14 -18 -23 -25c-9 -6 -24 -9 -44 -9zM223 1366
c-16 0 -27 7 -34 20c-4 7 -6 14 -6 22l1 10c12 54 41 88 86 105c23 8 52 12 84 12c31 0 83 -5 157 -15c63 -10 111 -14 144 -15c53 0 83 15 91 43c6 22 17 33 32 33c17 -2 32 -13 44 -33c10 -17 14 -34 14 -52c0 -42 -21 -77 -65 -106c-21 -14 -49 -21 -82 -21
c-12 0 -28 1 -46 4c-19 2 -41 6 -67 12s-52 12 -79 19c-21 6 -43 12 -64 17s-41 9 -60 12s-36 4 -51 4c-33 -1 -54 -13 -62 -36c-6 -23 -18 -35 -37 -35z" />
    <glyph glyph-name="Ograve" unicode="&#xd2;" horiz-adv-x="855" 
d="M386 -39c-30 0 -61 6 -93 18c-141 52 -233 172 -277 361c-17 71 -25 147 -25 226c0 143 23 274 70 392c27 69 60 121 99 156c29 27 61 40 97 40c26 0 56 -8 88 -26c46 107 103 161 170 161c18 0 38 -6 58 -17c49 -28 89 -77 122 -147c49 -106 73 -246 73 -419
c0 -92 -10 -187 -30 -286s-51 -187 -92 -264s-90 -132 -148 -165c-35 -20 -72 -29 -112 -30zM430 65c28 0 55 15 80 46c33 40 60 99 83 177c41 176 62 351 62 526c0 63 -5 119 -14 168c-18 94 -53 141 -105 141c-28 0 -53 -21 -74 -63c-21 -41 -37 -94 -48 -159
c-11 -56 -16 -115 -16 -175c0 -125 15 -213 45 -264c18 -33 41 -49 69 -49c5 0 10 0 14 1c3 1 7 1 10 1c11 0 20 -4 29 -13c7 -7 10 -15 10 -25c0 -11 -5 -20 -15 -29c-8 -7 -20 -10 -37 -10c-52 0 -95 16 -131 48c-73 63 -112 177 -118 343c0 43 1 79 3 108
c-38 -96 -57 -208 -57 -335c0 -78 9 -148 27 -212c21 -76 53 -136 96 -180c29 -30 58 -45 87 -45zM443 1346c-30 0 -65 16 -104 47c-50 39 -87 85 -110 137c-14 30 -20 58 -20 81c0 22 9 40 27 56s39 24 63 24c29 0 53 -16 73 -47c10 -16 25 -49 47 -97
c15 -37 31 -70 48 -98c17 -31 36 -48 56 -52c2 0 3 -2 3 -4c-4 -14 -17 -26 -37 -36c-13 -7 -28 -11 -46 -11z" />
    <glyph glyph-name="Oacute" unicode="&#xd3;" horiz-adv-x="855" 
d="M386 -39c-30 0 -61 6 -93 18c-141 52 -233 172 -277 361c-17 71 -25 147 -25 226c0 143 23 274 70 392c27 69 60 121 99 156c29 27 61 40 97 40c26 0 56 -8 88 -26c46 107 103 161 170 161c18 0 38 -6 58 -17c49 -28 89 -77 122 -147c49 -106 73 -246 73 -419
c0 -92 -10 -187 -30 -286s-51 -187 -92 -264s-90 -132 -148 -165c-35 -20 -72 -29 -112 -30zM430 65c28 0 55 15 80 46c33 40 60 99 83 177c41 176 62 351 62 526c0 63 -5 119 -14 168c-18 94 -53 141 -105 141c-28 0 -53 -21 -74 -63c-21 -41 -37 -94 -48 -159
c-11 -56 -16 -115 -16 -175c0 -125 15 -213 45 -264c18 -33 41 -49 69 -49c5 0 10 0 14 1c3 1 7 1 10 1c11 0 20 -4 29 -13c7 -7 10 -15 10 -25c0 -11 -5 -20 -15 -29c-8 -7 -20 -10 -37 -10c-52 0 -95 16 -131 48c-73 63 -112 177 -118 343c0 43 1 79 3 108
c-38 -96 -57 -208 -57 -335c0 -78 9 -148 27 -212c21 -76 53 -136 96 -180c29 -30 58 -45 87 -45zM378 1353c-27 0 -51 9 -69 27c-9 8 -14 15 -14 20c0 2 2 4 4 4c20 4 39 21 57 52c10 18 26 50 47 98c28 68 52 111 72 128c15 11 31 16 48 16c23 0 44 -8 62 -24
c19 -15 28 -35 28 -58s-7 -49 -20 -79c-25 -54 -62 -100 -110 -137c-40 -31 -75 -47 -105 -47z" />
    <glyph glyph-name="Ocircumflex" unicode="&#xd4;" horiz-adv-x="855" 
d="M386 -39c-30 0 -61 6 -93 18c-141 52 -233 172 -277 361c-17 71 -25 147 -25 226c0 143 23 274 70 392c27 69 60 121 99 156c29 27 61 40 97 40c26 0 56 -8 88 -26c46 107 103 161 170 161c18 0 38 -6 58 -17c49 -28 89 -77 122 -147c49 -106 73 -246 73 -419
c0 -92 -10 -187 -30 -286s-51 -187 -92 -264s-90 -132 -148 -165c-35 -20 -72 -29 -112 -30zM430 65c28 0 55 15 80 46c33 40 60 99 83 177c41 176 62 351 62 526c0 63 -5 119 -14 168c-18 94 -53 141 -105 141c-28 0 -53 -21 -74 -63c-21 -41 -37 -94 -48 -159
c-11 -56 -16 -115 -16 -175c0 -125 15 -213 45 -264c18 -33 41 -49 69 -49c5 0 10 0 14 1c3 1 7 1 10 1c11 0 20 -4 29 -13c7 -7 10 -15 10 -25c0 -11 -5 -20 -15 -29c-8 -7 -20 -10 -37 -10c-52 0 -95 16 -131 48c-73 63 -112 177 -118 343c0 43 1 79 3 108
c-38 -96 -57 -208 -57 -335c0 -78 9 -148 27 -212c21 -76 53 -136 96 -180c29 -30 58 -45 87 -45zM607 1336h-17c-65 9 -117 69 -158 181l-78 -158c-8 -15 -20 -23 -38 -23c-7 0 -13 1 -19 4c-16 9 -24 22 -24 39c0 6 31 71 92 195c15 31 41 46 77 46c23 0 46 -3 69 -8
c7 -1 21 -36 41 -103c26 -87 47 -138 63 -152c5 -4 8 -8 8 -11c0 -5 -6 -8 -16 -10z" />
    <glyph glyph-name="Otilde" unicode="&#xd5;" horiz-adv-x="855" 
d="M386 -39c-30 0 -61 6 -93 18c-141 52 -233 172 -277 361c-17 71 -25 147 -25 226c0 143 23 274 70 392c27 69 60 121 99 156c29 27 61 40 97 40c26 0 56 -8 88 -26c46 107 103 161 170 161c18 0 38 -6 58 -17c49 -28 89 -77 122 -147c49 -106 73 -246 73 -419
c0 -92 -10 -187 -30 -286s-51 -187 -92 -264s-90 -132 -148 -165c-35 -20 -72 -29 -112 -30zM430 65c28 0 55 15 80 46c33 40 60 99 83 177c41 176 62 351 62 526c0 63 -5 119 -14 168c-18 94 -53 141 -105 141c-28 0 -53 -21 -74 -63c-21 -41 -37 -94 -48 -159
c-11 -56 -16 -115 -16 -175c0 -125 15 -213 45 -264c18 -33 41 -49 69 -49c5 0 10 0 14 1c3 1 7 1 10 1c11 0 20 -4 29 -13c7 -7 10 -15 10 -25c0 -11 -5 -20 -15 -29c-8 -7 -20 -10 -37 -10c-52 0 -95 16 -131 48c-73 63 -112 177 -118 343c0 43 1 79 3 108
c-38 -96 -57 -208 -57 -335c0 -78 9 -148 27 -212c21 -76 53 -136 96 -180c29 -30 58 -45 87 -45zM133 1355c-16 0 -27 7 -34 20c-4 7 -6 14 -6 22l1 10c12 54 41 88 86 105c23 8 52 12 84 12c31 0 83 -5 157 -15c63 -10 111 -14 144 -15c53 0 83 15 91 43c6 22 17 33 32 33
c17 -2 32 -13 44 -33c10 -17 14 -34 14 -52c0 -42 -21 -77 -65 -106c-21 -14 -49 -21 -82 -21c-12 0 -28 1 -46 4c-19 2 -41 6 -67 12s-52 12 -79 19c-21 6 -43 12 -64 17s-41 9 -60 12s-36 4 -51 4c-33 -1 -54 -13 -62 -36c-6 -23 -18 -35 -37 -35z" />
    <glyph glyph-name="Odieresis" unicode="&#xd6;" horiz-adv-x="855" 
d="M386 -39c-30 0 -61 6 -93 18c-141 52 -233 172 -277 361c-17 71 -25 147 -25 226c0 143 23 274 70 392c27 69 60 121 99 156c29 27 61 40 97 40c26 0 56 -8 88 -26c46 107 103 161 170 161c18 0 38 -6 58 -17c49 -28 89 -77 122 -147c49 -106 73 -246 73 -419
c0 -92 -10 -187 -30 -286s-51 -187 -92 -264s-90 -132 -148 -165c-35 -20 -72 -29 -112 -30zM430 65c28 0 55 15 80 46c33 40 60 99 83 177c41 176 62 351 62 526c0 63 -5 119 -14 168c-18 94 -53 141 -105 141c-28 0 -53 -21 -74 -63c-21 -41 -37 -94 -48 -159
c-11 -56 -16 -115 -16 -175c0 -125 15 -213 45 -264c18 -33 41 -49 69 -49c5 0 10 0 14 1c3 1 7 1 10 1c11 0 20 -4 29 -13c7 -7 10 -15 10 -25c0 -11 -5 -20 -15 -29c-8 -7 -20 -10 -37 -10c-52 0 -95 16 -131 48c-73 63 -112 177 -118 343c0 43 1 79 3 108
c-38 -96 -57 -208 -57 -335c0 -78 9 -148 27 -212c21 -76 53 -136 96 -180c29 -30 58 -45 87 -45zM302 1359c-12 0 -26 3 -40 8c-34 11 -59 33 -75 64c-9 20 -14 38 -14 55c0 26 10 47 30 64c21 16 46 24 76 24c35 0 64 -13 85 -38c16 -19 24 -47 24 -83
c0 -35 -10 -61 -31 -77c-15 -11 -33 -17 -55 -17zM571 1359c-12 0 -26 3 -40 8c-34 11 -59 33 -75 64c-9 20 -14 38 -14 55c0 26 10 47 30 64c21 16 46 24 76 24c35 0 64 -13 85 -38c16 -19 24 -47 24 -83c0 -35 -10 -61 -31 -77c-15 -11 -33 -17 -55 -17z" />
    <glyph glyph-name="multiply" unicode="&#xd7;" horiz-adv-x="797" 
d="M139 190c-4 0 -10 1 -17 4c-17 5 -33 17 -48 34c-15 18 -22 41 -22 70c0 71 40 171 121 300c-76 58 -132 113 -167 164c-23 33 -34 60 -34 83c0 34 12 62 35 83c8 7 14 11 19 11c2 0 3 -2 3 -4c0 -9 5 -20 14 -33c32 -47 107 -102 225 -165c60 79 112 139 156 181
c24 23 50 34 79 34c16 0 31 -3 44 -9c13 -7 23 -16 30 -27c7 -12 10 -25 10 -39v-15c-1 -9 -7 -24 -18 -43c-34 -54 -78 -111 -130 -173c105 -56 177 -99 218 -129c30 -23 44 -48 44 -74c0 -16 -4 -30 -14 -43c-18 -26 -46 -38 -83 -38c-43 0 -139 45 -288 137
c-26 -31 -50 -62 -72 -91c-68 -89 -102 -154 -102 -196c0 -7 1 -13 3 -18c0 -2 -2 -3 -6 -4z" />
    <glyph glyph-name="Oslash" unicode="&#xd8;" horiz-adv-x="855" 
d="M401 661l138 462c-28 0 -54 -21 -75 -64c-21 -40 -37 -93 -48 -158c-11 -58 -16 -116 -16 -175c0 -26 0 -47 1 -65zM433 65c45 0 86 40 124 120c21 44 39 105 55 181c29 142 44 282 46 421c0 36 -1 71 -3 104c-3 33 -7 63 -12 91c-5 27 -12 52 -21 73c-1 1 -2 3 -3 5
l-177 -594l3 -4c18 -33 41 -49 69 -49c5 0 9 0 13 1c4 0 8 1 11 1c11 0 20 -4 29 -13c6 -6 10 -15 10 -25c0 -11 -5 -20 -15 -29c-7 -6 -20 -10 -37 -10c-43 0 -80 11 -112 33l-75 -253c31 -35 62 -53 95 -53zM271 226l68 228c-42 78 -63 181 -63 311c0 24 1 48 3 72
c-38 -96 -57 -207 -57 -335c0 -108 16 -200 49 -276zM241 -90c-20 0 -34 8 -42 26c-4 7 -6 14 -6 22c0 5 6 27 17 65c-35 23 -67 55 -96 96c-44 59 -76 133 -96 221c-17 71 -25 147 -25 226c0 143 23 274 70 392c27 69 60 121 99 156c29 27 61 40 97 40c26 0 56 -8 88 -26
c46 107 103 161 170 161c24 0 45 -7 65 -22c6 20 12 41 19 63c6 21 21 32 44 32c14 0 26 -5 35 -15s13 -20 13 -32c0 -5 -11 -46 -34 -123c33 -47 59 -108 79 -184c21 -84 32 -179 33 -285c0 -51 -3 -101 -8 -152c-17 -165 -55 -303 -114 -413c-42 -79 -91 -134 -149 -167
c-35 -20 -72 -29 -112 -30c-29 0 -60 6 -92 18l-10 -35c-3 -9 -7 -16 -13 -21c-10 -9 -20 -13 -32 -13z" />
    <glyph glyph-name="Racute" unicode="&#x154;" horiz-adv-x="885" 
d="M144 -40c-15 0 -29 3 -42 9c-21 8 -40 35 -56 83c-20 58 -34 138 -42 241c-8 85 -12 177 -12 275c0 198 9 361 27 490c12 85 26 143 42 172c12 21 32 36 60 46c20 7 39 11 56 11c22 0 42 -5 61 -15c23 -13 35 -34 38 -64c0 -19 -2 -37 -7 -54c-6 -21 -12 -57 -18 -108
c70 122 150 197 239 226c39 12 74 18 107 18c61 -1 110 -19 148 -53c41 -36 61 -84 61 -144v-27c0 -16 -5 -41 -14 -74c-26 -92 -81 -198 -164 -318c-92 -131 -196 -252 -312 -365c81 -153 163 -229 247 -229c35 0 70 15 105 46c21 21 43 48 65 79c8 11 19 16 32 16
c9 0 17 -2 25 -6c12 -8 18 -18 18 -30c0 -23 -15 -50 -45 -82c-18 -20 -35 -38 -53 -52c-65 -59 -131 -88 -198 -88c-77 0 -153 39 -227 116c-31 32 -58 65 -81 99c0 -45 2 -100 7 -165c0 -18 -7 -31 -20 -40c-14 -9 -29 -13 -47 -13zM206 328c38 32 88 93 148 182
c43 63 80 125 114 186c81 148 121 258 121 330v20c-1 11 -5 22 -14 35c-9 12 -24 18 -43 18c-17 0 -35 -5 -56 -15c-21 -11 -42 -25 -65 -44s-45 -42 -68 -69s-44 -56 -63 -89c-20 -33 -37 -69 -52 -108c-11 -153 -18 -301 -22 -446zM380 1361c-27 0 -51 9 -69 27
c-9 8 -14 15 -14 20c0 2 2 4 4 4c20 4 39 21 57 52c10 18 26 50 47 98c28 68 52 111 72 128c15 11 31 16 48 16c23 0 44 -8 62 -24c19 -15 28 -35 28 -58s-7 -49 -20 -79c-25 -54 -62 -100 -110 -137c-40 -31 -75 -47 -105 -47z" />
    <glyph glyph-name="Rcaron" unicode="&#x158;" horiz-adv-x="885" 
d="M144 -40c-15 0 -29 3 -42 9c-21 8 -40 35 -56 83c-20 58 -34 138 -42 241c-8 85 -12 177 -12 275c0 198 9 361 27 490c12 85 26 143 42 172c12 21 32 36 60 46c20 7 39 11 56 11c22 0 42 -5 61 -15c23 -13 35 -34 38 -64c0 -19 -2 -37 -7 -54c-6 -21 -12 -57 -18 -108
c70 122 150 197 239 226c39 12 74 18 107 18c61 -1 110 -19 148 -53c41 -36 61 -84 61 -144v-27c0 -16 -5 -41 -14 -74c-26 -92 -81 -198 -164 -318c-92 -131 -196 -252 -312 -365c81 -153 163 -229 247 -229c35 0 70 15 105 46c21 21 43 48 65 79c8 11 19 16 32 16
c9 0 17 -2 25 -6c12 -8 18 -18 18 -30c0 -23 -15 -50 -45 -82c-18 -20 -35 -38 -53 -52c-65 -59 -131 -88 -198 -88c-77 0 -153 39 -227 116c-31 32 -58 65 -81 99c0 -45 2 -100 7 -165c0 -18 -7 -31 -20 -40c-14 -9 -29 -13 -47 -13zM206 328c38 32 88 93 148 182
c43 63 80 125 114 186c81 148 121 258 121 330v20c-1 11 -5 22 -14 35c-9 12 -24 18 -43 18c-17 0 -35 -5 -56 -15c-21 -11 -42 -25 -65 -44s-45 -42 -68 -69s-44 -56 -63 -89c-20 -33 -37 -69 -52 -108c-11 -153 -18 -301 -22 -446zM425 1364c-45 0 -70 7 -77 23
c-4 9 -21 60 -50 153c-16 46 -30 76 -43 87c-5 4 -8 8 -8 11c0 5 6 8 16 10c18 0 35 -3 52 -10c48 -22 89 -79 123 -171l78 158c8 15 20 23 38 23c6 0 13 -1 19 -4c16 -9 24 -22 24 -39c0 -6 -31 -71 -92 -195c-16 -31 -43 -46 -80 -46z" />
    <glyph glyph-name="Sacute" unicode="&#x15a;" horiz-adv-x="699" 
d="M301 -43h-16c-50 0 -98 10 -142 31c-68 31 -115 74 -139 128c-12 25 -18 53 -18 83c0 52 21 98 64 138c46 44 112 70 197 79c14 0 25 -5 33 -16c5 -7 8 -15 8 -25c0 -5 -1 -9 -4 -14c-5 -13 -15 -20 -30 -21c-66 -8 -115 -27 -149 -57c-28 -25 -42 -53 -42 -85
c0 -41 20 -75 59 -102c35 -24 76 -36 124 -36c71 0 127 24 166 72c24 30 36 67 36 111c0 48 -18 99 -54 155c-41 62 -112 135 -212 218c-45 34 -80 66 -107 97c-58 64 -87 139 -87 222c0 61 17 118 51 172c35 53 81 96 139 127c59 31 117 47 176 47c65 0 118 -15 161 -44
c69 -49 104 -128 104 -239c0 -67 -10 -122 -31 -167c-1 -9 -4 -16 -9 -22c-10 -11 -22 -17 -38 -17c-13 0 -23 3 -31 10c-14 9 -20 22 -20 38c15 43 22 81 22 114c0 63 -24 104 -70 123c-18 7 -36 10 -55 10c-52 0 -96 -19 -133 -56c-24 -25 -35 -53 -35 -86
c0 -36 14 -72 43 -108c24 -32 55 -64 91 -97l57 -57c45 -46 81 -92 107 -138c42 -75 64 -157 64 -247c0 -51 -7 -98 -20 -139c-22 -66 -57 -116 -105 -150c-45 -32 -96 -49 -155 -52zM305 1361c-27 0 -51 9 -69 27c-9 8 -14 15 -14 20c0 2 2 4 4 4c20 4 39 21 57 52
c10 18 26 50 47 98c28 68 52 111 72 128c15 11 31 16 48 16c23 0 44 -8 62 -24c19 -15 28 -35 28 -58s-7 -49 -20 -79c-25 -54 -62 -100 -110 -137c-40 -31 -75 -47 -105 -47z" />
    <glyph glyph-name="Scircumflex" unicode="&#x15c;" horiz-adv-x="699" 
d="M301 -43h-16c-50 0 -98 10 -142 31c-68 31 -115 74 -139 128c-12 25 -18 53 -18 83c0 52 21 98 64 138c46 44 112 70 197 79c14 0 25 -5 33 -16c5 -7 8 -15 8 -25c0 -5 -1 -9 -4 -14c-5 -13 -15 -20 -30 -21c-66 -8 -115 -27 -149 -57c-28 -25 -42 -53 -42 -85
c0 -41 20 -75 59 -102c35 -24 76 -36 124 -36c71 0 127 24 166 72c24 30 36 67 36 111c0 48 -18 99 -54 155c-41 62 -112 135 -212 218c-45 34 -80 66 -107 97c-58 64 -87 139 -87 222c0 61 17 118 51 172c35 53 81 96 139 127c59 31 117 47 176 47c65 0 118 -15 161 -44
c69 -49 104 -128 104 -239c0 -67 -10 -122 -31 -167c-1 -9 -4 -16 -9 -22c-10 -11 -22 -17 -38 -17c-13 0 -23 3 -31 10c-14 9 -20 22 -20 38c15 43 22 81 22 114c0 63 -24 104 -70 123c-18 7 -36 10 -55 10c-52 0 -96 -19 -133 -56c-24 -25 -35 -53 -35 -86
c0 -36 14 -72 43 -108c24 -32 55 -64 91 -97l57 -57c45 -46 81 -92 107 -138c42 -75 64 -157 64 -247c0 -51 -7 -98 -20 -139c-22 -66 -57 -116 -105 -150c-45 -32 -96 -49 -155 -52zM504 1340h-17c-65 9 -117 69 -158 181l-78 -158c-8 -15 -20 -23 -38 -23
c-7 0 -13 1 -19 4c-16 9 -24 22 -24 39c0 6 31 71 92 195c15 31 41 46 77 46c23 0 46 -3 69 -8c7 -1 21 -36 41 -103c26 -87 47 -138 63 -152c5 -4 8 -8 8 -11c0 -5 -6 -8 -16 -10z" />
    <glyph glyph-name="Scedilla" unicode="&#x15e;" horiz-adv-x="699" 
d="M351 -602c-24 0 -47 5 -69 15c-41 18 -73 48 -96 91c0 1 -1 4 -2 8c-1 3 -1 7 -1 10v9c1 4 3 9 8 15c4 6 11 11 22 14c8 3 14 4 20 4c16 0 31 -11 45 -34c19 -25 36 -38 52 -38c25 0 46 24 63 71c12 34 18 69 18 106c0 38 -7 67 -22 88c-11 13 -23 20 -38 20
c-17 0 -33 -14 -50 -43c-10 -18 -28 -27 -51 -27c-15 0 -27 6 -35 16c-6 8 -9 38 -9 91c0 59 4 109 12 149c-27 5 -52 14 -75 25c-68 31 -115 74 -139 128c-12 25 -18 53 -18 83c0 52 21 98 64 138c46 44 112 70 197 79c14 0 25 -5 33 -16c5 -7 8 -15 8 -25
c0 -5 -1 -9 -4 -14c-5 -13 -15 -20 -30 -21c-66 -8 -115 -27 -149 -57c-28 -25 -42 -53 -42 -84c0 -42 20 -76 59 -103c35 -24 76 -36 124 -36c71 0 127 24 166 72c24 30 36 67 36 111c0 48 -18 99 -54 155c-41 62 -112 135 -212 218c-45 34 -80 66 -107 97
c-58 64 -87 139 -87 222c0 61 17 118 51 172c35 53 81 96 139 127c59 31 117 47 176 47c65 0 118 -15 161 -44c69 -49 104 -128 104 -238c0 -67 -10 -123 -31 -168c-1 -9 -4 -16 -9 -22c-10 -11 -22 -17 -38 -17c-13 0 -23 3 -31 10c-14 9 -20 22 -20 38c15 43 22 82 22 115
c0 62 -24 103 -70 122c-18 7 -36 10 -55 10c-52 0 -96 -19 -133 -56c-24 -25 -35 -53 -35 -86c0 -36 14 -72 43 -108c24 -32 55 -64 91 -97l57 -57c45 -46 81 -92 107 -138c42 -75 64 -157 64 -247c0 -51 -7 -98 -20 -139c-22 -66 -57 -116 -105 -150
c-31 -22 -63 -37 -95 -43c-5 -22 -9 -51 -10 -89c12 3 25 4 37 4c36 0 68 -10 95 -30s48 -43 63 -69c23 -39 35 -82 35 -128c0 -14 -2 -31 -5 -52s-10 -45 -22 -71c-13 -27 -29 -50 -49 -70s-43 -36 -69 -47s-54 -16 -85 -16z" />
    <glyph glyph-name="Scaron" unicode="&#x160;" horiz-adv-x="699" 
d="M301 -43h-16c-50 0 -98 10 -142 31c-68 31 -115 74 -139 128c-12 25 -18 53 -18 83c0 52 21 98 64 138c46 44 112 70 197 79c14 0 25 -5 33 -16c5 -7 8 -15 8 -25c0 -5 -1 -9 -4 -14c-5 -13 -15 -20 -30 -21c-66 -8 -115 -27 -149 -57c-28 -25 -42 -53 -42 -85
c0 -41 20 -75 59 -102c35 -24 76 -36 124 -36c71 0 127 24 166 72c24 30 36 67 36 111c0 48 -18 99 -54 155c-41 62 -112 135 -212 218c-45 34 -80 66 -107 97c-58 64 -87 139 -87 222c0 61 17 118 51 172c35 53 81 96 139 127c59 31 117 47 176 47c65 0 118 -15 161 -44
c69 -49 104 -128 104 -239c0 -67 -10 -122 -31 -167c-1 -9 -4 -16 -9 -22c-10 -11 -22 -17 -38 -17c-13 0 -23 3 -31 10c-14 9 -20 22 -20 38c15 43 22 81 22 114c0 63 -24 104 -70 123c-18 7 -36 10 -55 10c-52 0 -96 -19 -133 -56c-24 -25 -35 -53 -35 -86
c0 -36 14 -72 43 -108c24 -32 55 -64 91 -97l57 -57c45 -46 81 -92 107 -138c42 -75 64 -157 64 -247c0 -51 -7 -98 -20 -139c-22 -66 -57 -116 -105 -150c-45 -32 -96 -49 -155 -52zM342 1364c-45 0 -70 7 -77 23c-4 9 -21 60 -50 153c-16 46 -30 76 -43 87
c-5 4 -8 8 -8 11c0 5 6 8 16 10c18 0 35 -3 52 -10c48 -22 89 -79 123 -171l78 158c8 15 20 23 38 23c6 0 13 -1 19 -4c16 -9 24 -22 24 -39c0 -6 -31 -71 -92 -195c-16 -31 -43 -46 -80 -46z" />
    <glyph glyph-name="Ugrave" unicode="&#xd9;" horiz-adv-x="883" 
d="M286 -39c-14 0 -30 6 -49 19c-91 62 -157 160 -200 294c-31 98 -47 211 -47 337c0 97 8 197 23 299c11 70 25 149 42 238c15 50 37 88 67 113c23 20 48 30 74 30c59 -4 88 -46 88 -125c0 -23 -3 -48 -10 -77c-52 -204 -79 -388 -79 -554c0 -105 15 -214 43 -329
c13 -47 27 -71 42 -71c32 0 70 93 114 281c10 43 17 73 19 89c30 144 61 276 92 394c57 217 104 341 141 374c11 13 25 19 41 19c34 0 64 -19 90 -56c13 -20 19 -42 20 -67l-1 -12c-32 -271 -48 -520 -48 -748c0 -111 3 -205 9 -282l1 -18c0 -31 -9 -59 -26 -83
c-18 -23 -40 -41 -66 -51c-20 -8 -36 -12 -51 -12c-37 0 -63 45 -78 134c-13 81 -20 196 -20 346c0 59 1 108 2 148v30c-12 -57 -24 -114 -36 -170c-50 -231 -96 -381 -135 -449c-17 -27 -37 -41 -62 -41zM493 1346c-30 0 -65 16 -104 47c-50 39 -87 85 -110 137
c-14 30 -20 58 -20 81c0 22 9 40 27 56s39 24 63 24c29 0 53 -16 73 -47c10 -16 25 -49 47 -97c15 -37 31 -70 48 -98c17 -31 36 -48 56 -52c2 0 3 -2 3 -4c-4 -14 -17 -26 -37 -36c-13 -7 -28 -11 -46 -11z" />
    <glyph glyph-name="Uacute" unicode="&#xda;" horiz-adv-x="883" 
d="M286 -39c-14 0 -30 6 -49 19c-91 62 -157 160 -200 294c-31 98 -47 211 -47 337c0 97 8 197 23 299c11 70 25 149 42 238c15 50 37 88 67 113c23 20 48 30 74 30c59 -4 88 -46 88 -125c0 -23 -3 -48 -10 -77c-52 -204 -79 -388 -79 -554c0 -105 15 -214 43 -329
c13 -47 27 -71 42 -71c32 0 70 93 114 281c10 43 17 73 19 89c30 144 61 276 92 394c57 217 104 341 141 374c11 13 25 19 41 19c34 0 64 -19 90 -56c13 -20 19 -42 20 -67l-1 -12c-32 -271 -48 -520 -48 -748c0 -111 3 -205 9 -282l1 -18c0 -31 -9 -59 -26 -83
c-18 -23 -40 -41 -66 -51c-20 -8 -36 -12 -51 -12c-37 0 -63 45 -78 134c-13 81 -20 196 -20 346c0 59 1 108 2 148v30c-68 -334 -125 -540 -171 -619c-17 -27 -37 -41 -62 -41zM401 1361c-27 0 -51 9 -69 27c-9 8 -14 15 -14 20c0 2 2 4 4 4c20 4 39 21 57 52
c10 18 26 50 47 98c28 68 52 111 72 128c15 11 31 16 48 16c23 0 44 -8 62 -24c19 -15 28 -35 28 -58s-7 -49 -20 -79c-25 -54 -62 -100 -110 -137c-40 -31 -75 -47 -105 -47z" />
    <glyph glyph-name="Ucircumflex" unicode="&#xdb;" horiz-adv-x="883" 
d="M286 -39c-14 0 -30 6 -49 19c-91 62 -157 160 -200 294c-31 98 -47 211 -47 337c0 97 8 197 23 299c11 70 25 149 42 238c15 50 37 88 67 113c23 20 48 30 74 30c59 -4 88 -46 88 -125c0 -23 -3 -48 -10 -77c-52 -204 -79 -388 -79 -554c0 -105 15 -214 43 -329
c13 -47 27 -71 42 -71c32 0 70 93 114 281c10 43 17 73 19 89c30 144 61 276 92 394c57 217 104 341 141 374c11 13 25 19 41 19c34 0 64 -19 90 -56c13 -20 19 -42 20 -67l-1 -12c-32 -271 -48 -520 -48 -748c0 -111 3 -205 9 -282l1 -18c0 -31 -9 -59 -26 -83
c-18 -23 -40 -41 -66 -51c-20 -8 -36 -12 -51 -12c-37 0 -63 45 -78 134c-13 81 -20 196 -20 346c0 59 1 108 2 148v30c-12 -57 -24 -114 -36 -170c-50 -231 -96 -381 -135 -449c-17 -27 -37 -41 -62 -41zM612 1340h-17c-65 9 -117 69 -158 181l-78 -158
c-8 -15 -20 -23 -38 -23c-7 0 -13 1 -19 4c-16 9 -24 22 -24 39c0 6 31 71 92 195c15 31 41 46 77 46c23 0 46 -3 69 -8c7 -1 21 -36 41 -103c26 -87 47 -138 63 -152c5 -4 8 -8 8 -11c0 -5 -6 -8 -16 -10z" />
    <glyph glyph-name="Udieresis" unicode="&#xdc;" horiz-adv-x="883" 
d="M286 -39c-14 0 -30 6 -49 19c-91 62 -157 160 -200 294c-31 98 -47 211 -47 337c0 97 8 197 23 299c11 70 25 149 42 238c15 50 37 88 67 113c23 20 48 30 74 30c59 -4 88 -46 88 -125c0 -23 -3 -48 -10 -77c-52 -204 -79 -388 -79 -554c0 -105 15 -214 43 -329
c13 -47 27 -71 42 -71c32 0 70 93 114 281c10 43 17 73 19 89c30 144 61 276 92 394c57 217 104 341 141 374c11 13 25 19 41 19c34 0 64 -19 90 -56c13 -20 19 -42 20 -67l-1 -12c-32 -271 -48 -520 -48 -748c0 -111 3 -205 9 -282l1 -18c0 -31 -9 -59 -26 -83
c-18 -23 -40 -41 -66 -51c-20 -8 -36 -12 -51 -12c-37 0 -63 45 -78 134c-13 81 -20 196 -20 346c0 59 1 108 2 148v30c-12 -57 -24 -114 -36 -170c-50 -231 -96 -381 -135 -449c-17 -27 -37 -41 -62 -41zM356 1359c-12 0 -26 3 -40 8c-34 11 -59 33 -75 64
c-9 20 -14 38 -14 55c0 26 10 47 30 64c21 16 46 24 76 24c35 0 64 -13 85 -38c16 -19 24 -47 24 -83c0 -35 -10 -61 -31 -77c-15 -11 -33 -17 -55 -17zM625 1359c-12 0 -26 3 -40 8c-34 11 -59 33 -75 64c-9 20 -14 38 -14 55c0 26 10 47 30 64c21 16 46 24 76 24
c35 0 64 -13 85 -38c16 -19 24 -47 24 -83c0 -35 -10 -61 -31 -77c-15 -11 -33 -17 -55 -17z" />
    <glyph glyph-name="Uogonek" unicode="&#x172;" horiz-adv-x="883" 
d="M672 -343c-39 0 -79 17 -121 51c-38 31 -67 71 -85 121c-12 31 -18 64 -19 101c0 25 4 50 10 77c22 34 51 53 86 57c-17 92 -26 219 -26 379c0 59 1 108 2 148v30c-12 -57 -24 -114 -36 -170c-50 -231 -96 -381 -135 -449c-16 -27 -36 -40 -59 -40h-15c-8 1 -20 7 -37 18
c-91 62 -157 160 -200 294c-31 98 -47 211 -47 337c0 98 8 197 23 299c11 70 25 149 42 238c15 50 37 88 67 113c23 20 48 30 74 30c19 0 36 -6 51 -19c24 -20 37 -53 38 -100c0 -24 -4 -52 -11 -83c-52 -204 -79 -388 -79 -554c0 -105 15 -214 43 -329c7 -24 13 -42 20 -54
c7 -11 15 -17 23 -17c31 0 69 93 113 281c10 43 17 73 19 89c30 144 61 276 92 394c57 217 104 341 141 374c11 13 25 19 41 19c34 0 64 -19 90 -56c13 -20 19 -42 20 -67l-1 -12c-32 -270 -48 -521 -48 -752c0 -108 3 -201 9 -278l1 -18c0 -47 -19 -85 -57 -114
c-20 -15 -40 -25 -60 -28c-3 -11 -6 -22 -10 -35c-5 -13 -9 -27 -13 -41s-6 -29 -6 -46c0 -23 7 -40 20 -51c8 -8 24 -17 46 -29c41 -20 62 -39 62 -55c0 -6 -2 -11 -5 -18c-13 -23 -34 -35 -63 -35z" />
    <glyph glyph-name="Wcircumflex" unicode="&#x174;" horiz-adv-x="1267" 
d="M331 -119c-14 0 -28 4 -41 12c-52 34 -98 78 -137 131c-115 154 -172 369 -172 646c0 132 15 292 45 477c10 43 31 76 62 100c25 19 54 29 84 29c20 0 37 -5 54 -14c34 -21 51 -59 51 -113c0 -19 -2 -41 -7 -65c-39 -194 -58 -363 -58 -508c0 -48 2 -96 6 -143
c8 -90 28 -189 61 -296c14 -46 29 -72 45 -76c5 30 13 88 23 173c9 76 19 153 30 230c47 320 129 514 246 582c36 21 70 31 100 31c48 0 72 -25 72 -74l-1 -20c-23 -197 -34 -356 -34 -477c0 -147 13 -259 39 -335c15 -44 33 -66 54 -66c2 0 7 1 14 3c7 1 18 11 32 29
c14 17 29 43 45 77c20 43 37 91 52 143c15 51 27 105 38 162s20 114 27 171s13 113 18 167c4 54 7 105 9 152s4 88 5 125c1 36 1 65 1 86l-1 36c0 10 2 18 7 25c9 14 21 21 37 21c25 0 39 -15 41 -44c4 -87 6 -180 6 -277c0 -37 -1 -80 -2 -129c-11 -292 -46 -516 -107 -672
c-26 -69 -59 -123 -100 -162c-40 -39 -83 -58 -128 -58h-20c-13 1 -31 7 -56 20c-50 26 -98 79 -144 160c-64 113 -96 274 -96 483v27c-18 -80 -34 -181 -50 -302c-21 -158 -41 -270 -59 -335c-22 -88 -52 -132 -91 -132z" />
    <glyph glyph-name="Yacute" unicode="&#xdd;" horiz-adv-x="826" 
d="M343 -37c-66 0 -126 21 -179 64c-46 35 -78 79 -96 132c-11 27 -16 54 -16 81c0 157 149 247 446 269c7 65 10 150 10 254c0 53 -1 125 -5 215c-7 -32 -10 -49 -10 -51c-20 -101 -35 -171 -46 -211c-22 -76 -49 -128 -81 -157c-26 -23 -56 -34 -89 -34
c-44 0 -89 18 -136 54c-41 30 -74 78 -99 144c-37 99 -56 225 -56 378c0 27 0 50 1 71c1 13 6 25 14 36c16 24 38 42 68 54c20 9 40 13 61 13c56 0 84 -30 84 -89l-1 -21c-7 -57 -10 -116 -10 -176c0 -150 19 -266 57 -346c13 -28 26 -42 37 -42c9 0 19 8 28 24
c16 30 30 67 42 109c13 50 28 118 44 203c19 100 35 172 48 217c17 57 34 93 54 108c16 13 37 20 61 20c47 0 86 -18 118 -53c39 -45 59 -147 59 -305c0 -152 -14 -299 -43 -442c-45 -217 -113 -368 -206 -453c-48 -44 -101 -66 -159 -66zM276 74c21 0 41 6 60 19
c74 48 125 164 153 348c-163 -15 -273 -54 -328 -119c-20 -25 -30 -53 -30 -85c0 -20 4 -40 12 -59c13 -33 33 -59 60 -78c23 -17 48 -26 73 -26zM312 1361c-27 0 -51 9 -69 27c-9 8 -14 15 -14 20c0 2 2 4 4 4c20 4 39 21 57 52c10 18 26 50 47 98c28 68 52 111 72 128
c15 11 31 16 48 16c23 0 44 -8 62 -24c19 -15 28 -35 28 -58s-7 -49 -20 -79c-25 -54 -62 -100 -110 -137c-40 -31 -75 -47 -105 -47z" />
    <glyph glyph-name="Ydieresis" unicode="&#x178;" horiz-adv-x="826" 
d="M343 -37c-66 0 -126 21 -179 64c-46 35 -78 79 -96 132c-11 27 -16 54 -16 81c0 157 149 247 446 269c7 65 10 150 10 254c0 53 -1 125 -5 215c-7 -32 -10 -49 -10 -51c-20 -101 -35 -171 -46 -211c-22 -76 -49 -128 -81 -157c-26 -23 -56 -34 -89 -34
c-44 0 -89 18 -136 54c-41 30 -74 78 -99 144c-37 99 -56 225 -56 378c0 27 0 50 1 71c1 13 6 25 14 36c16 24 38 42 68 54c20 9 40 13 61 13c56 0 84 -30 84 -89l-1 -21c-7 -57 -10 -116 -10 -176c0 -150 19 -266 57 -346c13 -28 26 -42 37 -42c9 0 19 8 28 24
c16 30 30 67 42 109c13 50 28 118 44 203c19 100 35 172 48 217c17 57 34 93 54 108c16 13 37 20 61 20c47 0 86 -18 118 -53c39 -45 59 -147 59 -305c0 -152 -14 -299 -43 -442c-45 -217 -113 -368 -206 -453c-48 -44 -101 -66 -159 -66zM276 74c21 0 41 6 60 19
c74 48 125 164 153 348c-163 -15 -273 -54 -328 -119c-20 -25 -30 -53 -30 -85c0 -20 4 -40 12 -59c13 -33 33 -59 60 -78c23 -17 48 -26 73 -26zM252 1359c-12 0 -26 3 -40 8c-34 11 -59 33 -75 64c-9 20 -14 38 -14 55c0 26 10 47 30 64c21 16 46 24 76 24
c35 0 64 -13 85 -38c16 -19 24 -47 24 -83c0 -35 -10 -61 -31 -77c-15 -11 -33 -17 -55 -17zM521 1359c-12 0 -26 3 -40 8c-34 11 -59 33 -75 64c-9 20 -14 38 -14 55c0 26 10 47 30 64c21 16 46 24 76 24c35 0 64 -13 85 -38c16 -19 24 -47 24 -83c0 -35 -10 -61 -31 -77
c-15 -11 -33 -17 -55 -17z" />
    <glyph glyph-name="Ycircumflex" unicode="&#x176;" horiz-adv-x="826" 
d="M343 -37c-66 0 -126 21 -179 64c-46 35 -78 79 -96 132c-11 27 -16 54 -16 81c0 157 149 247 446 269c7 65 10 150 10 254c0 53 -1 125 -5 215c-7 -32 -10 -49 -10 -51c-20 -101 -35 -171 -46 -211c-22 -76 -49 -128 -81 -157c-26 -23 -56 -34 -89 -34
c-44 0 -89 18 -136 54c-41 30 -74 78 -99 144c-37 99 -56 225 -56 378c0 27 0 50 1 71c1 13 6 25 14 36c16 24 38 42 68 54c20 9 40 13 61 13c56 0 84 -30 84 -89l-1 -21c-7 -57 -10 -116 -10 -176c0 -150 19 -266 57 -346c13 -28 26 -42 37 -42c9 0 19 8 28 24
c16 30 30 67 42 109c13 50 28 118 44 203c19 100 35 172 48 217c17 57 34 93 54 108c16 13 37 20 61 20c47 0 86 -18 118 -53c39 -45 59 -147 59 -305c0 -152 -14 -299 -43 -442c-45 -217 -113 -368 -206 -453c-48 -44 -101 -66 -159 -66zM276 74c21 0 41 6 60 19
c74 48 125 164 153 348c-163 -15 -273 -54 -328 -119c-20 -25 -30 -53 -30 -85c0 -20 4 -40 12 -59c13 -33 33 -59 60 -78c23 -17 48 -26 73 -26zM512 1340h-17c-65 9 -117 69 -158 181l-78 -158c-8 -15 -20 -23 -38 -23c-7 0 -13 1 -19 4c-16 9 -24 22 -24 39
c0 6 31 71 92 195c15 31 41 46 77 46c23 0 46 -3 69 -8c7 -1 21 -36 41 -103c26 -87 47 -138 63 -152c5 -4 8 -8 8 -11c0 -5 -6 -8 -16 -10z" />
    <glyph glyph-name="Zacute" unicode="&#x179;" horiz-adv-x="826" 
d="M380 -37c-173 0 -291 25 -355 75c-31 24 -47 56 -47 98c0 80 38 199 113 357c42 90 89 181 142 273c115 200 215 350 298 450l-390 -17c-7 0 -14 2 -20 5c-13 6 -21 17 -22 32c0 24 12 38 36 40l492 22c70 0 119 -17 147 -51c9 -12 13 -26 13 -44c0 -27 -14 -57 -43 -89
c-58 -63 -163 -205 -315 -427c-97 -139 -179 -266 -247 -379c-58 -97 -87 -153 -87 -168c0 -17 12 -32 35 -44c51 -28 143 -41 278 -41c83 0 150 3 201 10c53 6 87 12 104 20c5 2 11 3 17 3c16 0 28 -8 36 -23c3 -5 4 -13 4 -24c-4 -25 -61 -46 -169 -62
c-72 -11 -145 -16 -221 -16zM414 1361c-27 0 -51 9 -69 27c-9 8 -14 15 -14 20c0 2 2 4 4 4c20 4 39 21 57 52c10 18 26 50 47 98c28 68 52 111 72 128c15 11 31 16 48 16c23 0 44 -8 62 -24c19 -15 28 -35 28 -58s-7 -49 -20 -79c-25 -54 -62 -100 -110 -137
c-40 -31 -75 -47 -105 -47z" />
    <glyph glyph-name="Zcaron" unicode="&#x17d;" horiz-adv-x="826" 
d="M380 -37c-173 0 -291 25 -355 75c-31 24 -47 56 -47 98c0 80 38 199 113 357c42 90 89 181 142 273c115 200 215 350 298 450l-390 -17c-7 0 -14 2 -20 5c-13 6 -21 17 -22 32c0 24 12 38 36 40l492 22c70 0 119 -17 147 -51c9 -12 13 -26 13 -44c0 -27 -14 -57 -43 -89
c-58 -63 -163 -205 -315 -427c-97 -139 -179 -266 -247 -379c-58 -97 -87 -153 -87 -168c0 -17 12 -32 35 -44c51 -28 143 -41 278 -41c83 0 150 3 201 10c53 6 87 12 104 20c5 2 11 3 17 3c16 0 28 -8 36 -23c3 -5 4 -13 4 -24c-4 -25 -61 -46 -169 -62
c-72 -11 -145 -16 -221 -16zM463 1364c-45 0 -70 7 -77 23c-4 9 -21 60 -50 153c-16 46 -30 76 -43 87c-5 4 -8 8 -8 11c0 5 6 8 16 10c18 0 35 -3 52 -10c48 -22 89 -79 123 -171l78 158c8 15 20 23 38 23c6 0 13 -1 19 -4c16 -9 24 -22 24 -39c0 -6 -31 -71 -92 -195
c-16 -31 -43 -46 -80 -46z" />
    <glyph glyph-name="Thorn" unicode="&#xde;" horiz-adv-x="656" 
d="M134 -67c-44 0 -80 58 -108 176c-19 75 -32 166 -42 272c-9 100 -14 168 -14 202l1 21c-2 48 -3 95 -3 142c0 99 3 185 9 260c9 124 22 206 41 246c7 13 17 25 30 35c26 21 56 31 89 31c31 0 54 -11 70 -32c10 -13 16 -31 16 -54c0 -14 -2 -30 -7 -48
c-11 -42 -22 -147 -34 -315c34 10 68 15 103 15c90 0 161 -28 214 -83c41 -44 61 -108 61 -190c0 -43 -6 -86 -17 -129c-24 -87 -65 -150 -122 -189c-41 -27 -86 -41 -136 -41c-44 0 -88 10 -130 31l-1 -124c0 -78 2 -131 6 -157c1 -10 2 -19 2 -27c0 -28 -9 -42 -28 -42z
M270 330c41 0 77 24 109 72c37 59 56 128 56 205c0 37 -5 70 -16 100c-17 50 -42 75 -75 75c-28 0 -58 -16 -88 -48c-62 -65 -92 -143 -92 -235c0 -57 11 -100 34 -130c19 -26 43 -39 72 -39z" />
    <glyph glyph-name="germandbls" unicode="&#xdf;" horiz-adv-x="800" 
d="M142 -273c-51 0 -91 85 -119 257c-32 185 -47 420 -47 703c0 127 3 239 11 338c9 125 22 209 38 249c7 15 17 29 30 41c26 23 54 35 85 35c34 0 59 -12 74 -36c11 -17 16 -38 16 -64c0 -16 -2 -35 -7 -56c-5 -25 -11 -67 -16 -124c57 112 123 185 198 221
c43 19 81 28 116 28c64 0 112 -27 143 -80c18 -33 27 -73 27 -120c0 -69 -22 -144 -66 -225c-47 -83 -103 -165 -169 -246c36 16 69 23 98 23c12 0 25 -1 40 -4s31 -12 48 -25c16 -14 30 -34 41 -59c16 -36 24 -73 24 -112v-34c0 -21 -7 -52 -22 -93s-35 -80 -60 -119
c-52 -79 -120 -148 -204 -207c-85 -60 -171 -99 -259 -117c1 -43 2 -74 5 -93c1 -12 2 -23 2 -32c0 -33 -9 -49 -27 -49zM172 467c43 45 90 104 141 178c120 173 180 309 180 407c0 48 -15 72 -45 72c-36 -1 -78 -30 -128 -87c-53 -61 -97 -135 -132 -222
c-6 -111 -11 -227 -16 -348zM161 -18c76 33 150 93 223 179c46 54 82 107 110 161c25 47 37 88 37 121c0 4 0 10 -1 20s-6 20 -16 30c-11 9 -27 14 -48 14c-45 0 -113 -25 -204 -75c-40 -39 -71 -68 -94 -85c-5 -141 -7 -262 -7 -365z" />
    <glyph glyph-name="agrave" unicode="&#xe0;" horiz-adv-x="827" 
d="M591 -47l-12 1c-20 6 -36 33 -50 81c-13 48 -22 109 -26 182c-68 -147 -152 -221 -252 -221c-36 0 -76 11 -118 32c-45 24 -79 64 -104 120c-23 52 -35 110 -35 174v33c0 18 4 44 12 77c25 112 82 197 171 255c63 41 144 63 241 64c71 0 131 -13 182 -38
c10 15 24 30 42 45c23 20 43 30 58 30c25 0 37 -27 38 -80c0 -13 -3 -46 -7 -99c-9 -119 -14 -215 -14 -288c0 -74 3 -146 8 -216v-8c0 -34 -8 -62 -25 -84c-16 -22 -37 -39 -62 -49c-18 -7 -33 -11 -47 -11zM297 125c35 0 72 40 114 120c33 63 72 161 116 293
c6 29 18 69 36 122l1 6c-27 13 -55 19 -84 19c-80 0 -148 -43 -203 -129c-47 -75 -71 -156 -71 -245c0 -50 9 -94 28 -132c20 -36 41 -54 63 -54zM514 854c-30 0 -65 16 -104 47c-50 39 -87 85 -110 137c-14 30 -20 58 -20 81c0 22 9 40 27 56s39 24 63 24
c29 0 53 -16 73 -47c10 -16 25 -49 47 -97c15 -37 31 -70 48 -98c17 -31 36 -48 56 -52c2 0 3 -2 3 -4c-4 -14 -17 -26 -37 -36c-13 -7 -28 -11 -46 -11z" />
    <glyph glyph-name="aacute" unicode="&#xe1;" horiz-adv-x="827" 
d="M591 -47l-12 1c-20 6 -36 33 -50 81c-13 48 -22 109 -26 182c-68 -147 -152 -221 -252 -221c-36 0 -76 11 -118 32c-45 24 -79 64 -104 120c-23 52 -35 110 -35 174v33c0 18 4 44 12 77c25 112 82 197 171 255c63 41 144 63 241 64c71 0 131 -13 182 -38
c10 15 24 30 42 45c23 20 43 30 58 30c25 0 37 -27 38 -80c0 -13 -3 -46 -7 -99c-9 -119 -14 -215 -14 -288c0 -74 3 -146 8 -216v-8c0 -34 -8 -62 -25 -84c-16 -22 -37 -39 -62 -49c-18 -7 -33 -11 -47 -11zM297 125c35 0 72 40 114 120c33 63 72 161 116 293
c6 29 18 69 36 122l1 6c-27 13 -55 19 -84 19c-80 0 -148 -43 -203 -129c-47 -75 -71 -156 -71 -245c0 -50 9 -94 28 -132c20 -36 41 -54 63 -54zM384 857c-27 0 -51 9 -69 27c-9 8 -14 15 -14 20c0 2 2 4 4 4c20 4 39 21 57 52c10 18 26 50 47 98c28 68 52 111 72 128
c15 11 31 16 48 16c23 0 44 -8 62 -24c19 -15 28 -35 28 -58s-7 -49 -20 -79c-25 -54 -62 -100 -110 -137c-40 -31 -75 -47 -105 -47z" />
    <glyph glyph-name="acircumflex" unicode="&#xe2;" horiz-adv-x="827" 
d="M591 -47l-12 1c-20 6 -36 33 -50 81c-13 48 -22 109 -26 182c-68 -147 -152 -221 -252 -221c-36 0 -76 11 -118 32c-45 24 -79 64 -104 120c-23 52 -35 110 -35 174v33c0 18 4 44 12 77c25 112 82 197 171 255c63 41 144 63 241 64c71 0 131 -13 182 -38
c10 15 24 30 42 45c23 20 43 30 58 30c25 0 37 -27 38 -80c0 -13 -3 -46 -7 -99c-9 -119 -14 -215 -14 -288c0 -74 3 -146 8 -216v-8c0 -34 -8 -62 -25 -84c-16 -22 -37 -39 -62 -49c-18 -7 -33 -11 -47 -11zM297 125c35 0 72 40 114 120c33 63 72 161 116 293
c6 29 18 69 36 122l1 6c-27 13 -55 19 -84 19c-80 0 -148 -43 -203 -129c-47 -75 -71 -156 -71 -245c0 -50 9 -94 28 -132c20 -36 41 -54 63 -54zM618 866h-17c-65 9 -117 69 -158 181l-78 -158c-8 -15 -20 -23 -38 -23c-7 0 -13 1 -19 4c-16 9 -24 22 -24 39
c0 6 31 71 92 195c15 31 41 46 77 46c23 0 46 -3 69 -8c7 -1 21 -36 41 -103c26 -87 47 -138 63 -152c5 -4 8 -8 8 -11c0 -5 -6 -8 -16 -10z" />
    <glyph glyph-name="atilde" unicode="&#xe3;" horiz-adv-x="827" 
d="M591 -47l-12 1c-20 6 -36 33 -50 81c-13 48 -22 109 -26 182c-68 -147 -152 -221 -252 -221c-36 0 -76 11 -118 32c-45 24 -79 64 -104 120c-23 52 -35 110 -35 174v33c0 18 4 44 12 77c25 112 82 197 171 255c63 41 144 63 241 64c71 0 131 -13 182 -38
c10 15 24 30 42 45c23 20 43 30 58 30c25 0 37 -27 38 -80c0 -13 -3 -46 -7 -99c-9 -119 -14 -215 -14 -288c0 -74 3 -146 8 -216v-8c0 -34 -8 -62 -25 -84c-16 -22 -37 -39 -62 -49c-18 -7 -33 -11 -47 -11zM297 125c35 0 72 40 114 120c33 63 72 161 116 293
c6 29 18 69 36 122l1 6c-27 13 -55 19 -84 19c-80 0 -148 -43 -203 -129c-47 -75 -71 -156 -71 -245c0 -50 9 -94 28 -132c20 -36 41 -54 63 -54zM122 860c-16 0 -27 7 -34 20c-4 7 -6 14 -6 22l1 10c12 54 41 88 86 105c23 8 52 12 84 12c31 0 83 -5 157 -15
c63 -10 111 -14 144 -15c53 0 83 15 91 43c6 22 17 33 32 33c17 -2 32 -13 44 -33c10 -17 14 -34 14 -52c0 -42 -21 -77 -65 -106c-21 -14 -49 -21 -82 -21c-12 0 -28 1 -46 4c-19 2 -41 6 -67 12s-52 12 -79 19c-21 6 -43 12 -64 17s-41 9 -60 12s-36 4 -51 4
c-33 -1 -54 -13 -62 -36c-6 -23 -18 -35 -37 -35z" />
    <glyph glyph-name="adieresis" unicode="&#xe4;" horiz-adv-x="827" 
d="M591 -47l-12 1c-20 6 -36 33 -50 81c-13 48 -22 109 -26 182c-68 -147 -152 -221 -252 -221c-36 0 -76 11 -118 32c-45 24 -79 64 -104 120c-23 52 -35 110 -35 174v33c0 18 4 44 12 77c25 112 82 197 171 255c63 41 144 63 241 64c71 0 131 -13 182 -38
c10 15 24 30 42 45c23 20 43 30 58 30c25 0 37 -27 38 -80c0 -13 -3 -46 -7 -99c-9 -119 -14 -215 -14 -288c0 -74 3 -146 8 -216v-8c0 -34 -8 -62 -25 -84c-16 -22 -37 -39 -62 -49c-18 -7 -33 -11 -47 -11zM297 125c35 0 72 40 114 120c33 63 72 161 116 293
c6 29 18 69 36 122l1 6c-27 13 -55 19 -84 19c-80 0 -148 -43 -203 -129c-47 -75 -71 -156 -71 -245c0 -50 9 -94 28 -132c20 -36 41 -54 63 -54zM275 848c-12 0 -26 3 -40 8c-34 11 -59 33 -75 64c-9 20 -14 38 -14 55c0 26 10 47 30 64c21 16 46 24 76 24
c35 0 64 -13 85 -38c16 -19 24 -47 24 -83c0 -35 -10 -61 -31 -77c-15 -11 -33 -17 -55 -17zM544 848c-12 0 -26 3 -40 8c-34 11 -59 33 -75 64c-9 20 -14 38 -14 55c0 26 10 47 30 64c21 16 46 24 76 24c35 0 64 -13 85 -38c16 -19 24 -47 24 -83c0 -35 -10 -61 -31 -77
c-15 -11 -33 -17 -55 -17z" />
    <glyph glyph-name="aring" unicode="&#xe5;" horiz-adv-x="827" 
d="M591 -47l-12 1c-20 6 -36 33 -50 81c-13 48 -22 109 -26 182c-68 -147 -152 -221 -252 -221c-36 0 -76 11 -118 32c-45 24 -79 64 -104 120c-23 52 -35 110 -35 174v33c0 18 4 44 12 77c25 112 82 197 171 255c63 41 144 63 241 64c71 0 131 -13 182 -38
c10 15 24 30 42 45c23 20 43 30 58 30c25 0 37 -27 38 -80c0 -13 -3 -46 -7 -99c-9 -119 -14 -215 -14 -288c0 -74 3 -146 8 -216v-8c0 -34 -8 -62 -25 -84c-16 -22 -37 -39 -62 -49c-18 -7 -33 -11 -47 -11zM297 125c35 0 72 40 114 120c33 63 72 161 116 293
c6 29 18 69 36 122l1 6c-27 13 -55 19 -84 19c-80 0 -148 -43 -203 -129c-47 -75 -71 -156 -71 -245c0 -50 9 -94 28 -132c20 -36 41 -54 63 -54zM450 833c-48 0 -89 17 -125 53s-54 78 -54 125c0 50 19 88 58 115c30 21 65 31 105 31c19 0 38 -3 56 -8
c65 -19 98 -69 98 -148c0 -40 -9 -76 -27 -106c-24 -42 -61 -62 -111 -62zM455 873c14 0 29 13 43 38c15 25 23 55 23 90c0 26 -5 49 -14 68c-11 25 -23 37 -37 37c-15 0 -31 -17 -46 -50c-13 -29 -20 -56 -20 -81c0 -19 3 -37 9 -54c11 -32 25 -48 42 -48z" />
    <glyph glyph-name="amacron" unicode="&#x101;" horiz-adv-x="827" 
d="M591 -47l-12 1c-20 6 -36 33 -50 81c-13 48 -22 109 -26 182c-68 -147 -152 -221 -252 -221c-36 0 -76 11 -118 32c-45 24 -79 64 -104 120c-23 52 -35 110 -35 174v33c0 18 4 44 12 77c25 112 82 197 171 255c63 41 144 63 241 64c71 0 131 -13 182 -38
c10 15 24 30 42 45c23 20 43 30 58 30c25 0 37 -27 38 -80c0 -13 -3 -46 -7 -99c-9 -119 -14 -215 -14 -288c0 -74 3 -146 8 -216v-8c0 -34 -8 -62 -25 -84c-16 -22 -37 -39 -62 -49c-18 -7 -33 -11 -47 -11zM297 125c35 0 72 40 114 120c33 63 72 161 116 293
c6 29 18 69 36 122l1 6c-27 13 -55 19 -84 19c-80 0 -148 -43 -203 -129c-47 -75 -71 -156 -71 -245c0 -50 9 -94 28 -132c20 -36 41 -54 63 -54zM518 866l-237 4c-9 0 -17 3 -24 7c-8 4 -13 10 -17 17c-4 8 -6 16 -6 25c0 13 5 24 14 33s20 13 33 14l238 -4
c19 -1 32 -9 41 -24c4 -8 6 -16 6 -25s-2 -17 -7 -24c-4 -7 -10 -12 -17 -17c-7 -4 -15 -6 -24 -6z" />
    <glyph glyph-name="abreve" unicode="&#x103;" horiz-adv-x="827" 
d="M591 -47l-12 1c-20 6 -36 33 -50 81c-13 48 -22 109 -26 182c-68 -147 -152 -221 -252 -221c-36 0 -76 11 -118 32c-45 24 -79 64 -104 120c-23 52 -35 110 -35 174v33c0 18 4 44 12 77c25 112 82 197 171 255c63 41 144 63 241 64c71 0 131 -13 182 -38
c10 15 24 30 42 45c23 20 43 30 58 30c25 0 37 -27 38 -80c0 -13 -3 -46 -7 -99c-9 -119 -14 -215 -14 -288c0 -74 3 -146 8 -216v-8c0 -34 -8 -62 -25 -84c-16 -22 -37 -39 -62 -49c-18 -7 -33 -11 -47 -11zM297 125c35 0 72 40 114 120c33 63 72 161 116 293
c6 29 18 69 36 122l1 6c-27 13 -55 19 -84 19c-80 0 -148 -43 -203 -129c-47 -75 -71 -156 -71 -245c0 -50 9 -94 28 -132c20 -36 41 -54 63 -54zM413 832c-60 0 -115 31 -163 93c-20 27 -29 56 -29 87c0 35 13 64 39 87c21 18 44 27 71 27c18 0 30 -9 37 -28
c3 -11 6 -32 8 -63c2 -36 6 -62 12 -76c12 -30 26 -44 42 -44c1 0 5 0 10 1s12 8 23 21c19 24 35 65 48 121c9 33 28 51 55 52c24 0 36 -15 36 -44c0 -24 -7 -55 -21 -94c-37 -93 -93 -140 -168 -140z" />
    <glyph glyph-name="aogonek" unicode="&#x105;" horiz-adv-x="827" 
d="M297 125c35 0 72 40 114 120c33 63 72 161 116 293c6 29 18 69 36 122l1 6c-27 13 -55 19 -84 19c-80 0 -148 -43 -203 -129c-47 -75 -71 -156 -71 -245c0 -50 9 -94 28 -132c20 -36 41 -54 63 -54zM651 -347c-39 0 -79 17 -121 51c-38 31 -67 71 -85 121
c-12 31 -18 64 -19 101c0 25 4 50 10 77c22 34 51 53 87 57c-10 45 -17 97 -20 157c-68 -147 -152 -221 -251 -221c-37 0 -77 11 -119 32c-45 24 -79 64 -104 120c-23 52 -35 110 -35 174v33c0 18 4 44 12 77c25 112 82 197 171 255c63 41 144 63 241 64
c71 0 131 -13 182 -38c10 15 24 30 42 45c23 20 43 30 58 30c25 0 37 -27 38 -80c0 -13 -3 -46 -7 -99c-9 -119 -14 -215 -14 -288c0 -74 3 -146 8 -216v-8c0 -70 -35 -116 -106 -140l-9 -28c-13 -38 -19 -67 -19 -88c0 -23 7 -40 20 -51c8 -8 24 -17 46 -29
c41 -20 62 -39 62 -55c0 -6 -2 -11 -5 -18c-13 -23 -34 -35 -63 -35z" />
    <glyph glyph-name="ae" unicode="&#xe6;" horiz-adv-x="1187" 
d="M578 -47c-26 0 -46 28 -62 84c-13 46 -22 106 -26 181c-68 -147 -152 -221 -254 -221c-5 0 -17 1 -35 2s-45 11 -81 30c-49 25 -86 70 -112 137c-19 49 -28 101 -28 156c0 60 9 116 28 166c27 76 72 138 135 186c71 52 158 78 262 78c69 0 130 -12 182 -37
c10 14 25 30 47 48s40 27 53 27c5 0 10 -1 16 -3c6 -3 11 -11 16 -24c64 40 124 60 180 62c38 0 70 -11 98 -32c36 -30 55 -66 58 -110c0 -73 -29 -144 -87 -212c-38 -45 -81 -80 -128 -106c-38 -21 -74 -31 -108 -31c-9 0 -19 1 -28 3c0 -46 1 -84 2 -115
c11 -66 39 -112 85 -138c20 -11 43 -17 67 -17c43 0 83 18 120 54c39 39 64 88 76 149c4 20 17 30 38 30c25 0 37 -14 37 -43c-16 -86 -55 -154 -117 -205c-59 -50 -131 -75 -214 -75c-42 0 -83 7 -123 20c-12 -11 -25 -20 -38 -27c-21 -11 -40 -17 -59 -17zM736 409
c43 0 91 26 144 79c36 36 64 75 83 117c11 24 17 47 17 68c0 13 -4 25 -10 36c-7 11 -14 19 -21 24s-15 8 -23 8c-13 -1 -25 -6 -38 -16c-13 -11 -26 -24 -39 -41s-26 -37 -38 -58s-23 -43 -34 -65s-20 -43 -28 -63c-9 -21 -16 -38 -21 -53c-6 -15 -10 -27 -11 -34
c6 -2 13 -2 19 -2zM284 125c30 0 62 30 97 89c44 76 89 185 133 325c7 33 16 63 27 92c5 15 8 25 9 31c1 3 1 5 2 5c-29 13 -58 19 -85 19c-63 0 -119 -28 -169 -83c-40 -45 -69 -100 -87 -165c-12 -45 -18 -87 -18 -127c0 -51 9 -95 28 -131c19 -37 40 -55 63 -55z" />
    <glyph glyph-name="oe" unicode="&#x153;" horiz-adv-x="1198" 
d="M281 -31c-64 0 -118 16 -161 48c-52 37 -89 90 -111 160c-15 47 -23 95 -23 144c0 59 11 115 32 167c27 67 70 118 129 152l-1 17c0 47 14 86 43 119c28 33 66 50 113 51c68 0 127 -36 177 -109c31 -45 54 -100 69 -166c61 132 154 218 279 258c30 10 57 15 80 15
c61 0 107 -26 139 -79c11 -19 18 -40 19 -63c0 -72 -29 -143 -88 -211c-38 -46 -81 -81 -128 -107c-38 -21 -73 -31 -106 -31c-10 0 -20 1 -30 3c-3 -18 -4 -36 -4 -53c0 -31 4 -61 12 -89c15 -53 41 -90 79 -111c20 -11 43 -17 67 -17c43 0 83 18 120 54
c39 39 64 88 76 149c4 20 17 30 38 30c13 0 24 -5 31 -15c5 -7 7 -14 7 -21l-1 -7c-17 -89 -58 -158 -121 -208c-60 -48 -129 -72 -209 -72c-4 0 -17 0 -40 1s-56 9 -99 25c-68 26 -116 74 -145 143c-28 -64 -67 -111 -119 -143c-37 -23 -78 -34 -124 -34zM429 428
c18 0 38 3 58 10c-10 102 -37 185 -78 247c-28 41 -56 62 -85 62c-36 0 -59 -26 -69 -78c13 1 26 1 40 1h21c14 -2 21 -8 21 -19s-18 -36 -54 -77l-16 -21c17 -44 45 -78 83 -101c25 -16 51 -24 79 -24zM745 409c43 0 91 26 144 79c38 38 66 77 84 117c11 25 16 47 16 65
c0 15 -3 27 -9 38c-7 11 -14 20 -21 25c-8 5 -16 8 -24 8c-13 -1 -25 -6 -38 -16c-13 -11 -26 -24 -39 -41s-26 -37 -38 -58s-23 -43 -34 -65s-20 -43 -28 -63c-9 -21 -16 -38 -21 -53s-9 -27 -11 -34c6 -2 13 -2 19 -2zM346 90c38 0 70 19 97 58c32 47 48 120 48 220v12
c-29 -15 -58 -22 -85 -22c-24 0 -47 4 -69 12c-23 9 -44 21 -65 38c-21 16 -39 35 -55 56c-22 -52 -33 -102 -33 -150c0 -54 13 -102 38 -143c33 -54 74 -81 124 -81z" />
    <glyph glyph-name="ccedilla" unicode="&#xe7;" horiz-adv-x="674" 
d="M335 -595c-24 0 -47 5 -69 15c-41 18 -73 48 -96 91c0 1 -1 4 -2 8c-1 3 -1 7 -1 10v9c1 4 3 9 8 15c4 6 11 11 22 14c8 3 14 4 20 4c16 0 31 -11 45 -34c19 -25 36 -38 52 -38c25 0 46 24 63 71c12 34 18 69 18 106c0 38 -7 67 -22 88c-11 13 -23 20 -38 20
c-17 0 -33 -14 -50 -43c-10 -18 -28 -27 -51 -27c-15 0 -27 6 -35 16c-6 8 -9 38 -9 91c0 62 5 116 15 162h-2c-76 16 -131 50 -167 104c-33 50 -50 112 -50 186c0 67 15 138 44 213c27 71 66 133 114 187c70 77 148 115 233 115c18 0 36 -2 53 -7c38 -10 68 -29 91 -56
c16 -21 25 -46 25 -76c0 -56 -22 -98 -67 -125c-5 -2 -10 -4 -14 -4c-10 0 -17 4 -21 10s-6 12 -6 17c0 9 4 16 12 21c29 18 43 50 43 96c0 34 -14 51 -42 51c-14 0 -30 -4 -47 -13c-35 -20 -68 -52 -98 -98c-35 -51 -61 -110 -79 -176c-14 -51 -21 -99 -21 -144
c0 -87 22 -151 67 -193c25 -23 53 -35 83 -35c40 0 77 20 113 59c26 29 46 64 59 106c1 7 4 12 9 17c7 7 16 11 27 11c10 0 19 -4 27 -11s12 -15 12 -25l-2 -10c-20 -72 -56 -128 -108 -167c-42 -32 -91 -51 -148 -58c0 -3 0 -6 -1 -9c-5 -23 -8 -51 -9 -85c12 3 25 4 37 4
c36 0 68 -10 95 -30s48 -43 63 -69c23 -39 35 -82 35 -128c0 -14 -2 -31 -5 -52s-10 -45 -22 -71c-13 -27 -29 -50 -49 -70s-43 -36 -69 -47s-54 -16 -85 -16z" />
    <glyph glyph-name="cacute" unicode="&#x107;" horiz-adv-x="674" 
d="M288 -26c-28 0 -56 3 -85 9c-76 16 -131 50 -167 104c-33 50 -50 112 -50 185c0 68 15 139 44 214c27 71 66 133 114 187c70 77 148 115 233 115c61 0 109 -21 144 -63c16 -21 25 -46 25 -76c0 -56 -22 -98 -67 -125c-5 -2 -10 -4 -14 -4c-10 0 -17 4 -21 10s-6 12 -6 17
c0 9 4 16 12 21c29 18 43 49 43 93c0 36 -14 54 -43 54c-14 0 -29 -4 -46 -13c-35 -20 -68 -52 -98 -98c-35 -51 -61 -110 -79 -176c-15 -51 -22 -101 -22 -149c0 -83 23 -146 68 -188c25 -23 53 -35 83 -35c40 0 77 20 113 59c26 29 46 64 59 106c4 19 16 28 38 28
c9 0 18 -4 25 -11c8 -7 12 -15 12 -25c-6 -34 -20 -70 -44 -107c-58 -88 -148 -132 -271 -132zM323 857c-27 0 -51 9 -69 27c-9 8 -14 15 -14 20c0 2 2 4 4 4c20 4 39 21 57 52c10 18 26 50 47 98c28 68 52 111 72 128c15 11 31 16 48 16c23 0 44 -8 62 -24
c19 -15 28 -35 28 -58s-7 -49 -20 -79c-25 -54 -62 -100 -110 -137c-40 -31 -75 -47 -105 -47z" />
    <glyph glyph-name="ccircumflex" unicode="&#x109;" horiz-adv-x="674" 
d="M288 -26c-28 0 -56 3 -85 9c-76 16 -131 50 -167 104c-33 50 -50 112 -50 185c0 68 15 139 44 214c27 71 66 133 114 187c70 77 148 115 233 115c61 0 109 -21 144 -63c16 -21 25 -46 25 -76c0 -56 -22 -98 -67 -125c-5 -2 -10 -4 -14 -4c-10 0 -17 4 -21 10s-6 12 -6 17
c0 9 4 16 12 21c29 18 43 49 43 93c0 36 -14 54 -43 54c-14 0 -29 -4 -46 -13c-35 -20 -68 -52 -98 -98c-35 -51 -61 -110 -79 -176c-15 -51 -22 -101 -22 -149c0 -83 23 -146 68 -188c25 -23 53 -35 83 -35c40 0 77 20 113 59c26 29 46 64 59 106c4 19 16 28 38 28
c9 0 18 -4 25 -11c8 -7 12 -15 12 -25c-6 -34 -20 -70 -44 -107c-58 -88 -148 -132 -271 -132zM504 866h-17c-65 9 -117 69 -158 181l-78 -158c-8 -15 -20 -23 -38 -23c-7 0 -13 1 -19 4c-16 9 -24 22 -24 39c0 6 31 71 92 195c15 31 41 46 77 46c23 0 46 -3 69 -8
c7 -1 21 -36 41 -103c26 -87 47 -138 63 -152c5 -4 8 -8 8 -11c0 -5 -6 -8 -16 -10z" />
    <glyph glyph-name="ccaron" unicode="&#x10d;" horiz-adv-x="674" 
d="M288 -26c-28 0 -56 3 -85 9c-76 16 -131 50 -167 104c-33 50 -50 112 -50 185c0 68 15 139 44 214c27 71 66 133 114 187c70 77 148 115 233 115c61 0 109 -21 144 -63c16 -21 25 -46 25 -76c0 -56 -22 -98 -67 -125c-5 -2 -10 -4 -14 -4c-10 0 -17 4 -21 10s-6 12 -6 17
c0 9 4 16 12 21c29 18 43 49 43 93c0 36 -14 54 -43 54c-14 0 -29 -4 -46 -13c-35 -20 -68 -52 -98 -98c-35 -51 -61 -110 -79 -176c-15 -51 -22 -101 -22 -149c0 -83 23 -146 68 -188c25 -23 53 -35 83 -35c40 0 77 20 113 59c26 29 46 64 59 106c4 19 16 28 38 28
c9 0 18 -4 25 -11c8 -7 12 -15 12 -25c-6 -34 -20 -70 -44 -107c-58 -88 -148 -132 -271 -132zM377 862c-45 0 -70 7 -77 23c-4 9 -21 60 -50 153c-16 46 -30 76 -43 87c-5 4 -8 8 -8 11c0 5 6 8 16 10c18 0 35 -3 52 -10c48 -22 89 -79 123 -171l78 158c8 15 20 23 38 23
c6 0 13 -1 19 -4c16 -9 24 -22 24 -39c0 -6 -31 -71 -92 -195c-16 -31 -43 -46 -80 -46z" />
    <glyph glyph-name="egrave" unicode="&#xe8;" horiz-adv-x="688" 
d="M284 -23c-5 0 -18 0 -41 1s-55 9 -98 25c-30 11 -56 27 -78 47c-65 59 -97 146 -97 262c0 65 12 130 37 197c47 130 129 223 244 279c49 23 94 35 134 35c57 0 102 -26 136 -78c13 -22 19 -46 19 -74c0 -64 -29 -131 -87 -200c-39 -46 -82 -81 -129 -107
c-37 -20 -72 -30 -105 -30c-11 0 -21 1 -31 3c-2 -17 -3 -34 -3 -51l2 -36c2 -44 14 -82 35 -113c31 -47 71 -71 121 -71c49 0 94 24 134 71c32 37 52 81 61 132c1 7 4 13 9 18c7 9 17 13 27 13s20 -3 28 -10c8 -6 12 -15 12 -27l-1 -7c-17 -89 -58 -158 -121 -208
c-61 -47 -130 -71 -208 -71zM221 408c21 0 46 8 73 24c33 18 64 46 95 81c50 58 75 111 75 158c0 14 -3 26 -9 37c-7 11 -14 19 -21 24c-8 5 -16 7 -24 7c-20 0 -42 -15 -67 -44c-40 -49 -79 -119 -116 -213c-14 -35 -22 -59 -25 -72c6 -2 12 -2 19 -2zM421 874
c-30 0 -65 16 -104 47c-50 39 -87 85 -110 137c-14 30 -20 58 -20 81c0 22 9 40 27 56s39 24 63 24c29 0 53 -16 73 -47c10 -16 25 -49 47 -97c15 -37 31 -70 48 -98c17 -31 36 -48 56 -52c2 0 3 -2 3 -4c-4 -14 -17 -26 -37 -36c-13 -7 -28 -11 -46 -11z" />
    <glyph glyph-name="eacute" unicode="&#xe9;" horiz-adv-x="688" 
d="M284 -23c-5 0 -18 0 -41 1s-55 9 -98 25c-30 11 -56 27 -78 47c-65 59 -97 146 -97 262c0 65 12 130 37 197c47 130 129 223 244 279c49 23 94 35 134 35c57 0 102 -26 136 -78c13 -22 19 -46 19 -74c0 -64 -29 -131 -87 -200c-39 -46 -82 -81 -129 -107
c-37 -20 -72 -30 -105 -30c-11 0 -21 1 -31 3c-2 -17 -3 -34 -3 -51l2 -36c2 -44 14 -82 35 -113c31 -47 71 -71 121 -71c49 0 94 24 134 71c32 37 52 81 61 132c1 7 4 13 9 18c7 9 17 13 27 13s20 -3 28 -10c8 -6 12 -15 12 -27l-1 -7c-17 -89 -58 -158 -121 -208
c-61 -47 -130 -71 -208 -71zM221 408c21 0 46 8 73 24c33 18 64 46 95 81c50 58 75 111 75 158c0 14 -3 26 -9 37c-7 11 -14 19 -21 24c-8 5 -16 7 -24 7c-20 0 -42 -15 -67 -44c-40 -49 -79 -119 -116 -213c-14 -35 -22 -59 -25 -72c6 -2 12 -2 19 -2zM311 857
c-27 0 -51 9 -69 27c-9 8 -14 15 -14 20c0 2 2 4 4 4c20 4 39 21 57 52c10 18 26 50 47 98c28 68 52 111 72 128c15 11 31 16 48 16c23 0 44 -8 62 -24c19 -15 28 -35 28 -58s-7 -49 -20 -79c-25 -54 -62 -100 -110 -137c-40 -31 -75 -47 -105 -47z" />
    <glyph glyph-name="ecircumflex" unicode="&#xea;" horiz-adv-x="688" 
d="M284 -23c-5 0 -18 0 -41 1s-55 9 -98 25c-30 11 -56 27 -78 47c-65 59 -97 146 -97 262c0 65 12 130 37 197c47 130 129 223 244 279c49 23 94 35 134 35c57 0 102 -26 136 -78c13 -22 19 -46 19 -74c0 -64 -29 -131 -87 -200c-39 -46 -82 -81 -129 -107
c-37 -20 -72 -30 -105 -30c-11 0 -21 1 -31 3c-2 -17 -3 -34 -3 -51l2 -36c2 -44 14 -82 35 -113c31 -47 71 -71 121 -71c49 0 94 24 134 71c32 37 52 81 61 132c1 7 4 13 9 18c7 9 17 13 27 13s20 -3 28 -10c8 -6 12 -15 12 -27l-1 -7c-17 -89 -58 -158 -121 -208
c-61 -47 -130 -71 -208 -71zM221 408c21 0 46 8 73 24c33 18 64 46 95 81c50 58 75 111 75 158c0 14 -3 26 -9 37c-7 11 -14 19 -21 24c-8 5 -16 7 -24 7c-20 0 -42 -15 -67 -44c-40 -49 -79 -119 -116 -213c-14 -35 -22 -59 -25 -72c6 -2 12 -2 19 -2zM508 866h-17
c-65 9 -117 69 -158 181l-78 -158c-8 -15 -20 -23 -38 -23c-7 0 -13 1 -19 4c-16 9 -24 22 -24 39c0 6 31 71 92 195c15 31 41 46 77 46c23 0 46 -3 69 -8c7 -1 21 -36 41 -103c26 -87 47 -138 63 -152c5 -4 8 -8 8 -11c0 -5 -6 -8 -16 -10z" />
    <glyph glyph-name="edieresis" unicode="&#xeb;" horiz-adv-x="688" 
d="M284 -23c-5 0 -18 0 -41 1s-55 9 -98 25c-30 11 -56 27 -78 47c-65 59 -97 146 -97 262c0 65 12 130 37 197c47 130 129 223 244 279c49 23 94 35 134 35c57 0 102 -26 136 -78c13 -22 19 -46 19 -74c0 -64 -29 -131 -87 -200c-39 -46 -82 -81 -129 -107
c-37 -20 -72 -30 -105 -30c-11 0 -21 1 -31 3c-2 -17 -3 -34 -3 -51l2 -36c2 -44 14 -82 35 -113c31 -47 71 -71 121 -71c49 0 94 24 134 71c32 37 52 81 61 132c1 7 4 13 9 18c7 9 17 13 27 13s20 -3 28 -10c8 -6 12 -15 12 -27l-1 -7c-17 -89 -58 -158 -121 -208
c-61 -47 -130 -71 -208 -71zM221 408c21 0 46 8 73 24c33 18 64 46 95 81c50 58 75 111 75 158c0 14 -3 26 -9 37c-7 11 -14 19 -21 24c-8 5 -16 7 -24 7c-20 0 -42 -15 -67 -44c-40 -49 -79 -119 -116 -213c-14 -35 -22 -59 -25 -72c6 -2 12 -2 19 -2zM218 859
c-12 0 -26 3 -40 8c-34 11 -59 33 -75 64c-9 20 -14 38 -14 55c0 26 10 47 30 64c21 16 46 24 76 24c35 0 64 -13 85 -38c16 -19 24 -47 24 -83c0 -35 -10 -61 -31 -77c-15 -11 -33 -17 -55 -17zM487 859c-12 0 -26 3 -40 8c-34 11 -59 33 -75 64c-9 20 -14 38 -14 55
c0 26 10 47 30 64c21 16 46 24 76 24c35 0 64 -13 85 -38c16 -19 24 -47 24 -83c0 -35 -10 -61 -31 -77c-15 -11 -33 -17 -55 -17z" />
    <glyph glyph-name="emacron" unicode="&#x113;" horiz-adv-x="688" 
d="M284 -23c-5 0 -18 0 -41 1s-55 9 -98 25c-30 11 -56 27 -78 47c-65 59 -97 146 -97 262c0 65 12 130 37 197c47 130 129 223 244 279c49 23 94 35 134 35c57 0 102 -26 136 -78c13 -22 19 -46 19 -74c0 -64 -29 -131 -87 -200c-39 -46 -82 -81 -129 -107
c-37 -20 -72 -30 -105 -30c-11 0 -21 1 -31 3c-2 -17 -3 -34 -3 -51l2 -36c2 -44 14 -82 35 -113c31 -47 71 -71 121 -71c49 0 94 24 134 71c32 37 52 81 61 132c1 7 4 13 9 18c7 9 17 13 27 13s20 -3 28 -10c8 -6 12 -15 12 -27l-1 -7c-17 -89 -58 -158 -121 -208
c-61 -47 -130 -71 -208 -71zM221 408c21 0 46 8 73 24c33 18 64 46 95 81c50 58 75 111 75 158c0 14 -3 26 -9 37c-7 11 -14 19 -21 24c-8 5 -16 7 -24 7c-20 0 -42 -15 -67 -44c-40 -49 -79 -119 -116 -213c-14 -35 -22 -59 -25 -72c6 -2 12 -2 19 -2zM468 889l-237 4
c-9 0 -17 3 -24 7c-8 4 -13 10 -17 17c-4 8 -6 16 -6 25c0 13 5 24 14 33s20 13 33 14l238 -4c19 -1 32 -9 41 -24c4 -8 6 -16 6 -25s-2 -17 -7 -24c-4 -7 -10 -12 -17 -17c-7 -4 -15 -6 -24 -6z" />
    <glyph glyph-name="ecaron" unicode="&#x11b;" horiz-adv-x="688" 
d="M284 -23c-5 0 -18 0 -41 1s-55 9 -98 25c-30 11 -56 27 -78 47c-65 59 -97 146 -97 262c0 65 12 130 37 197c47 130 129 223 244 279c49 23 94 35 134 35c57 0 102 -26 136 -78c13 -22 19 -46 19 -74c0 -64 -29 -131 -87 -200c-39 -46 -82 -81 -129 -107
c-37 -20 -72 -30 -105 -30c-11 0 -21 1 -31 3c-2 -17 -3 -34 -3 -51l2 -36c2 -44 14 -82 35 -113c31 -47 71 -71 121 -71c49 0 94 24 134 71c32 37 52 81 61 132c1 7 4 13 9 18c7 9 17 13 27 13s20 -3 28 -10c8 -6 12 -15 12 -27l-1 -7c-17 -89 -58 -158 -121 -208
c-61 -47 -130 -71 -208 -71zM221 408c21 0 46 8 73 24c33 18 64 46 95 81c50 58 75 111 75 158c0 14 -3 26 -9 37c-7 11 -14 19 -21 24c-8 5 -16 7 -24 7c-20 0 -42 -15 -67 -44c-40 -49 -79 -119 -116 -213c-14 -35 -22 -59 -25 -72c6 -2 12 -2 19 -2zM369 862
c-45 0 -70 7 -77 23c-4 9 -21 60 -50 153c-16 46 -30 76 -43 87c-5 4 -8 8 -8 11c0 5 6 8 16 10c18 0 35 -3 52 -10c48 -22 89 -79 123 -171l78 158c8 15 20 23 38 23c6 0 13 -1 19 -4c16 -9 24 -22 24 -39c0 -6 -31 -71 -92 -195c-16 -31 -43 -46 -80 -46z" />
    <glyph glyph-name="igrave" unicode="&#xec;" horiz-adv-x="312" 
d="M166 876c-2 0 -7 0 -15 1s-18 6 -29 13c-12 7 -22 17 -31 28s-16 22 -21 34s-8 24 -8 36c0 21 10 38 31 54c26 19 59 28 98 28c9 -1 18 -4 26 -8c15 -8 28 -17 37 -26c13 -13 19 -29 19 -48c0 -21 -11 -45 -33 -72c-23 -27 -47 -40 -74 -40zM133 -29
c-96 0 -144 100 -144 301c0 118 16 234 48 347c21 68 47 120 79 156c19 23 38 34 55 34c11 0 20 -4 29 -11c17 -16 25 -40 25 -75v-14c-9 -100 -14 -267 -15 -500c0 -78 3 -132 11 -161l2 -11c0 -10 -4 -20 -11 -30c-8 -11 -16 -19 -24 -24c-11 -8 -29 -12 -55 -12z
M228 1119c-30 0 -65 16 -104 47c-50 39 -87 85 -110 137c-14 30 -20 58 -20 81c0 22 9 40 27 56s39 24 63 24c29 0 53 -16 73 -47c10 -16 25 -49 47 -97c15 -37 31 -70 48 -98c17 -31 36 -48 56 -52c2 0 3 -2 3 -4c-4 -14 -17 -26 -37 -36c-13 -7 -28 -11 -46 -11z" />
    <glyph glyph-name="iacute" unicode="&#xed;" horiz-adv-x="312" 
d="M166 876c-2 0 -7 0 -15 1s-18 6 -29 13c-12 7 -22 17 -31 28s-16 22 -21 34s-8 24 -8 36c0 21 10 38 31 54c26 19 59 28 98 28c9 -1 18 -4 26 -8c15 -8 28 -17 37 -26c13 -13 19 -29 19 -48c0 -21 -11 -45 -33 -72c-23 -27 -47 -40 -74 -40zM133 -29
c-96 0 -144 100 -144 301c0 118 16 234 48 347c21 68 47 120 79 156c19 23 38 34 55 34c11 0 20 -4 29 -11c17 -16 25 -40 25 -75v-14c-9 -100 -14 -267 -15 -500c0 -78 3 -132 11 -161l2 -11c0 -10 -4 -20 -11 -30c-8 -11 -16 -19 -24 -24c-11 -8 -29 -12 -55 -12z
M155 1126c-27 0 -51 9 -69 27c-9 8 -14 15 -14 20c0 2 2 4 4 4c20 4 39 21 57 52c10 18 26 50 47 98c28 68 52 111 72 128c15 11 31 16 48 16c23 0 44 -8 62 -24c19 -15 28 -35 28 -58s-7 -49 -20 -79c-25 -54 -62 -100 -110 -137c-40 -31 -75 -47 -105 -47z" />
    <glyph glyph-name="icircumflex" unicode="&#xee;" horiz-adv-x="312" 
d="M166 876c-2 0 -7 0 -15 1s-18 6 -29 13c-12 7 -22 17 -31 28s-16 22 -21 34s-8 24 -8 36c0 21 10 38 31 54c26 19 59 28 98 28c9 -1 18 -4 26 -8c15 -8 28 -17 37 -26c13 -13 19 -29 19 -48c0 -21 -11 -45 -33 -72c-23 -27 -47 -40 -74 -40zM133 -29
c-96 0 -144 100 -144 301c0 118 16 234 48 347c21 68 47 120 79 156c19 23 38 34 55 34c11 0 20 -4 29 -11c17 -16 25 -40 25 -75v-14c-9 -100 -14 -267 -15 -500c0 -78 3 -132 11 -161l2 -11c0 -10 -4 -20 -11 -30c-8 -11 -16 -19 -24 -24c-11 -8 -29 -12 -55 -12z
M336 1093h-17c-65 9 -117 69 -158 181l-78 -158c-8 -15 -20 -23 -38 -23c-7 0 -13 1 -19 4c-16 9 -24 22 -24 39c0 6 31 71 92 195c15 31 41 46 77 46c23 0 46 -3 69 -8c7 -1 21 -36 41 -103c26 -87 47 -138 63 -152c5 -4 8 -8 8 -11c0 -5 -6 -8 -16 -10z" />
    <glyph glyph-name="idieresis" unicode="&#xef;" horiz-adv-x="312" 
d="M85 876c-2 0 -7 0 -15 1s-18 6 -29 13c-12 7 -22 17 -31 28s-16 22 -21 34s-8 24 -8 36c0 21 10 38 31 54c26 19 59 28 98 28c9 -1 18 -4 26 -8c15 -8 28 -17 37 -26c13 -13 19 -29 19 -48c0 -21 -11 -45 -33 -72c-23 -27 -47 -40 -74 -40zM52 -29
c-96 0 -144 100 -144 301c0 118 16 234 48 347c21 68 47 120 79 156c19 23 38 34 55 34c11 0 20 -4 29 -11c17 -16 25 -40 25 -75v-14c-9 -100 -14 -267 -15 -500c0 -78 3 -132 11 -161l2 -11c0 -10 -4 -20 -11 -30c-8 -11 -16 -19 -24 -24c-11 -8 -29 -12 -55 -12z
M-43 1132c-12 0 -26 3 -40 8c-34 11 -59 33 -75 64c-9 20 -14 38 -14 55c0 26 10 47 30 64c21 16 46 24 76 24c35 0 64 -13 85 -38c16 -19 24 -47 24 -83c0 -35 -10 -61 -31 -77c-15 -11 -33 -17 -55 -17zM226 1132c-12 0 -26 3 -40 8c-34 11 -59 33 -75 64
c-9 20 -14 38 -14 55c0 26 10 47 30 64c21 16 46 24 76 24c35 0 64 -13 85 -38c16 -19 24 -47 24 -83c0 -35 -10 -61 -31 -77c-15 -11 -33 -17 -55 -17z" />
    <glyph glyph-name="imacron" unicode="&#x12b;" horiz-adv-x="312" 
d="M166 876c-2 0 -7 0 -15 1s-18 6 -29 13c-12 7 -22 17 -31 28s-16 22 -21 34s-8 24 -8 36c0 21 10 38 31 54c26 19 59 28 98 28c9 -1 18 -4 26 -8c15 -8 28 -17 37 -26c13 -13 19 -29 19 -48c0 -21 -11 -45 -33 -72c-23 -27 -47 -40 -74 -40zM133 -29
c-96 0 -144 100 -144 301c0 118 16 234 48 347c21 68 47 120 79 156c19 23 38 34 55 34c11 0 20 -4 29 -11c17 -16 25 -40 25 -75v-14c-9 -100 -14 -267 -15 -500c0 -78 3 -132 11 -161l2 -11c0 -10 -4 -20 -11 -30c-8 -11 -16 -19 -24 -24c-11 -8 -29 -12 -55 -12z
M300 1143l-237 4c-9 0 -17 3 -24 7c-8 4 -13 10 -17 17c-4 8 -6 16 -6 25c0 13 5 24 14 33s20 13 33 14l238 -4c19 -1 32 -9 41 -24c4 -8 6 -16 6 -25s-2 -17 -7 -24c-4 -7 -10 -12 -17 -17c-7 -4 -15 -6 -24 -6z" />
    <glyph glyph-name="eth" unicode="&#xf0;" horiz-adv-x="882" 
d="M295 125c31 0 63 42 96 127c30 75 58 178 86 308c8 37 14 68 18 93c1 5 1 7 2 8c-32 19 -66 28 -100 28c-32 0 -60 -7 -84 -20c-44 -24 -76 -64 -99 -121c-19 -47 -28 -100 -28 -157c0 -76 13 -142 40 -197c22 -46 45 -69 69 -69zM781 860c19 72 28 136 28 192
c0 23 -2 45 -6 66c-4 16 -8 25 -12 26c-6 0 -11 -15 -16 -45c-11 -67 -21 -143 -30 -228zM552 930c14 51 31 96 50 134c51 104 114 156 187 156c49 0 80 -37 93 -110c3 -17 4 -38 4 -65c0 -61 -10 -130 -31 -207l72 -22c17 -5 28 -17 32 -35c2 -8 2 -16 -1 -25
c-3 -8 -7 -15 -13 -20c-7 -6 -14 -10 -22 -12s-16 -2 -25 1l-72 22c-28 -76 -62 -146 -104 -209c-7 -175 -10 -308 -10 -400c0 -51 -1 -84 -4 -100c-4 -27 -19 -48 -46 -63c-18 -10 -37 -15 -58 -15c-38 0 -65 18 -82 54c-17 41 -28 119 -33 233c-18 -58 -37 -105 -56 -141
c-44 -81 -100 -121 -167 -121c-17 0 -36 3 -58 10c-56 17 -103 49 -141 96c-39 47 -67 104 -84 172c-12 47 -18 95 -19 144c0 58 9 111 28 160c25 67 65 118 121 153c53 33 116 49 190 49c81 0 150 -15 207 -46c6 41 12 79 19 114l-73 23c-9 3 -16 7 -21 13s-9 13 -11 22
c-2 8 -2 16 1 25c4 12 12 21 23 27s22 7 35 4zM752 770l-16 4c-1 -17 -3 -35 -4 -54c7 17 14 33 20 50z" />
    <glyph glyph-name="ntilde" unicode="&#xf1;" horiz-adv-x="710" 
d="M571 -49c-17 0 -36 11 -55 34c-46 51 -78 140 -97 267c-9 56 -13 115 -13 175c0 25 1 51 3 78c-45 -97 -90 -210 -135 -340c-36 -103 -54 -158 -54 -165c-4 -16 -15 -25 -31 -29c-9 -6 -25 -8 -49 -8c-106 0 -158 107 -158 323c0 59 5 129 16 211c6 53 15 98 24 136
c15 63 37 112 65 147c25 30 49 45 73 45c12 0 22 -4 31 -12c12 -12 18 -32 18 -59c0 -10 -1 -21 -3 -33c-14 -124 -21 -258 -21 -404c0 -52 1 -100 4 -143c65 206 138 371 219 495c35 53 61 86 80 100c20 20 45 30 74 30c15 0 31 -4 50 -11c16 -11 24 -26 24 -44
c0 -8 -2 -17 -6 -29c-12 -28 -23 -76 -33 -143c-9 -60 -13 -127 -13 -204c0 -95 7 -200 22 -313c3 -16 5 -30 5 -43c0 -27 -7 -46 -21 -56c-6 -4 -12 -5 -19 -5zM59 889c-16 0 -27 7 -34 20c-4 7 -6 14 -6 22l1 10c12 54 41 88 86 105c23 8 52 12 84 12c31 0 83 -5 157 -15
c63 -10 111 -14 144 -15c53 0 83 15 91 43c6 22 17 33 32 33c17 -2 32 -13 44 -33c10 -17 14 -34 14 -52c0 -42 -21 -77 -65 -106c-21 -14 -49 -21 -82 -21c-12 0 -28 1 -46 4c-19 2 -41 6 -67 12s-52 12 -79 19c-21 6 -43 12 -64 17s-41 9 -60 12s-36 4 -51 4
c-33 -1 -54 -13 -62 -36c-6 -23 -18 -35 -37 -35z" />
    <glyph glyph-name="ograve" unicode="&#xf2;" horiz-adv-x="659" 
d="M279 -31c-120 0 -205 58 -256 176c-23 53 -35 111 -35 172c0 71 14 136 41 192c27 57 67 100 119 130v13c0 50 14 91 43 124c28 33 66 49 112 49c43 0 84 -15 122 -46c42 -34 75 -85 101 -153c30 -83 45 -167 45 -252c0 -90 -17 -170 -52 -241
c-29 -60 -69 -104 -118 -133c-35 -21 -76 -31 -122 -31zM432 427c18 0 36 3 56 10c-7 59 -19 113 -38 164c-13 34 -26 62 -41 83s-29 37 -43 47c-15 10 -29 15 -42 15c-17 0 -31 -7 -43 -21s-20 -33 -25 -57c13 1 26 1 40 1h21c14 -2 21 -8 21 -20c0 -11 -18 -36 -54 -76
l-16 -21c6 -17 14 -32 25 -47c36 -52 82 -78 139 -78zM347 90c2 0 9 0 20 1s24 7 41 19c56 40 83 122 83 247v22c-29 -14 -58 -22 -87 -22c-68 0 -130 36 -186 106c-22 -52 -33 -102 -33 -151c0 -73 22 -133 66 -177c29 -30 61 -45 96 -45zM363 918c-30 0 -65 16 -104 47
c-50 39 -87 85 -110 137c-14 30 -20 58 -20 81c0 22 9 40 27 56s39 24 63 24c29 0 53 -16 73 -47c10 -16 25 -49 47 -97c15 -37 31 -70 48 -98c17 -31 36 -48 56 -52c2 0 3 -2 3 -4c-4 -14 -17 -26 -37 -36c-13 -7 -28 -11 -46 -11z" />
    <glyph glyph-name="oacute" unicode="&#xf3;" horiz-adv-x="659" 
d="M279 -31c-120 0 -205 58 -256 176c-23 53 -35 111 -35 172c0 71 14 136 41 192c27 57 67 100 119 130v13c0 50 14 91 43 124c28 33 66 49 112 49c43 0 84 -15 122 -46c42 -34 75 -85 101 -153c30 -83 45 -167 45 -252c0 -90 -17 -170 -52 -241
c-29 -60 -69 -104 -118 -133c-35 -21 -76 -31 -122 -31zM432 427c18 0 36 3 56 10c-7 59 -19 113 -38 164c-13 34 -26 62 -41 83s-29 37 -43 47c-15 10 -29 15 -42 15c-17 0 -31 -7 -43 -21s-20 -33 -25 -57c13 1 26 1 40 1h21c14 -2 21 -8 21 -20c0 -11 -18 -36 -54 -76
l-16 -21c6 -17 14 -32 25 -47c36 -52 82 -78 139 -78zM347 90c2 0 9 0 20 1s24 7 41 19c56 40 83 122 83 247v22c-29 -14 -58 -22 -87 -22c-68 0 -130 36 -186 106c-22 -52 -33 -102 -33 -151c0 -73 22 -133 66 -177c29 -30 61 -45 96 -45zM234 880c-27 0 -51 9 -69 27
c-9 8 -14 15 -14 20c0 2 2 4 4 4c20 4 39 21 57 52c10 18 26 50 47 98c28 68 52 111 72 128c15 11 31 16 48 16c23 0 44 -8 62 -24c19 -15 28 -35 28 -58s-7 -49 -20 -79c-25 -54 -62 -100 -110 -137c-40 -31 -75 -47 -105 -47z" />
    <glyph glyph-name="ocircumflex" unicode="&#xf4;" horiz-adv-x="659" 
d="M279 -31c-120 0 -205 58 -256 176c-23 53 -35 111 -35 172c0 71 14 136 41 192c27 57 67 100 119 130v13c0 50 14 91 43 124c28 33 66 49 112 49c43 0 84 -15 122 -46c42 -34 75 -85 101 -153c30 -83 45 -167 45 -252c0 -90 -17 -170 -52 -241
c-29 -60 -69 -104 -118 -133c-35 -21 -76 -31 -122 -31zM432 427c18 0 36 3 56 10c-7 59 -19 113 -38 164c-13 34 -26 62 -41 83s-29 37 -43 47c-15 10 -29 15 -42 15c-17 0 -31 -7 -43 -21s-20 -33 -25 -57c13 1 26 1 40 1h21c14 -2 21 -8 21 -20c0 -11 -18 -36 -54 -76
l-16 -21c6 -17 14 -32 25 -47c36 -52 82 -78 139 -78zM347 90c2 0 9 0 20 1s24 7 41 19c56 40 83 122 83 247v22c-29 -14 -58 -22 -87 -22c-68 0 -130 36 -186 106c-22 -52 -33 -102 -33 -151c0 -73 22 -133 66 -177c29 -30 61 -45 96 -45zM467 862h-17
c-65 9 -117 69 -158 181l-78 -158c-8 -15 -20 -23 -38 -23c-7 0 -13 1 -19 4c-16 9 -24 22 -24 39c0 6 31 71 92 195c15 31 41 46 77 46c23 0 46 -3 69 -8c7 -1 21 -36 41 -103c26 -87 47 -138 63 -152c5 -4 8 -8 8 -11c0 -5 -6 -8 -16 -10z" />
    <glyph glyph-name="otilde" unicode="&#xf5;" horiz-adv-x="659" 
d="M279 -31c-120 0 -205 58 -256 176c-23 53 -35 111 -35 172c0 71 14 136 41 192c27 57 67 100 119 130v13c0 50 14 91 43 124c28 33 66 49 112 49c43 0 84 -15 122 -46c42 -34 75 -85 101 -153c30 -83 45 -167 45 -252c0 -90 -17 -170 -52 -241
c-29 -60 -69 -104 -118 -133c-35 -21 -76 -31 -122 -31zM432 427c18 0 36 3 56 10c-7 59 -19 113 -38 164c-13 34 -26 62 -41 83s-29 37 -43 47c-15 10 -29 15 -42 15c-17 0 -31 -7 -43 -21s-20 -33 -25 -57c13 1 26 1 40 1h21c14 -2 21 -8 21 -20c0 -11 -18 -36 -54 -76
l-16 -21c6 -17 14 -32 25 -47c36 -52 82 -78 139 -78zM347 90c2 0 9 0 20 1s24 7 41 19c56 40 83 122 83 247v22c-29 -14 -58 -22 -87 -22c-68 0 -130 36 -186 106c-22 -52 -33 -102 -33 -151c0 -73 22 -133 66 -177c29 -30 61 -45 96 -45zM54 893c-16 0 -27 7 -34 20
c-4 7 -6 14 -6 22l1 10c12 54 41 88 86 105c23 8 52 12 84 12c31 0 83 -5 157 -15c63 -10 111 -14 144 -15c53 0 83 15 91 43c6 22 17 33 32 33c17 -2 32 -13 44 -33c10 -17 14 -34 14 -52c0 -42 -21 -77 -65 -106c-21 -14 -49 -21 -82 -21c-12 0 -28 1 -46 4
c-19 2 -41 6 -67 12s-52 12 -79 19c-21 6 -43 12 -64 17s-41 9 -60 12s-36 4 -51 4c-33 -1 -54 -13 -62 -36c-6 -23 -18 -35 -37 -35z" />
    <glyph glyph-name="odieresis" unicode="&#xf6;" horiz-adv-x="659" 
d="M279 -31c-120 0 -205 58 -256 176c-23 53 -35 111 -35 172c0 71 14 136 41 192c27 57 67 100 119 130v13c0 50 14 91 43 124c28 33 66 49 112 49c43 0 84 -15 122 -46c42 -34 75 -85 101 -153c30 -83 45 -167 45 -252c0 -90 -17 -170 -52 -241
c-29 -60 -69 -104 -118 -133c-35 -21 -76 -31 -122 -31zM432 427c18 0 36 3 56 10c-7 59 -19 113 -38 164c-13 34 -26 62 -41 83s-29 37 -43 47c-15 10 -29 15 -42 15c-17 0 -31 -7 -43 -21s-20 -33 -25 -57c13 1 26 1 40 1h21c14 -2 21 -8 21 -20c0 -11 -18 -36 -54 -76
l-16 -21c6 -17 14 -32 25 -47c36 -52 82 -78 139 -78zM347 90c2 0 9 0 20 1s24 7 41 19c56 40 83 122 83 247v22c-29 -14 -58 -22 -87 -22c-68 0 -130 36 -186 106c-22 -52 -33 -102 -33 -151c0 -73 22 -133 66 -177c29 -30 61 -45 96 -45zM189 897c-12 0 -26 3 -40 8
c-34 11 -59 33 -75 64c-9 20 -14 38 -14 55c0 26 10 47 30 64c21 16 46 24 76 24c35 0 64 -13 85 -38c16 -19 24 -47 24 -83c0 -35 -10 -61 -31 -77c-15 -11 -33 -17 -55 -17zM458 897c-12 0 -26 3 -40 8c-34 11 -59 33 -75 64c-9 20 -14 38 -14 55c0 26 10 47 30 64
c21 16 46 24 76 24c35 0 64 -13 85 -38c16 -19 24 -47 24 -83c0 -35 -10 -61 -31 -77c-15 -11 -33 -17 -55 -17z" />
    <glyph glyph-name="racute" unicode="&#x155;" horiz-adv-x="593" 
d="M120 -27h-4c-85 0 -127 120 -127 359c0 65 4 141 14 227c7 64 14 113 22 150c17 81 52 121 105 121c11 0 21 -3 30 -8c9 -6 17 -15 22 -26s7 -24 7 -40l-1 -112l1 -104c14 45 30 84 47 117c54 101 115 151 184 151c42 0 75 -20 101 -60c22 -34 34 -81 37 -140
c0 -7 -2 -14 -5 -19c-3 -6 -8 -11 -13 -14c-6 -3 -12 -5 -19 -5s-14 2 -19 6c-13 8 -20 19 -21 33c-1 31 -4 57 -11 77c-12 31 -27 46 -47 46c-13 0 -27 -5 -43 -17c-28 -20 -53 -53 -77 -98c-57 -109 -86 -257 -86 -443l4 -133c0 -25 -16 -44 -47 -56
c-15 -6 -33 -10 -54 -12zM260 884c-27 0 -51 9 -69 27c-9 8 -14 15 -14 20c0 2 2 4 4 4c20 4 39 21 57 52c10 18 26 50 47 98c28 68 52 111 72 128c15 11 31 16 48 16c23 0 44 -8 62 -24c19 -15 28 -35 28 -58s-7 -49 -20 -79c-25 -54 -62 -100 -110 -137
c-40 -31 -75 -47 -105 -47z" />
    <glyph glyph-name="rcaron" unicode="&#x159;" horiz-adv-x="593" 
d="M120 -27h-4c-85 0 -127 120 -127 359c0 65 4 141 14 227c7 64 14 113 22 150c17 81 52 121 105 121c11 0 21 -3 30 -8c9 -6 17 -15 22 -26s7 -24 7 -40l-1 -112l1 -104c14 45 30 84 47 117c54 101 115 151 184 151c42 0 75 -20 101 -60c22 -34 34 -81 37 -140
c0 -7 -2 -14 -5 -19c-3 -6 -8 -11 -13 -14c-6 -3 -12 -5 -19 -5s-14 2 -19 6c-13 8 -20 19 -21 33c-1 31 -4 57 -11 77c-12 31 -27 46 -47 46c-13 0 -27 -5 -43 -17c-28 -20 -53 -53 -77 -98c-57 -109 -86 -257 -86 -443l4 -133c0 -25 -16 -44 -47 -56
c-15 -6 -33 -10 -54 -12zM310 873c-45 0 -70 7 -77 23c-4 9 -21 60 -50 153c-16 46 -30 76 -43 87c-5 4 -8 8 -8 11c0 5 6 8 16 10c18 0 35 -3 52 -10c48 -22 89 -79 123 -171l78 158c8 15 20 23 38 23c6 0 13 -1 19 -4c16 -9 24 -22 24 -39c0 -6 -31 -71 -92 -195
c-16 -31 -43 -46 -80 -46z" />
    <glyph glyph-name="sacute" unicode="&#x15b;" horiz-adv-x="526" 
d="M191 -21c-29 0 -54 1 -74 4c-45 7 -80 26 -107 55c-23 23 -34 53 -34 90c0 59 22 101 65 128c17 10 35 15 54 15c27 0 55 -10 84 -30c11 -8 16 -19 16 -31c0 -8 -2 -16 -7 -22c-7 -10 -17 -15 -31 -15c-9 0 -16 2 -22 6c-15 11 -28 16 -40 16c-13 0 -24 -7 -33 -22
c-7 -11 -10 -26 -10 -44c0 -23 8 -41 24 -52c15 -13 33 -19 55 -19c33 0 60 12 82 35c17 19 26 42 26 69c-3 52 -19 99 -46 141c-18 26 -45 57 -82 94l-36 38c-53 56 -80 116 -80 178c0 82 40 144 119 185c45 22 92 33 141 33c22 0 43 -2 63 -7c81 -19 122 -63 122 -133
c0 -33 -12 -71 -35 -115c-8 -11 -18 -17 -30 -17c-9 0 -17 2 -23 6c-11 6 -17 16 -17 30c0 9 2 16 6 22c15 23 22 45 22 65c0 19 -7 35 -21 47c-13 12 -28 18 -44 18c-35 0 -60 -19 -77 -57c-9 -20 -14 -45 -14 -76c0 -62 26 -118 79 -168l73 -71c26 -26 46 -54 61 -83
c15 -32 23 -68 23 -108c0 -73 -37 -129 -112 -168c-41 -22 -88 -34 -140 -37zM196 904c-27 0 -51 9 -69 27c-9 8 -14 15 -14 20c0 2 2 4 4 4c20 4 39 21 57 52c10 18 26 50 47 98c28 68 52 111 72 128c15 11 31 16 48 16c23 0 44 -8 62 -24c19 -15 28 -35 28 -58
s-7 -49 -20 -79c-25 -54 -62 -100 -110 -137c-40 -31 -75 -47 -105 -47z" />
    <glyph glyph-name="scircumflex" unicode="&#x15d;" horiz-adv-x="526" 
d="M191 -21c-29 0 -54 1 -74 4c-45 7 -80 26 -107 55c-23 23 -34 53 -34 90c0 59 22 101 65 128c17 10 35 15 54 15c27 0 55 -10 84 -30c11 -8 16 -19 16 -31c0 -8 -2 -16 -7 -22c-7 -10 -17 -15 -31 -15c-9 0 -16 2 -22 6c-15 11 -28 16 -40 16c-13 0 -24 -7 -33 -22
c-7 -11 -10 -26 -10 -44c0 -23 8 -41 24 -52c15 -13 33 -19 55 -19c33 0 60 12 82 35c17 19 26 42 26 69c-3 52 -19 99 -46 141c-18 26 -45 57 -82 94l-36 38c-53 56 -80 116 -80 178c0 82 40 144 119 185c45 22 92 33 141 33c22 0 43 -2 63 -7c81 -19 122 -63 122 -133
c0 -33 -12 -71 -35 -115c-8 -11 -18 -17 -30 -17c-9 0 -17 2 -23 6c-11 6 -17 16 -17 30c0 9 2 16 6 22c15 23 22 45 22 65c0 19 -7 35 -21 47c-13 12 -28 18 -44 18c-35 0 -60 -19 -77 -57c-9 -20 -14 -45 -14 -76c0 -62 26 -118 79 -168l73 -71c26 -26 46 -54 61 -83
c15 -32 23 -68 23 -108c0 -73 -37 -129 -112 -168c-41 -22 -88 -34 -140 -37zM393 876h-17c-65 9 -117 69 -158 181l-78 -158c-8 -15 -20 -23 -38 -23c-7 0 -13 1 -19 4c-16 9 -24 22 -24 39c0 6 31 71 92 195c15 31 41 46 77 46c23 0 46 -3 69 -8c7 -1 21 -36 41 -103
c26 -87 47 -138 63 -152c5 -4 8 -8 8 -11c0 -5 -6 -8 -16 -10z" />
    <glyph glyph-name="scedilla" unicode="&#x15f;" horiz-adv-x="526" 
d="M236 -591c-24 0 -47 5 -69 15c-41 18 -73 48 -96 91c0 1 -1 4 -2 8c-1 3 -1 7 -1 10v9c1 4 3 9 8 15c4 6 11 11 22 14c8 3 14 4 20 4c16 0 31 -11 45 -34c19 -25 36 -38 52 -38c25 0 46 24 63 71c12 34 18 69 18 106c0 38 -7 67 -22 88c-11 13 -23 20 -38 20
c-17 0 -33 -14 -50 -43c-10 -18 -28 -27 -51 -27c-15 0 -27 6 -35 16c-6 8 -9 38 -9 91c0 61 5 115 15 161c-39 7 -71 25 -96 52c-23 23 -34 53 -34 90c0 58 21 101 65 128c16 10 35 15 54 15c27 0 55 -10 84 -30c11 -9 16 -19 16 -31c0 -8 -2 -16 -7 -22
c-7 -10 -17 -15 -31 -15c-9 0 -16 2 -22 6c-14 10 -28 16 -40 16c-13 0 -24 -8 -33 -22c-7 -12 -10 -26 -10 -44c0 -22 7 -40 23 -52s35 -19 58 -19c32 0 58 12 80 35c17 19 26 41 26 69c-3 52 -18 99 -46 141c-18 25 -45 57 -82 94l-36 38c-54 57 -80 116 -80 178
c0 83 39 145 119 185c45 22 92 33 141 33c22 0 43 -2 63 -7c44 -10 76 -29 97 -55c16 -22 25 -48 25 -78c0 -33 -12 -72 -35 -115c-8 -11 -18 -17 -31 -17c-8 0 -16 2 -22 6c-11 6 -17 16 -17 30c0 8 2 16 6 22c15 23 22 45 22 66c0 19 -7 34 -21 46c-13 12 -29 18 -46 18
c-33 0 -58 -19 -75 -57c-9 -19 -14 -44 -14 -76c0 -49 16 -94 46 -132c12 -16 47 -51 104 -106c58 -56 86 -120 86 -192c0 -73 -37 -129 -112 -168c-24 -13 -52 -23 -85 -30l-1 -13c-5 -23 -8 -51 -9 -85c12 3 25 4 37 4c36 0 68 -10 95 -30s48 -43 63 -69
c23 -39 35 -82 35 -128c0 -14 -2 -31 -5 -52s-10 -45 -22 -71c-13 -27 -29 -50 -49 -70s-43 -36 -69 -47s-54 -16 -85 -16z" />
    <glyph glyph-name="scaorn" unicode="&#x161;" horiz-adv-x="526" 
d="M191 -21c-29 0 -54 1 -74 4c-45 7 -80 26 -107 55c-23 23 -34 53 -34 90c0 59 22 101 65 128c17 10 35 15 54 15c27 0 55 -10 84 -30c11 -8 16 -19 16 -31c0 -8 -2 -16 -7 -22c-7 -10 -17 -15 -31 -15c-9 0 -16 2 -22 6c-15 11 -28 16 -40 16c-13 0 -24 -7 -33 -22
c-7 -11 -10 -26 -10 -44c0 -23 8 -41 24 -52c15 -13 33 -19 55 -19c33 0 60 12 82 35c17 19 26 42 26 69c-3 52 -19 99 -46 141c-18 26 -45 57 -82 94l-36 38c-53 56 -80 116 -80 178c0 82 40 144 119 185c45 22 92 33 141 33c22 0 43 -2 63 -7c81 -19 122 -63 122 -133
c0 -33 -12 -71 -35 -115c-8 -11 -18 -17 -30 -17c-9 0 -17 2 -23 6c-11 6 -17 16 -17 30c0 9 2 16 6 22c15 23 22 45 22 65c0 19 -7 35 -21 47c-13 12 -28 18 -44 18c-35 0 -60 -19 -77 -57c-9 -20 -14 -45 -14 -76c0 -62 26 -118 79 -168l73 -71c26 -26 46 -54 61 -83
c15 -32 23 -68 23 -108c0 -73 -37 -129 -112 -168c-41 -22 -88 -34 -140 -37zM251 885c-45 0 -70 7 -77 23c-4 9 -21 60 -50 153c-16 46 -30 76 -43 87c-5 4 -8 8 -8 11c0 5 6 8 16 10c18 0 35 -3 52 -10c48 -22 89 -79 123 -171l78 158c8 15 20 23 38 23c6 0 13 -1 19 -4
c16 -9 24 -22 24 -39c0 -6 -31 -71 -92 -195c-16 -31 -43 -46 -80 -46z" />
    <glyph glyph-name="divide" unicode="&#xf7;" horiz-adv-x="397" 
d="M254 175l-237 4c-9 0 -17 3 -24 7c-8 4 -13 10 -17 17c-4 8 -6 16 -6 25c0 13 5 24 14 33s20 13 33 14l238 -4c19 -1 32 -9 41 -24c4 -8 6 -16 6 -25s-2 -17 -7 -24c-4 -7 -10 -12 -17 -17c-7 -4 -15 -6 -24 -6zM161 -83c-12 0 -26 3 -40 8c-34 11 -59 33 -75 64
c-9 20 -14 38 -14 55c0 26 10 47 30 64c21 16 46 24 76 24c35 0 64 -13 85 -38c16 -19 24 -47 24 -83c0 -35 -10 -61 -31 -77c-15 -11 -33 -17 -55 -17zM161 317c-12 0 -26 3 -40 8c-34 11 -59 33 -75 64c-9 20 -14 38 -14 55c0 26 10 47 30 64c21 16 46 24 76 24
c35 0 64 -13 85 -38c16 -19 24 -47 24 -83c0 -35 -10 -61 -31 -77c-15 -11 -33 -17 -55 -17z" />
    <glyph glyph-name="oslash" unicode="&#xf8;" horiz-adv-x="659" 
d="M201 218l59 200c-15 14 -29 29 -42 45c-22 -51 -32 -101 -32 -151c0 -33 5 -64 15 -94zM433 427c17 0 35 3 55 10c-10 88 -30 159 -60 214l-62 -210c25 -9 47 -14 67 -14zM288 512l29 98c-17 -19 -33 -38 -49 -58c5 -14 12 -27 20 -40zM332 663l23 75c-11 5 -21 8 -31 8
c-17 0 -31 -7 -43 -21s-20 -33 -25 -57c13 1 26 1 40 1c20 0 32 -2 36 -6zM348 90c3 0 9 0 20 1c10 1 23 7 40 19c56 40 83 122 83 245v24c-29 -14 -58 -22 -87 -22c-21 0 -41 4 -60 10l-74 -249c24 -19 50 -28 78 -28zM159 -140c-20 0 -34 8 -42 26c-4 7 -6 14 -6 22
c0 5 9 38 27 97l-8 6c-45 29 -81 73 -107 134c-23 53 -35 111 -35 172c0 72 14 136 41 192c27 57 67 100 119 130v13c0 50 14 91 43 124c28 33 66 49 112 49c27 0 52 -5 73 -16l25 86c7 23 22 34 45 34c14 0 26 -5 35 -15s13 -20 13 -32c0 -5 -12 -49 -37 -134
c26 -31 49 -71 69 -122c30 -83 45 -167 45 -252c0 -90 -17 -170 -52 -241c-29 -60 -69 -104 -118 -133c-35 -21 -76 -31 -123 -32c-16 0 -33 2 -51 5l-23 -79c-3 -9 -7 -16 -13 -21c-10 -9 -20 -13 -32 -13z" />
    <glyph glyph-name="ugrave" unicode="&#xf9;" horiz-adv-x="743" 
d="M510 -12c-22 0 -39 21 -52 64c-12 36 -19 81 -23 133c-8 -27 -17 -52 -26 -75c-33 -81 -93 -122 -181 -122c-37 0 -68 7 -95 20c-87 39 -134 162 -143 368v102c0 149 22 250 65 301c19 24 39 38 61 42c7 1 16 2 27 2c30 -2 50 -17 60 -45l-2 -16
c-10 -57 -15 -134 -15 -230c0 -28 1 -56 3 -86c6 -112 22 -204 47 -275c15 -42 32 -64 49 -64c13 0 28 14 44 42c24 42 46 111 68 208l33 154c22 98 47 173 77 224c16 31 38 60 66 86c22 19 41 29 55 29c24 0 36 -26 36 -79l-1 -31c-19 -198 -29 -351 -29 -460
c0 -43 1 -91 4 -142c0 -73 -28 -120 -85 -141c-15 -6 -29 -9 -43 -9zM368 873c-30 0 -65 16 -104 47c-50 39 -87 85 -110 137c-14 30 -20 58 -20 81c0 22 9 40 27 56s39 24 63 24c29 0 53 -16 73 -47c10 -16 25 -49 47 -97c15 -37 31 -70 48 -98c17 -31 36 -48 56 -52
c2 0 3 -2 3 -4c-4 -14 -17 -26 -37 -36c-13 -7 -28 -11 -46 -11z" />
    <glyph glyph-name="uacute" unicode="&#xfa;" horiz-adv-x="743" 
d="M510 -12c-22 0 -39 21 -52 64c-12 36 -19 81 -23 133c-8 -27 -17 -52 -26 -75c-33 -81 -93 -122 -181 -122c-37 0 -68 7 -95 20c-87 39 -134 162 -143 368v102c0 149 22 250 65 301c19 24 39 38 61 42c7 1 16 2 27 2c30 -2 50 -17 60 -45l-2 -16
c-10 -57 -15 -134 -15 -230c0 -28 1 -56 3 -86c6 -112 22 -204 47 -275c15 -42 32 -64 49 -64c13 0 28 14 44 42c24 42 46 111 68 208l33 154c22 98 47 173 77 224c16 31 38 60 66 86c22 19 41 29 55 29c24 0 36 -26 36 -79l-1 -31c-19 -198 -29 -351 -29 -460
c0 -43 1 -91 4 -142c0 -73 -28 -120 -85 -141c-15 -6 -29 -9 -43 -9zM329 902c-27 0 -51 9 -69 27c-9 8 -14 15 -14 20c0 2 2 4 4 4c20 4 39 21 57 52c10 18 26 50 47 98c28 68 52 111 72 128c15 11 31 16 48 16c23 0 44 -8 62 -24c19 -15 28 -35 28 -58s-7 -49 -20 -79
c-25 -54 -62 -100 -110 -137c-40 -31 -75 -47 -105 -47z" />
    <glyph glyph-name="ucircumflex" unicode="&#xfb;" horiz-adv-x="743" 
d="M510 -12c-22 0 -39 21 -52 64c-12 36 -19 81 -23 133c-8 -27 -17 -52 -26 -75c-33 -81 -93 -122 -181 -122c-37 0 -68 7 -95 20c-87 39 -134 162 -143 368v102c0 149 22 250 65 301c19 24 39 38 61 42c7 1 16 2 27 2c30 -2 50 -17 60 -45l-2 -16
c-10 -57 -15 -134 -15 -230c0 -28 1 -56 3 -86c6 -112 22 -204 47 -275c15 -42 32 -64 49 -64c13 0 28 14 44 42c24 42 46 111 68 208l33 154c22 98 47 173 77 224c16 31 38 60 66 86c22 19 41 29 55 29c24 0 36 -26 36 -79l-1 -31c-19 -198 -29 -351 -29 -460
c0 -43 1 -91 4 -142c0 -73 -28 -120 -85 -141c-15 -6 -29 -9 -43 -9zM525 885h-17c-65 9 -117 69 -158 181l-78 -158c-8 -15 -20 -23 -38 -23c-7 0 -13 1 -19 4c-16 9 -24 22 -24 39c0 6 31 71 92 195c15 31 41 46 77 46c23 0 46 -3 69 -8c7 -1 21 -36 41 -103
c26 -87 47 -138 63 -152c5 -4 8 -8 8 -11c0 -5 -6 -8 -16 -10z" />
    <glyph glyph-name="udieresis" unicode="&#xfc;" horiz-adv-x="743" 
d="M510 -12c-22 0 -39 21 -52 64c-12 36 -19 81 -23 133c-8 -27 -17 -52 -26 -75c-33 -81 -93 -122 -181 -122c-37 0 -68 7 -95 20c-87 39 -134 162 -143 368v102c0 149 22 250 65 301c19 24 39 38 61 42c7 1 16 2 27 2c30 -2 50 -17 60 -45l-2 -16
c-10 -57 -15 -134 -15 -230c0 -28 1 -56 3 -86c6 -112 22 -204 47 -275c15 -42 32 -64 49 -64c13 0 28 14 44 42c24 42 46 111 68 208l33 154c22 98 47 173 77 224c16 31 38 60 66 86c22 19 41 29 55 29c24 0 36 -26 36 -79l-1 -31c-19 -198 -29 -351 -29 -460
c0 -43 1 -91 4 -142c0 -73 -28 -120 -85 -141c-15 -6 -29 -9 -43 -9zM235 908c-12 0 -26 3 -40 8c-34 11 -59 33 -75 64c-9 20 -14 38 -14 55c0 26 10 47 30 64c21 16 46 24 76 24c35 0 64 -13 85 -38c16 -19 24 -47 24 -83c0 -35 -10 -61 -31 -77c-15 -11 -33 -17 -55 -17z
M504 908c-12 0 -26 3 -40 8c-34 11 -59 33 -75 64c-9 20 -14 38 -14 55c0 26 10 47 30 64c21 16 46 24 76 24c35 0 64 -13 85 -38c16 -19 24 -47 24 -83c0 -35 -10 -61 -31 -77c-15 -11 -33 -17 -55 -17z" />
    <glyph glyph-name="uogonek" unicode="&#x173;" horiz-adv-x="743" 
d="M608 -347c-39 0 -79 17 -121 51c-38 31 -67 71 -85 121c-12 31 -18 64 -19 101c0 25 4 50 10 77c16 25 38 42 64 51c-11 40 -18 83 -22 131c-8 -27 -17 -52 -26 -75c-33 -81 -94 -122 -184 -122c-35 0 -66 7 -92 20c-96 45 -143 188 -143 429c0 45 0 83 2 113
c9 138 40 224 94 258c15 10 32 15 51 15c24 0 42 -8 55 -23c5 -8 9 -15 11 -22c-11 -64 -17 -145 -17 -246c0 -28 1 -58 3 -92c7 -110 22 -200 47 -269c15 -42 31 -63 49 -63c14 0 28 14 44 42c25 43 48 112 68 207c25 118 42 196 53 235c29 105 70 181 123 229
c22 19 40 29 55 29c24 0 36 -25 37 -74l-2 -36c-10 -101 -17 -183 -21 -247c-5 -68 -8 -139 -8 -213c0 -43 2 -92 4 -146c0 -56 -20 -98 -59 -123c2 -3 3 -10 3 -19c0 -11 -5 -32 -15 -63c-13 -38 -19 -67 -19 -88c0 -23 7 -40 20 -51c8 -8 24 -17 46 -29
c41 -20 62 -39 62 -55c0 -6 -2 -11 -5 -18c-13 -23 -34 -35 -63 -35z" />
    <glyph glyph-name="wcircumflex" unicode="&#x175;" horiz-adv-x="1055" 
d="M670 -28c-24 0 -49 4 -76 12c-82 26 -134 103 -157 233c-10 -40 -21 -73 -33 -100c-39 -96 -98 -144 -176 -144c-46 0 -85 12 -117 35c-80 54 -119 181 -119 381c0 243 39 373 119 390c7 1 16 2 27 2c30 -2 52 -17 64 -44l-10 -61c-7 -43 -12 -95 -13 -157
c0 -205 30 -337 89 -396c9 -11 19 -17 29 -17c37 0 72 105 104 314c7 45 12 76 15 93c6 35 17 66 34 93c33 50 68 75 103 75c29 0 44 -27 44 -82c-1 -13 -1 -27 -1 -41c0 -107 12 -209 35 -304c16 -68 37 -119 63 -151c16 -22 34 -33 52 -33c41 0 80 55 117 165
c31 97 47 207 47 329c0 136 -25 230 -76 283c-8 7 -13 16 -13 28c0 10 3 18 10 26c6 8 15 12 25 12c9 0 18 -3 26 -10c67 -67 101 -184 101 -351c0 -81 -9 -166 -28 -256c-35 -154 -96 -254 -184 -299c-32 -17 -65 -25 -101 -25zM693 866h-17c-65 9 -117 69 -158 181
l-78 -158c-8 -15 -20 -23 -38 -23c-7 0 -13 1 -19 4c-16 9 -24 22 -24 39c0 6 31 71 92 195c15 31 41 46 77 46c23 0 46 -3 69 -8c7 -1 21 -36 41 -103c26 -87 47 -138 63 -152c5 -4 8 -8 8 -11c0 -5 -6 -8 -16 -10z" />
    <glyph glyph-name="yacute" unicode="&#xfd;" horiz-adv-x="727" 
d="M228 -532c-48 0 -90 15 -125 45c-29 25 -51 56 -66 93c-13 32 -20 65 -20 97c0 6 1 15 2 28s4 29 10 48c5 19 14 37 25 54s24 32 40 47s35 27 57 38c21 11 46 19 73 25s58 9 92 9c7 0 14 -2 20 -5c5 -3 10 -8 14 -14c3 -6 5 -12 5 -19s-2 -14 -5 -19
c-8 -13 -19 -20 -33 -20c-52 0 -95 -8 -128 -24c-61 -30 -92 -79 -92 -145c0 -26 6 -51 18 -77c11 -23 26 -41 45 -53c12 -8 25 -12 39 -12c32 0 63 21 91 61c30 44 53 103 68 177c16 76 27 178 33 306c-32 -55 -87 -83 -164 -83c-92 0 -158 45 -196 134
c-36 84 -54 198 -54 342c0 22 0 42 1 62c2 133 31 215 86 247c16 10 33 14 50 14c31 0 54 -14 68 -43c-8 -71 -11 -128 -11 -170v-58c2 -61 8 -127 21 -199c27 -143 57 -214 91 -214c9 0 20 8 35 24c15 17 34 66 55 149c7 28 13 55 16 81c3 31 5 81 5 150c0 61 1 108 4 142
c4 40 24 79 59 116c36 37 72 57 107 58c46 0 68 -38 68 -115l-1 -33c-11 -122 -17 -342 -18 -659c-1 -59 -6 -115 -16 -168c-39 -198 -123 -328 -252 -389c-39 -19 -78 -28 -117 -28zM292 880c-27 0 -51 9 -69 27c-9 8 -14 15 -14 20c0 2 2 4 4 4c20 4 39 21 57 52
c10 18 26 50 47 98c28 68 52 111 72 128c15 11 31 16 48 16c23 0 44 -8 62 -24c19 -15 28 -35 28 -58s-7 -49 -20 -79c-25 -54 -62 -100 -110 -137c-40 -31 -75 -47 -105 -47z" />
    <glyph glyph-name="ycircumflex" unicode="&#x177;" horiz-adv-x="727" 
d="M228 -532c-48 0 -90 15 -125 45c-29 25 -51 56 -66 93c-13 32 -20 65 -20 97c0 6 1 15 2 28s4 29 10 48c5 19 14 37 25 54s24 32 40 47s35 27 57 38c21 11 46 19 73 25s58 9 92 9c7 0 14 -2 20 -5c5 -3 10 -8 14 -14c3 -6 5 -12 5 -19s-2 -14 -5 -19
c-8 -13 -19 -20 -33 -20c-52 0 -95 -8 -128 -24c-61 -30 -92 -79 -92 -145c0 -26 6 -51 18 -77c11 -23 26 -41 45 -53c12 -8 25 -12 39 -12c32 0 63 21 91 61c30 44 53 103 68 177c16 76 27 178 33 306c-32 -55 -87 -83 -164 -83c-92 0 -158 45 -196 134
c-36 84 -54 198 -54 342c0 22 0 42 1 62c2 133 31 215 86 247c16 10 33 14 50 14c31 0 54 -14 68 -43c-8 -71 -11 -128 -11 -170v-58c2 -61 8 -127 21 -199c27 -143 57 -214 91 -214c9 0 20 8 35 24c15 17 34 66 55 149c7 28 13 55 16 81c3 31 5 81 5 150c0 61 1 108 4 142
c4 40 24 79 59 116c36 37 72 57 107 58c46 0 68 -38 68 -115l-1 -33c-11 -122 -17 -342 -18 -659c-1 -59 -6 -115 -16 -168c-39 -198 -123 -328 -252 -389c-39 -19 -78 -28 -117 -28zM473 874h-17c-65 9 -117 69 -158 181l-78 -158c-8 -15 -20 -23 -38 -23c-7 0 -13 1 -19 4
c-16 9 -24 22 -24 39c0 6 31 71 92 195c15 31 41 46 77 46c23 0 46 -3 69 -8c7 -1 21 -36 41 -103c26 -87 47 -138 63 -152c5 -4 8 -8 8 -11c0 -5 -6 -8 -16 -10z" />
    <glyph glyph-name="thorn" unicode="&#xfe;" horiz-adv-x="656" 
d="M134 -67c-44 0 -80 58 -108 176c-19 75 -32 166 -42 272c-9 100 -14 168 -14 202l1 21c-2 48 -3 95 -3 142c0 99 3 185 9 260c9 124 22 206 41 246c7 13 17 25 30 35c26 21 56 31 89 31c31 0 54 -11 70 -32c10 -13 16 -31 16 -54c0 -14 -2 -30 -7 -48
c-11 -42 -22 -147 -34 -315c34 10 68 15 103 15c90 0 161 -28 214 -83c41 -44 61 -108 61 -190c0 -43 -6 -86 -17 -129c-24 -87 -65 -150 -122 -189c-41 -27 -86 -41 -136 -41c-44 0 -88 10 -130 31l-1 -124c0 -78 2 -131 6 -157c1 -10 2 -19 2 -27c0 -28 -9 -42 -28 -42z
M270 330c41 0 77 24 109 72c37 59 56 128 56 205c0 37 -5 70 -16 100c-17 50 -42 75 -75 75c-28 0 -58 -16 -88 -48c-62 -65 -92 -143 -92 -235c0 -57 11 -100 34 -130c19 -26 43 -39 72 -39z" />
    <glyph glyph-name="ydieresis" unicode="&#xff;" horiz-adv-x="727" 
d="M228 -532c-48 0 -90 15 -125 45c-29 25 -51 56 -66 93c-13 32 -20 65 -20 97c0 6 1 15 2 28s4 29 10 48c5 19 14 37 25 54s24 32 40 47s35 27 57 38c21 11 46 19 73 25s58 9 92 9c7 0 14 -2 20 -5c5 -3 10 -8 14 -14c3 -6 5 -12 5 -19s-2 -14 -5 -19
c-8 -13 -19 -20 -33 -20c-52 0 -95 -8 -128 -24c-61 -30 -92 -79 -92 -145c0 -26 6 -51 18 -77c11 -23 26 -41 45 -53c12 -8 25 -12 39 -12c32 0 63 21 91 61c30 44 53 103 68 177c16 76 27 178 33 306c-32 -55 -87 -83 -164 -83c-92 0 -158 45 -196 134
c-36 84 -54 198 -54 342c0 22 0 42 1 62c2 133 31 215 86 247c16 10 33 14 50 14c31 0 54 -14 68 -43c-8 -71 -11 -128 -11 -170v-58c2 -61 8 -127 21 -199c27 -143 57 -214 91 -214c9 0 20 8 35 24c15 17 34 66 55 149c7 28 13 55 16 81c3 31 5 81 5 150c0 61 1 108 4 142
c4 40 24 79 59 116c36 37 72 57 107 58c46 0 68 -38 68 -115l-1 -33c-11 -122 -17 -342 -18 -659c-1 -59 -6 -115 -16 -168c-39 -198 -123 -328 -252 -389c-39 -19 -78 -28 -117 -28zM171 908c-12 0 -26 3 -40 8c-34 11 -59 33 -75 64c-9 20 -14 38 -14 55c0 26 10 47 30 64
c21 16 46 24 76 24c35 0 64 -13 85 -38c16 -19 24 -47 24 -83c0 -35 -10 -61 -31 -77c-15 -11 -33 -17 -55 -17zM440 908c-12 0 -26 3 -40 8c-34 11 -59 33 -75 64c-9 20 -14 38 -14 55c0 26 10 47 30 64c21 16 46 24 76 24c35 0 64 -13 85 -38c16 -19 24 -47 24 -83
c0 -35 -10 -61 -31 -77c-15 -11 -33 -17 -55 -17z" />
    </font>
</defs>
</svg>
